<svg id="Layer_1" data-name="Layer 1" xmlns="http://www.w3.org/2000/svg" viewBox="0 0 40.19 64.9"><defs><style>.cls-1,.cls-5{fill:#ed4c64;stroke:#d44d67;stroke-miterlimit:10;}.cls-2,.cls-4{fill:#fbf9ef;}.cls-2{opacity:0.31;}.cls-3{fill:#d44d67;}.cls-4{opacity:0.36;}.cls-5{stroke-width:0.5px;}</style></defs><title>bear-red</title><ellipse class="cls-1" cx="20.43" cy="43.66" rx="16.29" ry="19.09"/><path class="cls-1" d="M55,51.35c-4.23,3.67-9.53,3.38-11.91-.62s1.9-6.37,2.18-8.46c-.21,3.12-8.49,3.59-9.35.39.3,2,4.37,4.76,2.12,8-2.63,3.73-7.52,4.38-11.9.77-3.41-2.84-5.85-7.41-4.8-11,1.82-6.27,11.14-9.2,15.34-9.53,12.36-1,19.39,2.28,22.22,7.55C60.57,42.4,59,48,55,51.35Z" transform="translate(-20.63 -5.5)"/><path class="cls-1" d="M54.09,22a14.21,14.21,0,1,1-26.61-6.92,4.77,4.77,0,1,1,6.52-6,14.19,14.19,0,0,1,10.56-.49,4.77,4.77,0,1,1,7.33,5.83A14,14,0,0,1,54.09,22Z" transform="translate(-20.63 -5.5)"/><ellipse class="cls-1" cx="29.83" cy="61.55" rx="7.16" ry="9.15" transform="translate(-56.87 38.34) rotate(-49.14)"/><ellipse class="cls-1" cx="52.25" cy="61.55" rx="9.15" ry="7.16" transform="translate(-49.11 55.3) rotate(-49.14)"/><ellipse class="cls-2" cx="19.75" cy="20.74" rx="6.85" ry="5.14"/><circle class="cls-3" cx="15.44" cy="12.5" r="0.91"/><circle class="cls-3" cx="23.55" cy="12.5" r="0.91"/><ellipse class="cls-3" cx="19.5" cy="18.43" rx="2.15" ry="0.91"/><path class="cls-3" d="M28.77,13.89a48.63,48.63,0,0,0,3.86-3.38s-2.66-3.4-4.78-1C26.17,11.36,28.77,13.89,28.77,13.89Z" transform="translate(-20.63 -5.5)"/><path class="cls-3" d="M46.13,9.75A46.26,46.26,0,0,0,50.07,13s2.94-3.15.27-4.88C48.22,6.8,46.13,9.75,46.13,9.75Z" transform="translate(-20.63 -5.5)"/><ellipse class="cls-4" cx="9.2" cy="1.95" rx="1.64" ry="0.45"/><ellipse class="cls-4" cx="28.16" cy="1.5" rx="1.64" ry="0.45"/><path class="cls-2" d="M51.46,40.6a32.37,32.37,0,0,0-4.19,3.76,36.18,36.18,0,0,0-3,4.8,9.37,9.37,0,0,1,1.88-5.36C47.89,41.76,51.46,40.6,51.46,40.6Z" transform="translate(-20.63 -5.5)"/><path class="cls-2" d="M37.31,49.44a32.44,32.44,0,0,0-3.2-4.64,35.66,35.66,0,0,0-4.38-3.55,9.45,9.45,0,0,1,5.08,2.55C36.61,45.75,37.31,49.44,37.31,49.44Z" transform="translate(-20.63 -5.5)"/><path class="cls-2" d="M53.29,55.07a33.44,33.44,0,0,0-4.19,3.77,35.65,35.65,0,0,0-3,4.79A9.46,9.46,0,0,1,48,58.27C49.72,56.23,53.29,55.07,53.29,55.07Z" transform="translate(-20.63 -5.5)"/><path class="cls-2" d="M36.31,64.16a32.44,32.44,0,0,0-3.2-4.64A35.22,35.22,0,0,0,28.73,56a9.4,9.4,0,0,1,5.08,2.54C35.61,60.47,36.31,64.16,36.31,64.16Z" transform="translate(-20.63 -5.5)"/><path class="cls-2" d="M45.79,11.58a32.43,32.43,0,0,0-5.52-1.11,35.47,35.47,0,0,0-5.62.49,9.44,9.44,0,0,1,5.43-1.7C42.73,9.41,45.79,11.58,45.79,11.58Z" transform="translate(-20.63 -5.5)"/><line class="cls-5" x1="19.59" y1="19.34" x2="19.7" y2="23.88"/><path class="cls-2" d="M57.62,39.73a26.29,26.29,0,0,0-3.7-3.43,28.29,28.29,0,0,0-4.61-2,7.89,7.89,0,0,1,5.09.91C56.37,36.46,57.62,39.73,57.62,39.73Z" transform="translate(-20.63 -5.5)"/><path class="cls-2" d="M30.62,34.16a26,26,0,0,0-3.94,3.14A27.23,27.23,0,0,0,24,41.54a7.88,7.88,0,0,1,1.67-4.89C27.21,34.89,30.62,34.16,30.62,34.16Z" transform="translate(-20.63 -5.5)"/><path class="cls-2" d="M44.44,23.4a20.92,20.92,0,0,0-4-.77,23.32,23.32,0,0,0-4.09.54,6.51,6.51,0,0,1,3.92-1.53A9.28,9.28,0,0,1,44.44,23.4Z" transform="translate(-20.63 -5.5)"/></svg>