<?xml version="1.0" encoding="utf-8"?>
<!-- Generator: Adobe Illustrator 24.0.0, SVG Export Plug-In . SVG Version: 6.00 Build 0)  -->
<svg version="1.1" id="Layer_1" xmlns="http://www.w3.org/2000/svg" xmlns:xlink="http://www.w3.org/1999/xlink" x="0px" y="0px"
	 viewBox="0 0 146.4 145.3" style="enable-background:new 0 0 146.4 145.3;" xml:space="preserve">
<style type="text/css">
	.st0{fill:#FBD433;stroke:#E9C83A;stroke-width:2.89;stroke-miterlimit:10;}
	.st1{fill:#FBF9EF;}
	.st2{fill:#FDE38C;}
	.st3{fill:#EFCB36;}
</style>
<title>gumdrop-yellow</title>
<path class="st0" d="M145,122.8c0,0.3,0,0.7-0.1,1c-1.8,11.2-33.2,20-71.7,20s-69.8-8.9-71.7-20c0-0.3-0.1-0.7-0.1-1l6-56.7
	C13.3,30.9,32.3,1.4,71.8,1.4s57.6,25,66.1,65.9L145,122.8z"/>
<ellipse class="st1" cx="77.8" cy="35.2" rx="3.8" ry="3.8"/>
<ellipse class="st1" cx="66.3" cy="27.3" rx="3.5" ry="3.5"/>
<ellipse class="st1" cx="77" cy="16.5" rx="4.1" ry="4.1"/>
<ellipse class="st1" cx="88" cy="26.5" rx="4.1" ry="4.1"/>
<ellipse class="st1" cx="91.5" cy="13" rx="3.5" ry="3.5"/>
<ellipse class="st1" cx="103.2" cy="24.8" rx="4.1" ry="4.1"/>
<path class="st2" d="M21.3,45C24.4,10.3,69.2,0.5,84.6,7c0,0-20.9,2.3-36.4,11.4C31.5,28.1,21.3,45,21.3,45z"/>
<path class="st3" d="M13.4,74l-5.8,49.2c0,0,8,9.6,43.3,14.1c53.1,6.7,75.6-11.2,75.6-11.2S60,146.2,25,114
	C15.2,104.8,13.4,74,13.4,74z"/>
<ellipse class="st1" cx="57.1" cy="20.1" rx="3.6" ry="3.6"/>
<ellipse class="st1" cx="47.8" cy="35.2" rx="4.1" ry="4.1"/>
</svg>
