<svg id="Layer_1" data-name="Layer 1" xmlns="http://www.w3.org/2000/svg" viewBox="0 0 146.42 145.32"><defs><style>.cls-1,.cls-3{fill:#fbf9ef;}.cls-1{stroke:#72a4a9;stroke-width:1.85px;}.cls-1,.cls-2{stroke-miterlimit:10;}.cls-2{fill:#fbd433;stroke:#e9c83a;stroke-width:2.89px;}.cls-4{fill:#fde38c;}.cls-5{fill:#efcb36;}</style></defs><title>gumdrop-yellow</title><path class="cls-1" d="M3.32,142.78H3.24v-1.14A8.74,8.74,0,0,0,3.32,142.78Z" transform="translate(-1.79 -2.72)"/><path class="cls-1" d="M146.76,141.64v1.14h-.08A8.74,8.74,0,0,0,146.76,141.64Z" transform="translate(-1.79 -2.72)"/><path class="cls-2" d="M146.76,125.51a7.26,7.26,0,0,1-.08,1c-1.83,11.16-33.21,20-71.68,20s-69.85-8.89-71.68-20a7.26,7.26,0,0,1-.08-1l6-56.65c5.87-35.23,24.88-64.7,64.38-64.7s57.58,25,66.08,65.9Z" transform="translate(-1.79 -2.72)"/><ellipse class="cls-3" cx="77.78" cy="35.21" rx="3.79" ry="3.82"/><ellipse class="cls-3" cx="66.34" cy="27.28" rx="3.49" ry="3.52"/><ellipse class="cls-3" cx="77" cy="16.5" rx="4.08" ry="4.12"/><ellipse class="cls-3" cx="88.04" cy="26.53" rx="4.08" ry="4.12"/><ellipse class="cls-3" cx="91.53" cy="12.99" rx="3.49" ry="3.52"/><ellipse class="cls-3" cx="103.19" cy="24.75" rx="4.08" ry="4.12"/><path class="cls-4" d="M23.07,47.72C26.16,13,71,3.22,86.36,9.69c0,0-20.9,2.28-36.39,11.36C33.32,30.82,23.07,47.72,23.07,47.72Z" transform="translate(-1.79 -2.72)"/><path class="cls-5" d="M15.15,76.75,9.3,125.94s8,9.62,43.34,14.11c53.07,6.72,75.56-11.2,75.56-11.2S61.81,148.92,26.83,116.69C16.94,107.57,15.15,76.75,15.15,76.75Z" transform="translate(-1.79 -2.72)"/><ellipse class="cls-3" cx="57.06" cy="20.13" rx="3.59" ry="3.63"/><ellipse class="cls-3" cx="47.77" cy="35.21" rx="4.08" ry="4.12"/></svg>