<svg id="Layer_1" data-name="Layer 1" xmlns="http://www.w3.org/2000/svg" viewBox="0 0 79.78 55.89"><defs><style>.cls-1{fill:#69c2c8;stroke:#5fb0b2;stroke-miterlimit:10;stroke-width:2px;}.cls-2{fill:#7fcfd3;}</style></defs><title>jb-blue</title><path class="cls-1" d="M55.56,73.84c-12.68,2.8-26.4-.46-34.4-4.93-11-6.14-14.4-19.32-9-27.24C16.59,35.28,27,29.59,34.66,37c4.67,4.49,19.28,5,23-4.08,2.54-6.2,6-11.83,15.27-11.93,9.61-.1,16.68,12.79,13.92,25.07C83.58,60.55,71.92,70.23,55.56,73.84Z" transform="translate(-8.65 -19.99)"/><path class="cls-2" d="M72.13,23.7c-9.07,0-14.36,14.1-14.36,14.1,9.44-11.93,16.14-8.16,18.83-10.91C79,24.47,72.13,23.7,72.13,23.7Z" transform="translate(-8.65 -19.99)"/><path class="cls-2" d="M14.6,58.34c8.2,17.4,50.59,16.22,59.15,3.74-7.19,5.27-24.07,9.51-49.19.53C16.35,59.67,15.47,58.37,14.6,58.34Z" transform="translate(-8.65 -19.99)"/></svg>