<svg id="Layer_1" data-name="Layer 1" xmlns="http://www.w3.org/2000/svg" viewBox="0 0 79.78 55.89"><defs><style>.cls-1{fill:#84ca97;stroke:#80c08f;stroke-miterlimit:10;stroke-width:2px;}.cls-2{fill:#9fd3a7;}</style></defs><title>jb-green</title><path class="cls-1" d="M49.06,55.84c-12.68,2.8-26.4-.46-34.4-4.93-11-6.14-14.4-19.32-9-27.24,4.4-6.39,14.76-12.08,22.47-4.67,4.67,4.49,19.28,4.95,23-4.08,2.54-6.2,6-11.83,15.27-11.93C76,2.89,83.09,15.78,80.33,28.06,77.08,42.55,65.42,52.23,49.06,55.84Z" transform="translate(-2.15 -1.99)"/><path class="cls-2" d="M65.68,5.2c-9.54,1-13.59,15.67-13.59,15.67,8.65-12.94,16.11-10,18.64-13C73,5.18,65.68,5.2,65.68,5.2Z" transform="translate(-2.15 -1.99)"/><path class="cls-2" d="M8.1,40.34c8.2,17.4,50.59,16.22,59.15,3.74-7.19,5.27-24.07,9.51-49.19.53C9.85,41.67,9,40.37,8.1,40.34Z" transform="translate(-2.15 -1.99)"/></svg>