<svg id="Layer_1" data-name="Layer 1" xmlns="http://www.w3.org/2000/svg" viewBox="0 0 79.78 55.89"><defs><style>.cls-1{fill:#f3a8b8;stroke:#e59eb1;stroke-miterlimit:10;stroke-width:2px;}.cls-2{fill:#f7cad1;}</style></defs><title>jbean-pink</title><path class="cls-1" d="M55.56,73.84c-12.68,2.8-26.4-.46-34.4-4.93-11-6.14-14.4-19.32-9-27.24C16.59,35.28,27,29.59,34.66,37c4.67,4.49,19.28,5,23-4.08,2.54-6.2,6-11.83,15.27-11.93,9.61-.1,16.68,12.79,13.92,25.07C83.58,60.55,71.92,70.23,55.56,73.84Z" transform="translate(-8.65 -19.99)"/><path class="cls-2" d="M73.13,22.7c-9.07,0-14.36,14.1-14.36,14.1,9.44-11.93,16.14-8.16,18.83-10.91C80,23.47,73.13,22.7,73.13,22.7Z" transform="translate(-8.65 -19.99)"/><path class="cls-2" d="M14.53,60.23c8.73,17.15,51.07,14.65,59.24,1.92-7,5.49-23.77,10.24-49.15,2C16.32,61.51,15.4,60.23,14.53,60.23Z" transform="translate(-8.65 -19.99)"/></svg>