<svg id="Layer_1" data-name="Layer 1" xmlns="http://www.w3.org/2000/svg" viewBox="0 0 79.78 55.89"><defs><style>.cls-1{fill:#fbd433;stroke:#efcb34;stroke-miterlimit:10;stroke-width:2px;}.cls-2{fill:#f4e08e;}</style></defs><title>jb-yellow</title><path class="cls-1" d="M55.56,73.84c-12.68,2.8-26.4-.46-34.4-4.93-11-6.14-14.4-19.32-9-27.24C16.59,35.28,27,29.59,34.66,37c4.67,4.49,19.28,5,23-4.08,2.54-6.2,6-11.83,15.27-11.93,9.61-.1,16.68,12.79,13.92,25.07C83.58,60.55,71.92,70.23,55.56,73.84Z" transform="translate(-8.65 -19.99)"/><path class="cls-2" d="M72.18,23.2c-9.54,1.05-13.59,15.67-13.59,15.67,8.65-12.94,16.11-10,18.64-13C79.47,23.18,72.18,23.2,72.18,23.2Z" transform="translate(-8.65 -19.99)"/><path class="cls-2" d="M14.6,58.34c8.2,17.4,50.59,16.22,59.15,3.74-7.19,5.27-24.07,9.51-49.19.53C16.35,59.67,15.47,58.37,14.6,58.34Z" transform="translate(-8.65 -19.99)"/></svg>