<svg id="Layer_1" data-name="Layer 1" xmlns="http://www.w3.org/2000/svg" viewBox="0 0 37.13 84.41"><defs><style>.cls-1{fill:#d6d2be;stroke:#bfb79e;stroke-width:1.09px;}.cls-1,.cls-3,.cls-4,.cls-5,.cls-7{stroke-miterlimit:10;}.cls-2,.cls-6{fill:#fbf9ef;}.cls-2{opacity:0.66;}.cls-3{fill:none;stroke:#231f20;stroke-width:0.92px;}.cls-4{fill:#69c2c8;stroke:#64babc;stroke-width:0.94px;}.cls-5{fill:#ed4c64;stroke:#dc4b66;stroke-width:1.27px;}.cls-6{opacity:0.35;}.cls-7{fill:#84ca97;stroke:#7bba8a;stroke-width:0.85px;}.cls-8{fill:#7ebd8b;}.cls-9{fill:#db4965;opacity:0.81;}</style></defs><title>lollipop-heart</title><path class="cls-1" d="M50.93,93.43H48a.49.49,0,0,1-.5-.49L46.38,43.57h4l1.07,49.34A.51.51,0,0,1,50.93,93.43Z" transform="translate(-29.51 -9.55)"/><rect class="cls-2" x="47.63" y="46.17" width="0.9" height="46.76" transform="translate(-30.72 -8.7) rotate(-1)"/><path class="cls-3" d="M58.42,44.34" transform="translate(-29.51 -9.55)"/><path class="cls-4" d="M50.54,51.94" transform="translate(-29.51 -9.55)"/><path class="cls-4" d="M53.06,51.92" transform="translate(-29.51 -9.55)"/><path class="cls-5" d="M62.89,33.32c-2.82,5.73-7,10-11,11.76a3.67,3.67,0,0,1-.6.36c-5.49,2.79-13.62-2.69-18.17-12.21S29.32,13.7,34.79,10.92C38.61,9,43.7,11.05,48,15.69,52.36,11,57.57,9,61.42,11,66.91,13.84,67.56,23.85,62.89,33.32Z" transform="translate(-29.51 -9.55)"/><path class="cls-6" d="M36.83,12s-2.84.6-4.21,4.34c-1.15,3.17-.49,6.77-.32,8A19.2,19.2,0,0,1,34,17.41a12.06,12.06,0,0,1,4.86-5.53l-1.38-.08h0Z" transform="translate(-29.51 -9.55)"/><path class="cls-7" d="M45.55,48.51,57.4,54.27a.54.54,0,0,0,.75-.54,44.57,44.57,0,0,1-.8-5.22,44.68,44.68,0,0,1,.8-5.21.54.54,0,0,0-.75-.54Z" transform="translate(-29.51 -9.55)"/><path class="cls-7" d="M48.38,47.43l-9.62-4.67a.54.54,0,0,0-.75.54s.53,3.91.53,5.21S38,53.73,38,53.73a.54.54,0,0,0,.75.54l9.62-4.67A1.24,1.24,0,0,0,48.38,47.43Z" transform="translate(-29.51 -9.55)"/><path class="cls-8" d="M52.52,47.56a9.44,9.44,0,0,0-5,1.39,22.66,22.66,0,0,1,4.37.39c3.07.61.17-.9.17-.9S55.16,47.77,52.52,47.56Z" transform="translate(-29.51 -9.55)"/><path class="cls-8" d="M43.81,49.47a9.48,9.48,0,0,0,4.95-1.57,21.51,21.51,0,0,1-4.38-.24c-3.09-.5-.15.91-.15.91S41.17,49.35,43.81,49.47Z" transform="translate(-29.51 -9.55)"/><rect class="cls-7" x="16.52" y="36.78" width="4.52" height="4.37" rx="0.56"/><path class="cls-9" d="M52.05,42.64a16.31,16.31,0,0,0,7-5.94,12.3,12.3,0,0,0,1.77-8,20.57,20.57,0,0,1-3.64,7.47A29.26,29.26,0,0,1,49,43.57l2.07-.46h0Z" transform="translate(-29.51 -9.55)"/></svg>