<?xml version="1.0" encoding="utf-8"?>
<!-- Generator: Adobe Illustrator 24.0.0, SVG Export Plug-In . SVG Version: 6.00 Build 0)  -->
<svg version="1.1" id="Layer_1" xmlns="http://www.w3.org/2000/svg" xmlns:xlink="http://www.w3.org/1999/xlink" x="0px" y="0px"
	 viewBox="0 0 44.6 92.5" style="enable-background:new 0 0 44.6 92.5;" xml:space="preserve">
<style type="text/css">
	.st0{fill:#D6D2BE;stroke:#BFB79F;stroke-width:1.09;stroke-miterlimit:10;}
	.st1{fill:#F3A8B8;}
	.st2{opacity:0.66;fill:#FBF9EF;enable-background:new    ;}
	.st3{fill:#FBF9EF;}
	.st4{fill:none;stroke:#231F20;stroke-width:0.92;stroke-miterlimit:10;}
	.st5{fill:none;stroke:#E0A2B2;stroke-miterlimit:10;}
	.st6{fill:#ED4C64;stroke:#DD4C67;stroke-width:0.76;stroke-miterlimit:10;}
	.st7{fill:#ED4C64;stroke:#DD4C67;stroke-width:0.75;stroke-miterlimit:10;}
	.st8{fill:#D34862;}
	.st9{fill:#FFFFFF;}
</style>
<title>lollipop-pink</title>
<path class="st0" d="M24.7,92h-2.9c-0.3,0-0.5-0.2-0.5-0.5l0,0l-1.1-49.4h4l1.1,49.3C25.3,91.8,25,92,24.7,92L24.7,92z"/>
<circle class="st1" cx="22.3" cy="22.3" r="21.8"/>
<rect x="21.4" y="44.7" transform="matrix(0.9998 -1.745324e-02 1.745324e-02 0.9998 -1.1851 0.3961)" class="st2" width="1.4" height="46.8"/>
<path class="st3" d="M31.9,41.1c-10.8,4.5-30.8-8.6-26-23.2C8.7,9.2,15.9,6,24.4,9c5.6,2,10.4,9.2,8.4,15.3
	c-1.4,4.3-8.4,9.5-14.7,4.4c-6.5-5.3-1.2-15.3,4.3-12.2c1.6,0.8,2.6,2.6,2.4,4.4c-0.9,4-5.3,1.2-2.7-0.9l0.3,0.1
	c-2.9-1.8-4.1,3.1-1.4,5c3.4,2.3,8.9-0.8,8.2-5.4s-4.1-6.7-7.3-7.8C16.6,10.1,9.5,14.2,9.4,21c0.1,6,3.6,11.5,9.1,14
	c10,4.8,20.2-3.7,20.3-12.7C39,11.7,32.3,5.4,24.4,2.9C14.4-0.1,3.5,6.8,1.2,16c-2.9,11.5,3.1,24,15.6,27.6
	C22.8,45.4,32.4,42.2,31.9,41.1z"/>
<path class="st4" d="M32.2,42.9"/>
<circle class="st5" cx="22.3" cy="22.3" r="21.8"/>
<path class="st6" d="M23.6,47.3l5.2,8.9c0.1,0.1,0,0.3-0.1,0.3s-0.2,0-0.2,0L23.1,54l-0.6-7.3L23.6,47.3z"/>
<path class="st7" d="M21,47.4l-5.2,10.3c-0.1,0.1,0,0.3,0.1,0.3s0.2,0,0.2,0l5.3-2.5l0.7-8.8L21,47.4z"/>
<path class="st7" d="M20,45.9l11,4.9c0.2,0.1,0.5,0,0.7-0.2c0-0.1,0-0.1,0-0.2c-0.3-1.5-0.6-2.9-0.7-4.4c0.2-1.5,0.4-3,0.7-4.4
	c0-0.3-0.2-0.5-0.5-0.5c-0.1,0-0.1,0-0.2,0L20,45.9z"/>
<path class="st7" d="M22.6,45l-8.9-4c-0.3-0.1-0.5,0-0.7,0.3c0,0.1,0,0.1,0,0.2c0,0,0.5,3.3,0.5,4.4S13,50.3,13,50.3
	c0,0.3,0.2,0.5,0.5,0.5c0.1,0,0.1,0,0.2,0l8.9-3.9c0.5-0.2,0.7-0.8,0.5-1.3C23,45.3,22.9,45.1,22.6,45z"/>
<path class="st8" d="M26.5,45.1c-1.6,0-3.2,0.4-4.7,1.2c1.4,0,2.7,0.1,4.1,0.3c2.9,0.5,0.2-0.8,0.2-0.8S28.9,45.3,26.5,45.1z"/>
<path class="st8" d="M18.4,46.7c1.6,0,3.2-0.5,4.6-1.3c-1.4,0-2.7,0-4.1-0.2C16,44.8,18.8,46,18.8,46S15.9,46.6,18.4,46.7z"/>
<path class="st7" d="M21,44h3.2c0.3,0,0.5,0.2,0.5,0.5v2.7c0,0.3-0.2,0.5-0.5,0.5H21c-0.3,0-0.5-0.2-0.5-0.5v-2.7
	C20.5,44.3,20.7,44,21,44z"/>
<path class="st9" d="M19.7,1.9c-3.3-0.4-6.6,0.5-9.4,2.3c-2.7,2-4.7,4.8-5.8,8C6.4,9.6,8.9,7.5,11.7,6c3.4-1.9,7.2-3,11.2-3.2
	L20.8,2l0,0L19.7,1.9z"/>
</svg>
