<svg id="Layer_1" data-name="Layer 1" xmlns="http://www.w3.org/2000/svg" viewBox="0 0 44.64 92.55"><defs><style>.cls-1{fill:#d6d2be;stroke:#bfb79f;stroke-width:1.09px;}.cls-1,.cls-5,.cls-7,.cls-8,.cls-9{stroke-miterlimit:10;}.cls-2{fill:#fbd433;}.cls-3,.cls-4{fill:#fbf9ef;}.cls-3{opacity:0.66;}.cls-5,.cls-7{fill:none;}.cls-5{stroke:#231f20;stroke-width:0.92px;}.cls-6{fill:#e9c52e;opacity:0.75;}.cls-7{stroke:#e9c734;}.cls-8,.cls-9{fill:#69c2c8;stroke:#64babc;}.cls-8{stroke-width:0.76px;}.cls-9{stroke-width:0.75px;}.cls-10{fill:#61b5b7;}.cls-11{fill:#fff;opacity:0.76;}</style></defs><title>lollipop-yellow</title><path class="cls-1" d="M50.93,93.43H48a.49.49,0,0,1-.5-.49L46.38,43.57h4l1.07,49.34A.51.51,0,0,1,50.93,93.43Z" transform="translate(-26.23 -1.42)"/><circle class="cls-2" cx="22.32" cy="22.32" r="21.82"/><rect class="cls-3" x="47.63" y="46.17" width="1.39" height="46.76" transform="translate(-27.44 -0.56) rotate(-1)"/><path class="cls-4" d="M58.1,42.55c-10.84,4.46-30.77-8.62-26-23.2,2.84-8.71,10-11.93,18.52-8.93C56.25,12.39,61,19.57,59,25.7c-1.36,4.3-8.41,9.46-14.74,4.35-6.53-5.25-1.18-15.34,4.35-12.21A4.47,4.47,0,0,1,51,22.22c-.94,4-5.26,1.23-2.69-.85l.28.15c-2.89-1.79-4.1,3.14-1.42,5,3.39,2.31,8.94-.8,8.17-5.41s-4.06-6.74-7.3-7.81c-5.2-1.72-12.34,2.33-12.46,9.16a15.64,15.64,0,0,0,9.09,14c10,4.85,20.18-3.72,20.31-12.74.16-10.64-6.46-16.9-14.42-19.35-9.94-3.06-20.87,3.9-23.17,13.08-2.87,11.47,3.13,24,15.63,27.62C49,46.79,58.6,43.66,58.1,42.55Z" transform="translate(-26.23 -1.42)"/><path class="cls-5" d="M58.42,44.34" transform="translate(-26.23 -1.42)"/><path class="cls-6" d="M57.4,42a20,20,0,0,0,8.85-7.63A16.3,16.3,0,0,0,68.35,24a26,26,0,0,1-4.49,9.71,35.92,35.92,0,0,1-10.3,9.46l2.63-.56h0Z" transform="translate(-26.23 -1.42)"/><circle class="cls-7" cx="22.32" cy="22.32" r="21.82"/><path class="cls-8" d="M49.79,48.71,55,57.56a.25.25,0,0,1-.32.35l-5.4-2.46-.62-7.37Z" transform="translate(-26.23 -1.42)"/><path class="cls-9" d="M47.2,48.86,42,59.15a.25.25,0,0,0,.33.34L47.67,57l.65-8.78Z" transform="translate(-26.23 -1.42)"/><path class="cls-9" d="M46.2,47.31l11,4.86a.49.49,0,0,0,.7-.45,34.76,34.76,0,0,1-.74-4.41,34.86,34.86,0,0,1,.74-4.4.5.5,0,0,0-.7-.46Z" transform="translate(-26.23 -1.42)"/><path class="cls-9" d="M48.83,46.4l-8.94-3.95a.5.5,0,0,0-.7.46s.49,3.3.49,4.4-.49,4.41-.49,4.41a.49.49,0,0,0,.7.45l8.94-3.94A1,1,0,0,0,48.83,46.4Z" transform="translate(-26.23 -1.42)"/><path class="cls-10" d="M52.68,46.51A9.39,9.39,0,0,0,48,47.69,22.53,22.53,0,0,1,52.1,48c2.86.51.16-.76.16-.76S55.13,46.68,52.68,46.51Z" transform="translate(-26.23 -1.42)"/><path class="cls-10" d="M44.58,48.12a9.46,9.46,0,0,0,4.6-1.32,23.66,23.66,0,0,1-4.07-.21c-2.87-.42-.14.77-.14.77S42.12,48,44.58,48.12Z" transform="translate(-26.23 -1.42)"/><rect class="cls-9" x="20.42" y="44.05" width="4.2" height="3.69" rx="0.5"/><path class="cls-11" d="M51.57,3.71a25.15,25.15,0,0,0-13,2.11,16.5,16.5,0,0,0-7.87,7.9,29.16,29.16,0,0,1,9.85-6.11A45.15,45.15,0,0,1,56,4.66L53.1,3.81h0Z" transform="translate(-26.23 -1.42)"/></svg>