<svg id="Layer_1" data-name="Layer 1" xmlns="http://www.w3.org/2000/svg" viewBox="0 0 44.15 88.88"><defs><style>.cls-1{fill:#d6d2be;stroke:#bfb79f;stroke-width:1.09px;}.cls-1,.cls-3,.cls-4,.cls-5,.cls-6,.cls-8{stroke-miterlimit:10;}.cls-2,.cls-5{fill:#fbf9ef;}.cls-3{fill:#69c2c8;stroke:#64babc;stroke-width:0.94px;}.cls-4,.cls-8{fill:#84ca97;}.cls-4{stroke:#7ebd8b;}.cls-4,.cls-5,.cls-8{stroke-width:0.96px;}.cls-5,.cls-6{stroke:#84ca97;}.cls-5{opacity:0.58;}.cls-6{fill:none;stroke-width:0.64px;}.cls-7{fill:#7bba8a;}.cls-8{stroke:#7bba8a;}</style></defs><title>lollipop-green</title><path class="cls-1" d="M51.21,93.43h-3a.49.49,0,0,1-.5-.49L46.66,43.57h4l1.07,49.34A.51.51,0,0,1,51.21,93.43Z" transform="translate(-25.74 -5.08)"/><rect class="cls-2" x="47.91" y="46.17" width="1.39" height="46.76" transform="translate(-26.95 -4.23) rotate(-1)"/><path class="cls-3" d="M50.82,51.94" transform="translate(-25.74 -5.08)"/><path class="cls-3" d="M53.34,51.92" transform="translate(-25.74 -5.08)"/><circle class="cls-4" cx="22.08" cy="20.65" r="20.18"/><path class="cls-5" d="M50.11,6.48a19,19,0,0,0-11,2.1,15.48,15.48,0,0,0-6.68,7.61,25.1,25.1,0,0,1,8.34-5.91,34.46,34.46,0,0,1,13-2.94L51.4,6.56h0Z" transform="translate(-25.74 -5.08)"/><path class="cls-6" d="M56.6,42.59" transform="translate(-25.74 -5.08)"/><path class="cls-7" d="M48.89,42.42s5.56-.28,9.64-2.84A7.53,7.53,0,0,0,62.39,34a16.25,16.25,0,0,1-6,4.79A40.3,40.3,0,0,1,45.1,42.42l2.55.13h0Z" transform="translate(-25.74 -5.08)"/><path class="cls-8" d="M68.49,29.93s-12.42,2.76-19.62,2.76c-6.37,0-21.71-2.76-21.71-2.76a1.1,1.1,0,0,1-.94-1.2v-6a1.09,1.09,0,0,1,.94-1.19,80.68,80.68,0,0,0,20.66,3.2,71.1,71.1,0,0,0,20.67-3.2,1.09,1.09,0,0,1,.93,1.19v6A1.1,1.1,0,0,1,68.49,29.93Z" transform="translate(-25.74 -5.08)"/><path class="cls-7" d="M66.84,30.49A3,3,0,0,0,69.66,28c.46-2.12-.68-4.86-1-5.77a10.26,10.26,0,0,1-.28,4.8,5.12,5.12,0,0,1-3.17,3.27l1.17.28h0Z" transform="translate(-25.74 -5.08)"/></svg>