<svg id="Layer_1" data-name="Layer 1" xmlns="http://www.w3.org/2000/svg" viewBox="0 0 44.64 92.33"><defs><style>.cls-1{fill:#d6d2be;stroke:#bfb79f;stroke-width:1.09px;}.cls-1,.cls-3,.cls-4,.cls-7{stroke-miterlimit:10;}.cls-2{fill:#fbf9ef;}.cls-3,.cls-7{fill:#69c2c8;}.cls-3{stroke:#61b5b7;}.cls-4{fill:none;stroke:#231f20;stroke-width:0.92px;}.cls-5{fill:#61b5b7;}.cls-6{fill:#8fd4d6;}.cls-7{stroke:#64babc;stroke-width:0.94px;}</style></defs><title>lollipop-circle</title><path class="cls-1" d="M50.93,93.43H48a.49.49,0,0,1-.5-.49L46.38,43.57h4l1.07,49.34A.51.51,0,0,1,50.93,93.43Z" transform="translate(-26.32 -1.64)"/><rect class="cls-2" x="47.63" y="46.17" width="1.39" height="46.76" transform="translate(-27.53 -0.79) rotate(-1)"/><path class="cls-3" d="M52.53,45.42l3.76,7.52c.22.33-1,.7-1.61.7-.58-.62-1.08-2.35-3.58-.39-1.1.86-1.64-1.31-2.19-1.31s-1.35,1.41-2.53,1.49c-.71,0-1.42-1.36-2-1.31a2.42,2.42,0,0,0-1.68,1.12c-1,0-1.85,0-1.62-.37l4-7.41A21.81,21.81,0,0,1,26.82,24c0-12,7.11-21.81,21.82-21.81a21.81,21.81,0,0,1,3.89,43.28Z" transform="translate(-26.32 -1.64)"/><path class="cls-4" d="M58.42,44.34" transform="translate(-26.32 -1.64)"/><path class="cls-5" d="M57.4,42a20,20,0,0,0,8.85-7.63A16.3,16.3,0,0,0,68.35,24a26,26,0,0,1-4.49,9.71,35.92,35.92,0,0,1-10.3,9.46l2.63-.56h0Z" transform="translate(-26.32 -1.64)"/><path class="cls-5" d="M51.78,48.74A8.93,8.93,0,0,0,50,45.12a20.11,20.11,0,0,1,.47,3.23c.11,2.28.62.09.62.09S52.08,50.68,51.78,48.74Z" transform="translate(-26.32 -1.64)"/><path class="cls-5" d="M46.11,49.32a9.45,9.45,0,0,1,2.32-4.2,23.13,23.13,0,0,0-.72,4c-.23,2.9-.78,0-.78,0S45.65,51.74,46.11,49.32Z" transform="translate(-26.32 -1.64)"/><path class="cls-6" d="M49.18,3.56a20,20,0,0,0-11.47,2.2,16.25,16.25,0,0,0-7,8,26.3,26.3,0,0,1,8.73-6.18A36,36,0,0,1,53.08,4.47l-2.55-.82h0Z" transform="translate(-26.32 -1.64)"/><path class="cls-7" d="M50.54,51.94" transform="translate(-26.32 -1.64)"/><path class="cls-7" d="M53.06,51.92" transform="translate(-26.32 -1.64)"/></svg>