<svg id="Layer_1" data-name="Layer 1" xmlns="http://www.w3.org/2000/svg" viewBox="0 0 181.47 112.63"><defs><style>.cls-1,.cls-3{fill:#84ca97;}.cls-1{stroke:#7ebd8b;stroke-width:2.21px;}.cls-1,.cls-5{stroke-miterlimit:10;}.cls-2{fill:#7dbb8b;}.cls-4,.cls-6{fill:#fbf9ef;}.cls-5{fill:none;stroke:#7bba8a;stroke-width:2px;}.cls-6{opacity:0.31;}</style></defs><title>peppermint-green</title><path class="cls-1" d="M148.74,117.63c3.28,3.13,26.58,18.2,30.69,20.74.8.49,1.68-.45,1.39-1.49l-5.59-20.38,13.22-7.22a1.36,1.36,0,0,0,.25-2L178.34,96.38l8.44-19.29c.41-.94-.29-2-1.14-1.76l-35.95,15Z" transform="translate(-8.68 -51.16)"/><path class="cls-1" d="M50.09,89.78C46.82,86.64,23.52,71.58,19.4,69c-.8-.49-1.67.46-1.39,1.49l5.6,20.38L10.38,98.12a1.37,1.37,0,0,0-.24,2L20.5,111l-8.44,19.28c-.41.94.29,2,1.13,1.77l36-15.06Z" transform="translate(-8.68 -51.16)"/><ellipse class="cls-2" cx="43.78" cy="100.51" rx="1.36" ry="10.47" transform="translate(-74.5 46.77) rotate(-65.11)"/><ellipse class="cls-2" cx="39" cy="108.15" rx="10.47" ry="1.36" transform="translate(-25.05 -43.77) rotate(-8.96)"/><ellipse class="cls-2" cx="155.71" cy="108.98" rx="1.36" ry="10.47" transform="translate(-17.36 153.2) rotate(-65.11)"/><ellipse class="cls-2" cx="158.09" cy="100.51" rx="10.47" ry="1.36" transform="translate(-22.41 -25.31) rotate(-8.96)"/><path class="cls-3" d="M153.78,107.48A55.32,55.32,0,1,1,98.47,52.16,55.31,55.31,0,0,1,153.78,107.48Z" transform="translate(-8.68 -51.16)"/><path class="cls-4" d="M97.7,106.81a60.12,60.12,0,0,0,3.85-28.07C99.47,61.38,89,52.27,89.84,53.13c0,0,9.21-1.69,16.69-.61a57.73,57.73,0,0,1,14.15,4.22,52.48,52.48,0,0,1-4.34,29,51,51,0,0,1-18.68,21" transform="translate(-8.68 -51.16)"/><path class="cls-4" d="M97.47,106.81a57.41,57.41,0,0,0-23-15.73c-16.16-5.61-28.71.14-27.58-.28,0,0,2.5-9.24,6.69-15.69a59.91,59.91,0,0,1,9.85-11.24A49.82,49.82,0,0,1,87,80.44a52.38,52.38,0,0,1,10.37,26.37" transform="translate(-8.68 -51.16)"/><path class="cls-4" d="M97,107.3a57.74,57.74,0,0,0-25.81,11c-13.67,10.7-16,24.57-15.69,23.38,0,0-6.19-7.22-9.14-14.34a60.93,60.93,0,0,1-3.74-14.59,50.55,50.55,0,0,1,26.83-11A50.33,50.33,0,0,1,97,107.38" transform="translate(-8.68 -51.16)"/><path class="cls-4" d="M97.14,107.51a59.18,59.18,0,0,0-1.46,28.22c3.59,17.06,15,25.15,14,24.37,0,0-9.13,2.53-16.77,2.14a59.05,59.05,0,0,1-14.64-2.9,50.19,50.19,0,0,1,18.91-51.75" transform="translate(-8.68 -51.16)"/><path class="cls-4" d="M98.47,107.89a59.26,59.26,0,0,0,22.62,17.18c16.36,6.78,29.91,2.22,28.7,2.54,0,0-3.38,8.78-8.29,14.7a60.82,60.82,0,0,1-11.19,10.12,52.15,52.15,0,0,1-23.16-18.05,48.59,48.59,0,0,1-8.58-26.48" transform="translate(-8.68 -51.16)"/><path class="cls-4" d="M98.59,107.33s14.26-2.36,26-12.07c13.48-11.16,15.07-24.83,14.85-23.65,0,0,6.79,6.73,10.23,13.52a57.16,57.16,0,0,1,4.68,14.05,53.18,53.18,0,0,1-27,12.14,54.54,54.54,0,0,1-28.66-4.08" transform="translate(-8.68 -51.16)"/><path class="cls-5" d="M153.91,107.48A55.32,55.32,0,1,1,98.59,52.16,55.31,55.31,0,0,1,153.91,107.48Z" transform="translate(-8.68 -51.16)"/><path class="cls-6" d="M142.34,105.49c0,21.58-18.3,39.08-40.87,39.08a42.32,42.32,0,0,1-6.31-.46c21.11-.36,38.1-16.83,38.1-37.11,0-20.49-17.38-37.1-38.82-37.1a39.82,39.82,0,0,0-16.06,3.33,42.06,42.06,0,0,1,23.09-6.83C124,66.4,142.34,83.9,142.34,105.49Z" transform="translate(-8.68 -51.16)"/></svg>