<svg id="Layer_1" data-name="Layer 1" xmlns="http://www.w3.org/2000/svg" viewBox="0 0 210.63 54.94"><defs><style>.cls-1,.cls-4{fill:#fbd433;}.cls-1,.cls-5{stroke:#e9c52a;stroke-miterlimit:10;}.cls-1{stroke-width:1.94px;}.cls-2{fill:#e9c52e;}.cls-3{fill:#69c2c8;}.cls-5{fill:none;stroke-width:2px;}.cls-6{fill:#fbf9ef;opacity:0.27;}</style></defs><title>tootsie.-yellowsvg</title><path class="cls-1" d="M94.18,28c-3.41-2.44-27.33-13.76-31.56-15.66a1,1,0,0,0-1.32,1.31l6.48,16.67-12.89,6.7a1,1,0,0,0-.16,1.72l10.82,8.49L58,63.76a1,1,0,0,0,1.21,1.41L94.43,50.75Z" transform="translate(-53.37 -11.25)"/><ellipse class="cls-2" cx="88.28" cy="36.34" rx="1.23" ry="10.27" transform="translate(-32.19 93) rotate(-67.72)"/><ellipse class="cls-2" cx="83.49" cy="43.11" rx="10.44" ry="1.21" transform="translate(-58.52 0.68) rotate(-7.93)"/><rect class="cls-3" x="38.44" y="4.92" width="134.62" height="45.02" rx="11.96"/><path class="cls-1" d="M223.19,28c3.42-2.44,27.34-13.75,31.56-15.65a1,1,0,0,1,1.32,1.31L249.6,30.28,262.49,37a1,1,0,0,1,.15,1.71l-10.82,8.5,7.59,16.49a1,1,0,0,1-1.21,1.41L223,50.69Z" transform="translate(-53.37 -11.25)"/><ellipse class="cls-2" cx="229.1" cy="36.27" rx="10.27" ry="1.23" transform="translate(-50.02 78.32) rotate(-22.28)"/><ellipse class="cls-2" cx="233.88" cy="43.05" rx="1.21" ry="10.44" transform="translate(105.62 257.51) rotate(-82.07)"/><path class="cls-4" d="M214.43,16.17H183.21l3.07,3.43,8.23-1.05-4.16,7.17,3.55,7.5-8.11-1.75-6,5.7-.85-8.26-7.27-4,7.58-3.35,1-5.41H103.81a12,12,0,0,0-12,12v21a11.89,11.89,0,0,0,.76,4.15L94,54.92l9.07-1.17-3.79,6.54a11.87,11.87,0,0,0,4.55.9h46.42l-.54-5.28-7.28-4L150,48.57l1.54-8.15,5.53,6.18,8.23-1.06-4.16,7.18,3.55,7.49-8.11-1.74-2.89,2.72h60.75a12,12,0,0,0,9.21-4.33L216,55.21l-6,5.69-.84-8.25-7.28-4,7.58-3.35L211,37.17l5.54,6.17,8.22-1.06-4.16,7.18,3.34,7.07a12,12,0,0,0,2.54-7.34v-21A12,12,0,0,0,214.43,16.17Zm-83.23,22-8.11-1.74-6,5.69-.84-8.25-7.28-4,7.58-3.36,1.54-8.15,5.53,6.18,8.23-1.06-4.16,7.17Z" transform="translate(-53.37 -11.25)"/><rect class="cls-5" x="38.44" y="4.92" width="134.62" height="45.02" rx="11.96"/><path class="cls-6" d="M179.6,57.93s24.62,2.16,36.39-2.72c9.94-4.12,5.1-11.25,6.36-13.29,0-.07-.35,7.22-12.21,11.13-15.29,5-39,3.56-39,3.56l5.57,1.22h0Z" transform="translate(-53.37 -11.25)"/><path class="cls-6" d="M138.94,19.61s-24.49-3.27-36.47,1.06c-10.12,3.67-5.61,11-7,13-.05.07.68-7.19,12.71-10.56,15.5-4.34,39.13-1.79,39.13-1.79l-5.51-1.46h0Z" transform="translate(-53.37 -11.25)"/></svg>