<?xml version="1.0" encoding="utf-8"?>
<!-- Generator: Adobe Illustrator 24.0.0, SVG Export Plug-In . SVG Version: 6.00 Build 0)  -->
<svg version="1.1" id="Layer_1" xmlns="http://www.w3.org/2000/svg" xmlns:xlink="http://www.w3.org/1999/xlink" x="0px" y="0px"
	 viewBox="0 0 146.42 145.32" style="enable-background:new 0 0 146.42 145.32;" xml:space="preserve">
<style type="text/css">
	.st0{fill:#69C2C8;stroke:#5FBDBF;stroke-width:2.89;stroke-miterlimit:10;}
	.st1{fill:#FBF9EF;}
	.st2{fill:#A6D7DB;}
	.st3{fill:#61BEBF;}
</style>
<title>gumdrop-blue</title>
<path class="st0" d="M144.97,122.79c0,0.33-0.03,0.67-0.08,1c-1.83,11.16-33.21,20-71.68,20s-69.85-8.89-71.68-20
	c-0.05-0.33-0.08-0.67-0.08-1l6-56.65c5.87-35.23,24.88-64.7,64.38-64.7s57.58,25,66.08,65.9L144.97,122.79z"/>
<ellipse class="st1" cx="77.78" cy="35.21" rx="3.79" ry="3.82"/>
<ellipse class="st1" cx="66.34" cy="27.28" rx="3.49" ry="3.52"/>
<ellipse class="st1" cx="77" cy="16.5" rx="4.08" ry="4.12"/>
<ellipse class="st1" cx="88.04" cy="26.53" rx="4.08" ry="4.12"/>
<ellipse class="st1" cx="91.53" cy="12.99" rx="3.49" ry="3.52"/>
<ellipse class="st1" cx="103.19" cy="24.75" rx="4.08" ry="4.12"/>
<path class="st2" d="M21.28,45C24.37,10.28,69.21,0.5,84.57,6.97c0,0-20.9,2.28-36.39,11.36C31.53,28.1,21.28,45,21.28,45z"/>
<path class="st3" d="M13.36,74.03l-5.85,49.19c0,0,8,9.62,43.34,14.11c53.07,6.72,75.56-11.2,75.56-11.2S60.02,146.2,25.04,113.97
	C15.15,104.85,13.36,74.03,13.36,74.03z"/>
<ellipse class="st1" cx="57.06" cy="20.13" rx="3.59" ry="3.63"/>
<ellipse class="st1" cx="47.77" cy="35.21" rx="4.08" ry="4.12"/>
</svg>
