<?xml version="1.0" encoding="utf-8"?>
<!-- Generator: Adobe Illustrator 24.0.0, SVG Export Plug-In . SVG Version: 6.00 Build 0)  -->
<svg version="1.1" id="Layer_1" xmlns="http://www.w3.org/2000/svg" xmlns:xlink="http://www.w3.org/1999/xlink" x="0px" y="0px"
	 viewBox="0 0 734.49 145.29" style="enable-background:new 0 0 734.49 145.29;" xml:space="preserve">
<style type="text/css">
	.st0{fill:#69C2C8;stroke:#5FBDBF;stroke-width:2.89;stroke-miterlimit:10;}
	.st1{fill:#FBF9EF;}
	.st2{fill:#A6D7DB;}
	.st3{fill:#61BEBF;}
	.st4{fill:#84CA97;stroke:#80BC8E;stroke-width:2.89;stroke-miterlimit:10;}
	.st5{fill:#B5DDBD;}
	.st6{fill:#84BF92;stroke:#84CA97;stroke-miterlimit:10;}
	.st7{fill:#F3A8B8;stroke:#E897AC;stroke-width:2.89;stroke-miterlimit:10;}
	.st8{fill:#F7CAD1;}
	.st9{fill:#E897AC;}
	.st10{fill:#ED4C64;stroke:#D74C6D;stroke-width:2.89;stroke-miterlimit:10;}
	.st11{fill:#F39496;}
	.st12{fill:#DC4B66;}
	.st13{fill:#FBD433;stroke:#E9C83A;stroke-width:2.89;stroke-miterlimit:10;}
	.st14{fill:#FDE38C;}
	.st15{fill:#EFCB36;}
</style>
<g>
	<path class="st0" d="M586.04,122.85c0,0.3,0,0.7-0.1,1c-1.8,11.2-33.2,20-71.7,20s-69.8-8.9-71.7-20c0-0.3-0.1-0.7-0.1-1l6-56.7
		c5.9-35.2,24.9-64.7,64.4-64.7s57.6,25,66.1,65.9L586.04,122.85z"/>
	<ellipse class="st1" cx="518.85" cy="35.25" rx="3.8" ry="3.8"/>
	<ellipse class="st1" cx="507.35" cy="27.34" rx="3.5" ry="3.5"/>
	<ellipse class="st1" cx="518.04" cy="16.55" rx="4.1" ry="4.1"/>
	<ellipse class="st1" cx="529.04" cy="26.55" rx="4.1" ry="4.1"/>
	<ellipse class="st1" cx="532.54" cy="13.05" rx="3.5" ry="3.5"/>
	<ellipse class="st1" cx="544.24" cy="24.84" rx="4.1" ry="4.1"/>
	<path class="st2" d="M462.35,45.04c3.1-34.7,47.9-44.5,63.3-38c0,0-20.9,2.3-36.4,11.4C472.55,28.15,462.35,45.04,462.35,45.04z"/>
	<path class="st3" d="M454.45,74.04l-5.8,49.2c0,0,8,9.6,43.3,14.1c53.1,6.7,75.6-11.2,75.6-11.2s-66.5,20.1-101.5-12.1
		C456.24,104.85,454.45,74.04,454.45,74.04z"/>
	<ellipse class="st1" cx="498.14" cy="20.15" rx="3.6" ry="3.6"/>
	<ellipse class="st1" cx="488.85" cy="35.24" rx="4.1" ry="4.1"/>
</g>
<g>
	<path class="st4" d="M439.05,122.85c0,0.3,0,0.7-0.1,1c-1.8,11.2-33.2,20-71.7,20s-69.8-8.9-71.7-20c0-0.3-0.1-0.7-0.1-1l6-56.7
		c5.9-35.2,24.9-64.7,64.4-64.7s57.6,25,66.1,65.9L439.05,122.85z"/>
	<ellipse class="st1" cx="371.85" cy="35.25" rx="3.8" ry="3.8"/>
	<ellipse class="st1" cx="360.35" cy="27.34" rx="3.5" ry="3.5"/>
	<ellipse class="st1" cx="371.05" cy="16.55" rx="4.1" ry="4.1"/>
	<ellipse class="st1" cx="382.05" cy="26.55" rx="4.1" ry="4.1"/>
	<ellipse class="st1" cx="385.55" cy="13.05" rx="3.5" ry="3.5"/>
	<ellipse class="st1" cx="397.24" cy="24.84" rx="4.1" ry="4.1"/>
	<path class="st5" d="M314.24,49.35c3.7-36.8,49-47.9,64.3-41.3c0,0-21.1,2.8-36.8,12.7C324.85,31.34,314.24,49.35,314.24,49.35z"/>
	<path class="st6" d="M307.45,74.04l-5.8,49.2c0,0,8,9.6,43.3,14.1c53.1,6.7,75.6-11.2,75.6-11.2s-66.5,20.1-101.5-12.1
		C309.24,104.85,307.45,74.04,307.45,74.04z"/>
	<ellipse class="st1" cx="351.14" cy="20.15" rx="3.6" ry="3.6"/>
	<ellipse class="st1" cx="341.85" cy="35.24" rx="4.1" ry="4.1"/>
</g>
<g>
	<path class="st7" d="M733.04,122.85c0,0.3,0,0.7-0.1,1c-1.8,11.2-33.2,20-71.7,20s-69.8-8.9-71.7-20c0-0.3-0.1-0.7-0.1-1l6-56.7
		c5.9-35.2,24.9-64.7,64.4-64.7c39.5,0,57.6,25,66.1,65.9L733.04,122.85z"/>
	<ellipse class="st1" cx="665.85" cy="35.25" rx="3.8" ry="3.8"/>
	<ellipse class="st1" cx="654.35" cy="27.34" rx="3.5" ry="3.5"/>
	<ellipse class="st1" cx="665.04" cy="16.55" rx="4.1" ry="4.1"/>
	<ellipse class="st1" cx="676.04" cy="26.55" rx="4.1" ry="4.1"/>
	<ellipse class="st1" cx="679.54" cy="13.05" rx="3.5" ry="3.5"/>
	<ellipse class="st1" cx="691.24" cy="24.84" rx="4.1" ry="4.1"/>
	<path class="st8" d="M609.34,45.04c3.1-34.7,47.9-44.5,63.3-38c0,0-20.9,2.3-36.4,11.4C619.54,28.15,609.34,45.04,609.34,45.04z"/>
	<path class="st9" d="M601.45,74.04l-5.8,49.2c0,0,8,9.6,43.3,14.1c53.1,6.7,75.6-11.2,75.6-11.2s-66.5,20.1-101.5-12.1
		C603.24,104.85,601.45,74.04,601.45,74.04z"/>
	<ellipse class="st1" cx="645.15" cy="20.15" rx="3.6" ry="3.6"/>
	<ellipse class="st1" cx="635.84" cy="35.24" rx="4.1" ry="4.1"/>
</g>
<g>
	<path class="st10" d="M145.04,122.85c0,0.3,0,0.7-0.1,1c-1.8,11.2-33.2,20-71.7,20s-69.8-8.9-71.7-20c0-0.3-0.1-0.7-0.1-1l6-56.7
		c5.9-35.2,24.9-64.7,64.4-64.7s57.6,25,66.1,65.9L145.04,122.85z"/>
	<ellipse class="st1" cx="77.85" cy="35.25" rx="3.8" ry="3.8"/>
	<ellipse class="st1" cx="66.35" cy="27.34" rx="3.5" ry="3.5"/>
	<ellipse class="st1" cx="77.04" cy="16.55" rx="4.1" ry="4.1"/>
	<ellipse class="st1" cx="88.04" cy="26.55" rx="4.1" ry="4.1"/>
	<ellipse class="st1" cx="91.54" cy="13.05" rx="3.5" ry="3.5"/>
	<ellipse class="st1" cx="103.24" cy="24.84" rx="4.1" ry="4.1"/>
	<path class="st11" d="M21.34,45.04c3.1-34.7,47.9-44.5,63.3-38c0,0-20.9,2.3-36.4,11.4C31.55,28.15,21.34,45.04,21.34,45.04z"/>
	<path class="st12" d="M13.44,74.04l-5.8,49.2c0,0,8,9.6,43.3,14.1c53.1,6.7,75.6-11.2,75.6-11.2s-66.5,20.1-101.5-12.1
		C15.24,104.85,13.44,74.04,13.44,74.04z"/>
	<ellipse class="st1" cx="57.14" cy="20.15" rx="3.6" ry="3.6"/>
	<ellipse class="st1" cx="47.85" cy="35.24" rx="4.1" ry="4.1"/>
</g>
<g>
	<path class="st13" d="M292.05,122.85c0,0.3,0,0.7-0.1,1c-1.8,11.2-33.2,20-71.7,20s-69.8-8.9-71.7-20c0-0.3-0.1-0.7-0.1-1l6-56.7
		c5.9-35.2,24.9-64.7,64.4-64.7s57.6,25,66.1,65.9L292.05,122.85z"/>
	<ellipse class="st1" cx="224.85" cy="35.25" rx="3.8" ry="3.8"/>
	<ellipse class="st1" cx="213.35" cy="27.34" rx="3.5" ry="3.5"/>
	<ellipse class="st1" cx="224.04" cy="16.55" rx="4.1" ry="4.1"/>
	<ellipse class="st1" cx="235.04" cy="26.55" rx="4.1" ry="4.1"/>
	<ellipse class="st1" cx="238.54" cy="13.05" rx="3.5" ry="3.5"/>
	<ellipse class="st1" cx="250.24" cy="24.84" rx="4.1" ry="4.1"/>
	<path class="st14" d="M168.35,45.04c3.1-34.7,47.9-44.5,63.3-38c0,0-20.9,2.3-36.4,11.4C178.54,28.15,168.35,45.04,168.35,45.04z"
		/>
	<path class="st15" d="M160.45,74.04l-5.8,49.2c0,0,8,9.6,43.3,14.1c53.1,6.7,75.6-11.2,75.6-11.2s-66.5,20.1-101.5-12.1
		C162.24,104.85,160.45,74.04,160.45,74.04z"/>
	<ellipse class="st1" cx="204.15" cy="20.15" rx="3.6" ry="3.6"/>
	<ellipse class="st1" cx="194.85" cy="35.24" rx="4.1" ry="4.1"/>
</g>
</svg>
