<?xml version="1.0" encoding="utf-8"?>
<!-- Generator: Adobe Illustrator 24.0.1, SVG Export Plug-In . SVG Version: 6.00 Build 0)  -->
<svg version="1.1" id="Layer_2" xmlns="http://www.w3.org/2000/svg" xmlns:xlink="http://www.w3.org/1999/xlink" x="0px" y="0px"
	 viewBox="0 0 279.9 282.8" style="enable-background:new 0 0 279.9 282.8;" xml:space="preserve">
<style type="text/css">
	.st0{fill:#69C2C8;stroke:#63B9BB;stroke-width:1.25;stroke-miterlimit:10;}
	.st1{opacity:0.31;fill:#FBF9EF;enable-background:new    ;}
	.st2{fill:#63B9BB;}
	.st3{opacity:0.36;fill:#FBF9EF;enable-background:new    ;}
	.st4{fill:none;stroke:#63B9BB;stroke-width:0.625;stroke-miterlimit:10;}
	.st5{fill:#84CA97;stroke:#7EBD8B;stroke-width:1.25;stroke-miterlimit:10;}
	.st6{fill:#7EBD8B;}
	.st7{fill:none;stroke:#7EBD8B;stroke-width:0.625;stroke-miterlimit:10;}
	.st8{fill:#F3A8B8;stroke:#E2A1B2;stroke-width:1.25;stroke-miterlimit:10;}
	.st9{fill:#F3A8B8;stroke:#E2A1B2;stroke-width:1.325;stroke-miterlimit:10;}
	.st10{fill:#BF8092;}
	.st11{fill:#E2A1B2;}
	.st12{fill:none;stroke:#BF8092;stroke-width:0.625;stroke-miterlimit:10;}
	.st13{fill:#ED4C64;stroke:#D44D67;stroke-width:1.25;stroke-miterlimit:10;}
	.st14{fill:#D44D67;}
	.st15{fill:none;stroke:#D44D67;stroke-width:0.625;stroke-miterlimit:10;}
	.st16{fill:#FBD433;stroke:#EDCA33;stroke-width:1.25;stroke-miterlimit:10;}
	.st17{fill:#EDCA33;}
	.st18{fill:none;stroke:#EDCA33;stroke-width:0.625;stroke-miterlimit:10;}
</style>
<g>
	<ellipse transform="matrix(0.591 -0.8066 0.8066 0.591 24.0118 222.3417)" class="st0" cx="231.3" cy="87.5" rx="23.9" ry="20.4"/>
	<path class="st0" d="M221.2,63.5c6.7-3.2,16.3-1.3,28,8.8c4,3.4,11.2,13.3,8.4,20.9c-1.6,4.4-7.4,7.2-13,7.5
		c-7.1,0.4-11.5-3.9-11.4-9.6c0.1-4.9,6.3-4.7,8-6.5c-3.2,2.6-11.2-4-9.1-7.3c-1.3,2.3,1.3,7.9-4.1,10.1c-5.4,2.3-10.9-1.3-12.5-8.2
		C214,73.1,216.6,66.3,221.2,63.5z"/>
	<path class="st0" d="M246,44.5c-0.2-0.7-0.2-1.5-0.1-2.3c0.5-3.3,3.5-5.5,6.8-5c3.3,0.5,5.5,3.5,5,6.8c4.4,1.3,8.1,4.3,10.3,8.3
		c1.3-0.8,2.8-1.1,4.3-0.9c3.2,0.6,5.4,3.7,4.8,7c-0.6,3.2-3.7,5.4-7,4.8c-0.4,3-1.5,5.9-3.3,8.4c-5.8,7.9-16.9,9.6-24.8,3.8
		s-9.6-16.9-3.8-24.8C240.2,47.8,242.9,45.7,246,44.5z"/>
	
		<ellipse transform="matrix(0.9967 -8.070866e-02 8.070866e-02 0.9967 -7.9774 19.1953)" class="st0" cx="233.5" cy="108.3" rx="11.4" ry="8.9"/>
	
		<ellipse transform="matrix(0.9967 -8.070866e-02 8.070866e-02 0.9967 -6.7142 17.3159)" class="st0" cx="210.8" cy="91.7" rx="8.9" ry="11.4"/>
	<ellipse transform="matrix(0.591 -0.8066 0.8066 0.591 49.4538 227.3081)" class="st1" cx="248.9" cy="64.9" rx="6.4" ry="8.6"/>
	<circle class="st2" cx="259.3" cy="59.8" r="1.1"/>
	<circle class="st2" cx="251.2" cy="53.8" r="1.1"/>
	<ellipse transform="matrix(0.591 -0.8066 0.8066 0.591 51.9847 228.011)" class="st2" cx="250.9" cy="62.7" rx="1.1" ry="2.7"/>
	<path class="st2" d="M273.9,57.3c-0.4-4-5.6-2.5-5.6-2.5c0.4,2.1,0.8,4.2,1.4,6.3C269.7,61,274.2,60.4,273.9,57.3z"/>
	<path class="st2" d="M252.2,39.3c-4-0.2-3.3,5.1-3.3,5.1c2.1,0,4.3-0.1,6.4-0.4C255.3,44,255.4,39.5,252.2,39.3z"/>
	<ellipse transform="matrix(0.591 -0.8066 0.8066 0.591 68.4769 242.5261)" class="st3" cx="273.4" cy="53.7" rx="0.6" ry="2.1"/>
	<ellipse transform="matrix(0.591 -0.8066 0.8066 0.591 72.4597 221.4591)" class="st3" cx="254.6" cy="39.3" rx="0.6" ry="2"/>
	<path class="st1" d="M230.1,78.3c0,2.4-0.7,4.8-2.1,6.8c0.4-2.3,0.5-4.7,0.5-7.1c-0.3-2.3-0.8-4.6-1.4-6.9
		C227.1,71.2,229.9,75,230.1,78.3z"/>
	<path class="st1" d="M241.5,86.7c2.4-0.3,4.8,0.1,7,1.2c-2.4-0.1-4.7,0-7,0.3c-2.3,0.6-4.5,1.4-6.7,2.3
		C234.9,90.5,238.3,87.3,241.5,86.7z"/>
	<path class="st1" d="M217.6,91.5c0,2.4-0.7,4.8-2,6.8c0.4-2.3,0.5-4.7,0.5-7c-0.3-2.3-0.8-4.6-1.4-6.9
		C214.6,84.4,217.3,88.2,217.6,91.5z"/>
	<path class="st1" d="M231.7,102.3c2.4-0.3,4.8,0.1,7,1.2c-2.3-0.1-4.7,0-7,0.3c-2.3,0.6-4.5,1.4-6.7,2.3
		C225,106.1,228.4,102.9,231.7,102.3z"/>
	<path class="st1" d="M261.7,48c2,1.4,3.4,3.4,4.2,5.7c-1.6-1.7-3.4-3.2-5.3-4.6c-2-1.2-4.2-2.2-6.4-3C254.3,46.1,259,46.2,261.7,48
		z"/>
	<line class="st4" x1="246.6" y1="68.1" x2="250.1" y2="63.6"/>
	<path class="st1" d="M228.1,63.6c2.2,0.3,4.2,1.3,5.8,2.8c-2-0.6-4-1.1-6.1-1.4c-2.1,0-4.2,0.3-6.3,0.7
		C221.6,65.7,225.2,63.4,228.1,63.6z"/>
	<path class="st1" d="M256,86.2c0.1,2.2-0.6,4.4-1.9,6.2c0.3-2.1,0.5-4.2,0.4-6.3c-0.4-2.1-0.9-4.1-1.7-6.1
		C252.9,80.1,255.8,83.3,256,86.2z"/>
	<path class="st1" d="M252.4,60.3c1.4,1.1,2.4,2.7,2.8,4.4c-1.1-1.3-2.4-2.5-3.7-3.6c-1.5-0.9-3-1.6-4.6-2.2
		C248.8,59,250.7,59.4,252.4,60.3z"/>
</g>
<g>
	
		<ellipse transform="matrix(0.6627 -0.7489 0.7489 0.6627 -85.3324 148.4415)" class="st5" cx="122.1" cy="168.9" rx="20.4" ry="23.9"/>
	<path class="st5" d="M97.3,176.8c-2.6-7,0.2-16.3,11.3-27.1c3.8-3.7,14.3-10,21.6-6.5c4.2,2,6.5,8.1,6.3,13.6
		c-0.2,7.1-4.9,11.1-10.6,10.5c-4.9-0.6-4.1-6.7-5.7-8.6c2.3,3.5-5,10.8-8.1,8.4c2.2,1.5,8-0.6,9.7,5c1.8,5.5-2.3,10.7-9.3,11.7
		C106.2,184.8,99.6,181.6,97.3,176.8z"/>
	<path class="st5" d="M80.6,150.3c-0.8,0.1-1.5,0.1-2.3-0.1c-3.2-0.8-5.1-4-4.3-7.2c0.8-3.2,4-5.1,7.2-4.3c1.7-4.2,5-7.6,9.2-9.5
		c-0.7-1.4-0.9-2.9-0.5-4.4c0.9-3.2,4.2-5,7.4-4.1c3.2,0.9,5,4.2,4.1,7.4c3,0.6,5.7,2,8,4.1c7.3,6.5,8,17.7,1.5,25.1
		c-6.5,7.3-17.7,8-25.1,1.5C83.4,156.4,81.5,153.5,80.6,150.3z"/>
	
		<ellipse transform="matrix(1.126047e-02 -0.9999 0.9999 1.126047e-02 -27.273 309.8012)" class="st5" cx="143" cy="168.7" rx="11.4" ry="8.9"/>
	
		<ellipse transform="matrix(1.126047e-02 -0.9999 0.9999 1.126047e-02 -66.6349 311.9889)" class="st5" cx="124.4" cy="189.7" rx="8.9" ry="11.4"/>
	
		<ellipse transform="matrix(0.6627 -0.7489 0.7489 0.6627 -77.6845 126.1762)" class="st1" cx="101.2" cy="149.3" rx="8.6" ry="6.4"/>
	<circle class="st6" cx="97.1" cy="138.5" r="1.1"/>
	<circle class="st6" cx="90.4" cy="146.1" r="1.1"/>
	
		<ellipse transform="matrix(0.6627 -0.7489 0.7489 0.6627 -76.7358 123.9875)" class="st6" cx="99.3" cy="147.2" rx="2.7" ry="1.1"/>
	<path class="st6" d="M95.9,123.7c-4,0-3,5.3-3,5.3c2.1-0.2,4.3-0.4,6.4-0.8C99.3,128.2,99.1,123.7,95.9,123.7z"/>
	<path class="st6" d="M76,143.6c-0.6,3.9,4.8,3.8,4.8,3.8c0.2-2.1,0.3-4.3,0.2-6.4C81,141,76.5,140.6,76,143.6z"/>
	
		<ellipse transform="matrix(0.6627 -0.7489 0.7489 0.6627 -61.6173 110.9666)" class="st3" cx="92.4" cy="123.9" rx="2.1" ry="0.6"/>
	<ellipse transform="matrix(0.6627 -0.7489 0.7489 0.6627 -80.0699 104.7503)" class="st3" cx="76.2" cy="141.3" rx="2" ry="0.6"/>
	<path class="st1" d="M112.9,169.3c2.4,0.2,4.7,1.1,6.6,2.7c-2.3-0.6-4.6-1-7-1.2c-2.3,0.1-4.7,0.3-7,0.8
		C105.5,171.6,109.5,169.2,112.9,169.3z"/>
	<path class="st1" d="M122.3,158.7c-0.1-2.4,0.5-4.8,1.8-6.9c-0.3,2.3-0.4,4.7-0.3,7c0.4,2.3,0.9,4.6,1.7,6.8
		C125.5,165.7,122.6,162,122.3,158.7z"/>
	<path class="st1" d="M124.9,183c2.4,0.2,4.7,1.1,6.6,2.7c-2.3-0.6-4.6-1-7-1.2c-2.4,0.1-4.7,0.3-7,0.8
		C117.5,185.3,121.6,182.9,124.9,183z"/>
	<path class="st1" d="M136.9,169.9c-0.1-2.4,0.5-4.8,1.8-6.9c-0.3,2.3-0.4,4.7-0.3,7c0.4,2.3,0.9,4.6,1.7,6.8
		C140.1,176.9,137.2,173.2,136.9,169.9z"/>
	<path class="st1" d="M85.6,135c1.6-1.8,3.7-3.1,6.1-3.7c-1.8,1.5-3.5,3.1-5.1,4.9c-1.4,1.9-2.5,4-3.5,6.1
		C83,142.2,83.5,137.6,85.6,135z"/>
	<line class="st7" x1="104.2" y1="151.9" x2="100" y2="148"/>
	<path class="st1" d="M98,169.9c0.5-2.2,1.7-4.1,3.4-5.5c-0.8,1.9-1.5,3.9-1.9,6c-0.2,2.1-0.1,4.2,0.1,6.3
		C99.6,176.6,97.5,172.8,98,169.9z"/>
	<path class="st1" d="M123.2,144.2c2.2,0.1,4.3,1,6,2.5c-2-0.5-4.1-0.9-6.2-1c-2.1,0.2-4.2,0.5-6.2,1.1
		C116.7,146.7,120.2,144.2,123.2,144.2z"/>
	<path class="st1" d="M97,145.4c1.3-1.3,2.9-2.1,4.7-2.4c-1.4,1-2.7,2.1-3.9,3.4c-1,1.4-1.9,2.8-2.6,4.4C95.4,148.9,96,147,97,145.4
		z"/>
</g>
<g>
	
		<ellipse transform="matrix(0.928 -0.3725 0.3725 0.928 -70.7172 96.5315)" class="st8" cx="214.4" cy="231.3" rx="20.4" ry="23.9"/>
	<path class="st9" d="M188.7,227.1c0.8-7.4,7.5-14.5,22.3-19.1c5-1.6,17.2-2.5,22.2,3.9c2.9,3.7,2.2,10.1-0.4,15
		c-3.4,6.2-9.4,7.8-14.2,4.6c-4.1-2.7-0.7-7.8-1.3-10.3c0.5,4.1-9.3,7.4-11,3.9c1.3,2.3,7.4,3.1,6.5,8.8c-0.9,5.7-6.9,8.6-13.5,6.3
		C193.1,238.3,188.6,232.5,188.7,227.1z"/>
	<path class="st8" d="M185.7,196c-0.7-0.2-1.4-0.6-2-1.1c-2.5-2.1-2.8-5.9-0.6-8.4c2.1-2.5,5.9-2.8,8.4-0.6c3.4-3,7.9-4.6,12.5-4.3
		c0-1.5,0.5-3,1.6-4.1c2.2-2.4,6-2.6,8.4-0.4c2.4,2.2,2.6,6,0.4,8.4c2.4,1.9,4.2,4.4,5.3,7.2c3.6,9.1-0.8,19.4-9.9,23.1
		c-9.1,3.6-19.4-0.8-23.1-9.9C185.4,202.7,185.1,199.3,185.7,196z"/>
	
		<ellipse transform="matrix(0.4581 -0.8889 0.8889 0.4581 -87.3033 337.5706)" class="st8" cx="233.2" cy="240.4" rx="11.4" ry="8.9"/>
	
		<ellipse transform="matrix(0.4581 -0.8889 0.8889 0.4581 -110.6865 320.1081)" class="st8" cx="207.2" cy="250.8" rx="8.9" ry="11.4"/>
	<ellipse transform="matrix(0.928 -0.3725 0.3725 0.928 -61.4032 90.9163)" class="st1" cx="204.6" cy="204.3" rx="8.6" ry="6.4"/>
	<circle class="st10" cx="205.7" cy="192.8" r="1.1"/>
	<circle class="st10" cx="196.3" cy="196.6" r="1.1"/>
	<ellipse transform="matrix(0.928 -0.3725 0.3725 0.928 -60.4206 90.4183)" class="st10" cx="203.8" cy="201.6" rx="2.7" ry="1.1"/>
	<path class="st11" d="M211.3,179.1c-3.6-1.8-5.1,3.4-5.1,3.4c2,0.8,4,1.5,6.1,2.1C212.3,184.6,214.1,180.5,211.3,179.1z"/>
	<path class="st11" d="M184.6,188c-2.3,3.3,2.6,5.5,2.6,5.5c1.1-1.8,2.1-3.7,3.1-5.6C190.2,187.9,186.4,185.5,184.6,188z"/>
	<ellipse transform="matrix(0.928 -0.3725 0.3725 0.928 -51.2041 90.2891)" class="st3" cx="208" cy="177.6" rx="2.1" ry="0.6"/>
	<ellipse transform="matrix(0.928 -0.3725 0.3725 0.928 -55.8973 82.6153)" class="st3" cx="185.8" cy="185.9" rx="2" ry="0.6"/>
	<path class="st1" d="M206,227.4c2.1,1.3,3.7,3.1,4.7,5.3c-1.8-1.5-3.7-2.9-5.7-4.2c-2.1-1-4.3-1.8-6.6-2.4
		C198.4,226.2,203.1,225.9,206,227.4z"/>
	<path class="st1" d="M219.2,222.1c1-2.2,2.6-4.1,4.7-5.3c-1.3,2-2.4,4-3.4,6.2c-0.7,2.2-1.2,4.5-1.6,6.9
		C218.9,229.8,218,225.2,219.2,222.1z"/>
	<path class="st1" d="M210.6,245.1c2.1,1.3,3.7,3.1,4.7,5.3c-1.8-1.5-3.7-2.9-5.7-4.2c-2.1-1-4.3-1.8-6.6-2.4
		C203,243.8,207.7,243.5,210.6,245.1z"/>
	<path class="st1" d="M227.2,238.8c1-2.2,2.6-4.1,4.7-5.3c-1.3,1.9-2.5,4-3.4,6.1c-0.7,2.2-1.2,4.5-1.6,6.9
		C226.9,246.4,226,241.8,227.2,238.8z"/>
	<path class="st1" d="M197,184.5c2.3-0.9,4.7-1.1,7.1-0.6c-2.3,0.5-4.6,1.2-6.7,2c-2.1,1.1-4,2.4-5.9,3.9
		C191.4,189.9,194,185.9,197,184.5z"/>
	<line class="st12" x1="206.1" y1="208" x2="204.1" y2="202.7"/>
	<path class="st1" d="M192.5,221.3c1.4-1.7,3.3-2.9,5.5-3.4c-1.6,1.4-3.1,2.8-4.4,4.5c-1.1,1.8-2,3.7-2.7,5.7
		C190.8,228,190.8,223.7,192.5,221.3z"/>
	<path class="st1" d="M226.5,209.6c1.9,1.1,3.4,2.8,4.2,4.9c-1.6-1.4-3.3-2.6-5.1-3.7c-1.9-0.8-4-1.4-6-1.8
		C219.6,209,223.9,208.3,226.5,209.6z"/>
	<path class="st1" d="M202.5,199c1.7-0.6,3.5-0.6,5.3-0.1c-1.7,0.3-3.4,0.7-5,1.3c-1.5,0.8-2.9,1.7-4.3,2.8
		C199.5,201.3,200.9,199.9,202.5,199z"/>
</g>
<g>
	
		<ellipse transform="matrix(0.7767 -0.6299 0.6299 0.7767 -150.5875 76.7836)" class="st13" cx="33" cy="250.8" rx="23.9" ry="20.4"/>
	<path class="st13" d="M29.3,225c7.3-1.4,16.1,2.8,24.8,15.6c3,4.3,7.5,15.7,2.8,22.4c-2.7,3.8-9,5.1-14.5,4
		c-7-1.4-10.2-6.7-8.6-12.2c1.4-4.7,7.3-3,9.4-4.2c-3.8,1.7-9.8-6.7-7-9.4c-1.8,1.9-0.7,7.9-6.5,8.8c-5.8,0.8-10.2-4.1-10-11.1
		C20,232.4,24.2,226.5,29.3,225z"/>
	<path class="st13" d="M58.2,212.9c0-0.8,0.2-1.5,0.5-2.2c1.3-3,4.8-4.4,7.8-3.1c3,1.3,4.4,4.8,3.1,7.8c3.9,2.4,6.7,6.2,7.8,10.6
		c1.5-0.5,3-0.4,4.4,0.3c3,1.4,4.2,5,2.8,7.9c-1.4,3-5,4.2-7.9,2.8c-1.1,2.8-3,5.3-5.3,7.2c-7.6,6.2-18.8,5-25-2.6
		c-6.2-7.6-5-18.8,2.6-25C51.7,214.6,54.9,213.3,58.2,212.9z"/>
	
		<ellipse transform="matrix(0.1753 -0.9845 0.9845 0.1753 -242.6353 253.1911)" class="st13" cx="29.8" cy="271.4" rx="8.9" ry="11.4"/>
	
		<ellipse transform="matrix(0.1753 -0.9845 0.9845 0.1753 -235.7664 217.8491)" class="st13" cx="12.2" cy="249.7" rx="11.4" ry="8.9"/>
	
		<ellipse transform="matrix(0.7767 -0.6299 0.6299 0.7767 -134.5477 87.2547)" class="st1" cx="55.8" cy="233.4" rx="6.4" ry="8.6"/>
	<circle class="st14" cx="67.2" cy="231.1" r="1.1"/>
	<circle class="st14" cx="60.8" cy="223.2" r="1.1"/>
	
		<ellipse transform="matrix(0.7767 -0.6299 0.6299 0.7767 -133.0101 88.4393)" class="st14" cx="58.2" cy="231.8" rx="1.1" ry="2.7"/>
	<path class="st14" d="M81.9,232.4c0.7-3.9-4.7-3.9-4.7-3.9c-0.2,2.1-0.3,4.3-0.2,6.4C76.9,234.9,81.4,235.5,81.9,232.4z"/>
	<path class="st14" d="M65.5,209.4c-3.8-1.2-4.5,4.1-4.5,4.1c2.1,0.5,4.1,1,6.3,1.3C67.3,214.8,68.5,210.5,65.5,209.4z"/>
	
		<ellipse transform="matrix(0.7767 -0.6299 0.6299 0.7767 -125.7518 102.9611)" class="st3" cx="82.3" cy="228.8" rx="0.6" ry="2.1"/>
	<ellipse transform="matrix(0.7767 -0.6299 0.6299 0.7767 -117.1701 89.6435)" class="st3" cx="67.8" cy="210.1" rx="0.6" ry="2"/>
	<path class="st1" d="M34.2,241.6c-0.6,2.4-1.9,4.5-3.7,6c0.9-2.2,1.7-4.4,2.3-6.7c0.3-2.3,0.4-4.7,0.4-7
		C33.1,233.9,34.8,238.3,34.2,241.6z"/>
	<path class="st1" d="M43.1,252.6c2.4,0.3,4.7,1.3,6.5,2.9c-2.3-0.7-4.6-1.2-6.9-1.5c-2.4,0-4.7,0.2-7,0.5
		C35.7,254.6,39.8,252.4,43.1,252.6z"/>
	<path class="st1" d="M18.7,251.2c-0.6,2.4-1.9,4.5-3.7,6.1c0.9-2.2,1.7-4.4,2.3-6.7c0.3-2.3,0.4-4.7,0.4-7
		C17.6,243.5,19.3,247.9,18.7,251.2z"/>
	<path class="st1" d="M29.6,265.2c2.4,0.3,4.7,1.3,6.5,2.9c-2.2-0.7-4.5-1.2-6.9-1.5c-2.4,0-4.7,0.2-7,0.5
		C22.2,267.2,26.3,265,29.6,265.2z"/>
	<path class="st1" d="M72.5,220.3c1.5,1.9,2.5,4.2,2.6,6.6c-1.2-2-2.5-4-3.9-5.8c-1.7-1.6-3.5-3.2-5.4-4.5
		C65.8,216.6,70.3,217.9,72.5,220.3z"/>
	<line class="st15" x1="52.8" y1="235.9" x2="57.3" y2="232.4"/>
	<path class="st1" d="M36,226.8c2.1,0.8,3.8,2.3,4.9,4.2c-1.8-1.1-3.6-2.1-5.6-2.9c-2-0.5-4.1-0.8-6.2-0.9
		C29.1,227.3,33.3,225.9,36,226.8z"/>
	<path class="st1" d="M57.3,255.9c-0.5,2.2-1.7,4.1-3.4,5.5c0.9-1.9,1.5-3.9,2-5.9c0.2-2.1,0.2-4.2-0.1-6.3
		C55.8,249.1,57.8,253,57.3,255.9z"/>
	<path class="st1" d="M60.3,229.9c1.1,1.4,1.6,3.2,1.6,5c-0.8-1.5-1.7-3-2.7-4.4c-1.2-1.2-2.5-2.3-3.9-3.3
		C57.2,227.7,58.9,228.6,60.3,229.9z"/>
</g>
<g>
	
		<ellipse transform="matrix(0.5297 -0.8482 0.8482 0.5297 -4.6975 78.6808)" class="st16" cx="68.6" cy="43.6" rx="20.4" ry="23.9"/>
	<path class="st16" d="M91.8,31.8c3.7,6.5,2.5,16.1-6.7,28.6c-3.1,4.2-12.4,12.2-20.3,10c-4.5-1.3-7.7-6.9-8.5-12.4
		c-0.9-7,3-11.8,8.7-12.1c4.9-0.2,5.2,5.9,7.1,7.5c-2.8-3,3.2-11.5,6.6-9.7c-2.4-1.1-7.7,1.9-10.4-3.3s0.5-11,7.2-13
		C81.7,25.3,88.7,27.4,91.8,31.8z"/>
	<path class="st16" d="M112.6,55.1c0.7-0.2,1.5-0.3,2.3-0.3c3.3,0.3,5.7,3.1,5.5,6.4c-0.3,3.3-3.1,5.7-6.4,5.5
		c-1,4.5-3.7,8.4-7.5,10.9c0.9,1.2,1.3,2.7,1.2,4.3c-0.4,3.3-3.3,5.6-6.6,5.3c-3.3-0.4-5.6-3.3-5.3-6.6c-3-0.1-6-1.1-8.6-2.7
		c-8.3-5.2-10.8-16.2-5.6-24.5s16.2-10.8,24.5-5.6C108.9,49.5,111.2,52.1,112.6,55.1z"/>
	<ellipse transform="matrix(0.988 -0.1543 0.1543 0.988 -6.7218 7.9779)" class="st16" cx="48" cy="47.3" rx="8.9" ry="11.4"/>
	<ellipse transform="matrix(0.988 -0.1543 0.1543 0.988 -2.8741 9.9839)" class="st16" cx="62.9" cy="23.5" rx="11.4" ry="8.9"/>
	<ellipse transform="matrix(0.5297 -0.8482 0.8482 0.5297 -6.9626 106.3877)" class="st1" cx="92.4" cy="59.5" rx="8.6" ry="6.4"/>
	<circle class="st17" cx="98.3" cy="69.5" r="1.1"/>
	<circle class="st17" cx="103.7" cy="60.9" r="1.1"/>
	<ellipse transform="matrix(0.5297 -0.8482 0.8482 0.5297 -7.4105 109.1687)" class="st17" cx="94.7" cy="61.3" rx="2.7" ry="1.1"/>
	<path class="st17" d="M101.9,83.8c3.9-0.7,2.1-5.7,2.1-5.7c-2.1,0.5-4.1,1.1-6.1,1.9C97.9,80,98.8,84.4,101.9,83.8z"/>
	<path class="st17" d="M118.3,60.9c-0.1-4-5.4-2.9-5.4-2.9c0.2,2.1,0.4,4.2,0.8,6.3C113.7,64.3,118.3,64,118.3,60.9z"/>
	
		<ellipse transform="matrix(0.5297 -0.8482 0.8482 0.5297 -20.9176 128.4734)" class="st3" cx="105.4" cy="83.1" rx="2.1" ry="0.6"/>
	<ellipse transform="matrix(0.5297 -0.8482 0.8482 0.5297 2.0093 130.2109)" class="st3" cx="118.4" cy="63.3" rx="2" ry="0.6"/>
	<path class="st1" d="M77.7,41.7c-2.4,0.2-4.8-0.3-6.9-1.6c2.4,0.2,4.7,0.2,7.1,0c2.3-0.5,4.6-1.1,6.8-2
		C84.6,38.2,81,41.2,77.7,41.7z"/>
	<path class="st1" d="M70.1,53.8c0.5,2.4,0.3,4.8-0.7,7.1c-0.1-2.4-0.4-4.7-0.9-7c-0.7-2.2-1.7-4.4-2.8-6.5
		C65.8,47.4,69.3,50.6,70.1,53.8z"/>
	<path class="st1" d="M63.5,30.2c-2.4,0.2-4.8-0.3-6.9-1.5c2.4,0.2,4.7,0.2,7.1,0c2.3-0.5,4.6-1.1,6.8-1.9
		C70.4,26.7,66.8,29.7,63.5,30.2z"/>
	<path class="st1" d="M53.9,45.1c0.5,2.4,0.3,4.8-0.7,7.1c-0.1-2.3-0.4-4.7-0.8-7c-0.7-2.2-1.7-4.4-2.8-6.5
		C49.5,38.7,53,41.9,53.9,45.1z"/>
	<path class="st1" d="M110.3,71c-1.3,2.1-3.2,3.7-5.4,4.6c1.6-1.8,3-3.6,4.2-5.6c1-2.1,1.8-4.3,2.5-6.6
		C111.6,63.4,111.8,68.1,110.3,71z"/>
	<line class="st18" x1="89.1" y1="57.4" x2="93.8" y2="60.6"/>
	<path class="st1" d="M92.2,38.7c-0.1,2.2-1,4.3-2.4,6c0.5-2,0.8-4.1,0.9-6.2c-0.2-2.1-0.6-4.2-1.2-6.2
		C89.6,32.3,92.2,35.8,92.2,38.7z"/>
	<path class="st1" d="M71.7,68.2c-2.2,0.2-4.4-0.3-6.3-1.5c2.1,0.2,4.2,0.2,6.3,0c2-0.5,4-1.2,5.9-2.1
		C77.6,64.6,74.6,67.7,71.7,68.2z"/>
	<path class="st1" d="M97.3,62.6c-1,1.5-2.5,2.6-4.2,3.1c1.2-1.2,2.3-2.6,3.3-4c0.8-1.5,1.4-3.1,1.8-4.8C98.3,59,98,60.9,97.3,62.6z
		"/>
</g>
</svg>
