<svg id="Layer_1" data-name="Layer 1" xmlns="http://www.w3.org/2000/svg" viewBox="0 0 289.71 282.81"><defs><style>.cls-1{fill:#69c2c8;stroke:#62b5b7;}.cls-1,.cls-3,.cls-5,.cls-6,.cls-8{stroke-miterlimit:10;stroke-width:2px;}.cls-2,.cls-4{fill:#fbf9ef;}.cls-2{opacity:0.31;}.cls-3{fill:#f3a8b8;stroke:#e29fb0;}.cls-4{opacity:0.33;}.cls-5{fill:#fbd433;stroke:#eac632;}.cls-6{fill:#84ca97;stroke:#80bf8e;}.cls-7{fill:#9ed2a6;}.cls-8{fill:#ed4c64;stroke:#db4b66;}</style></defs><title>jellybean-block</title><path class="cls-1" d="M289,112.8c-11.34,6.31-25.43,7.12-34.37,5.13-12.29-2.73-19.33-14.39-16.39-23.53,2.38-7.38,10.67-15.8,20.18-10.91,5.76,3,19.89-.79,20.85-10.49.66-6.68,2.31-13,11.21-15.81,9.17-2.85,19.65,7.47,20.52,20C312,92,303.6,104.65,289,112.8Z" transform="translate(-77.53 -55.71)"/><path class="cls-2" d="M290.37,59.52c-8.84,3.73-8.52,18.9-8.52,18.9,4.57-14.87,12.57-14.16,14.12-17.8C297.35,57.41,290.37,59.52,290.37,59.52Z" transform="translate(-77.53 -55.71)"/><path class="cls-2" d="M245.28,109.68c12.84,14.32,53.11,1,57.74-13.36-5.38,7.11-20.34,16-47,14.6C247.34,110.46,246.12,109.46,245.28,109.68Z" transform="translate(-77.53 -55.71)"/><path class="cls-3" d="M99.18,151.19c-8.13-10.12-11.3-23.87-10.83-33C89,105.6,99.29,96.7,108.79,98.06c7.68,1.11,17.37,7.87,14.14,18.07-2,6.18,4.12,19.48,13.85,18.79,6.69-.47,13.24.09,17.47,8.4,4.34,8.56-4.07,20.62-16.3,23.59C123.51,170.42,109.67,164.26,99.18,151.19Z" transform="translate(-77.53 -55.71)"/><path class="cls-4" d="M151.93,143.64c-5.16-8.09-20.06-5.23-20.06-5.23,15.43,2,16.07,10,19.92,10.94C155.19,150.17,151.93,143.64,151.93,143.64Z" transform="translate(-77.53 -55.71)"/><path class="cls-4" d="M94.92,107.61c-12,15.06,7.89,52.53,22.86,54.68-7.91-4.11-19.19-17.37-22.27-43.86C94.5,109.77,95.28,108.4,94.92,107.61Z" transform="translate(-77.53 -55.71)"/><path class="cls-5" d="M226.21,192.05c6.17-11.43,17.6-19.69,26.21-22.83,11.83-4.31,24,1.72,26.48,11,2,7.5-.49,19.06-11.14,20.05-6.45.61-16.34,11.38-11.92,20.07,3,6,5.07,12.24-.94,19.36-6.2,7.34-20.58,4.28-28.08-5.83C218,221.94,218.26,206.8,226.21,192.05Z" transform="translate(-77.53 -55.71)"/><path class="cls-2" d="M253.7,237.71c5.44-7.91-3-20.52-3-20.52,4.15,15-3,18.7-2.32,22.6C249,243.24,253.7,237.71,253.7,237.71Z" transform="translate(-77.53 -55.71)"/><path class="cls-2" d="M264.7,171.16c-18.53-5.16-45.32,27.72-41.46,42.34.7-8.88,8.52-24.43,31.73-37.58C262.55,171.62,264.12,171.8,264.7,171.16Z" transform="translate(-77.53 -55.71)"/><path class="cls-6" d="M132.16,298.05c-9.66,8.67-23.21,12.58-32.38,12.63-12.58.05-22-9.75-21.2-19.31.69-7.73,6.91-17.78,17.26-15.12,6.28,1.62,19.23-5.18,18-14.85-.84-6.66-.64-13.23,7.43-17.91,8.31-4.81,20.81,2.94,24.45,15C150,272.7,144.63,286.86,132.16,298.05Z" transform="translate(-77.53 -55.71)"/><path class="cls-7" d="M121.73,245.79c-7.8,5.59-4.13,20.32-4.13,20.32,1.17-15.52,9.12-16.6,9.83-20.49C128.06,242.18,121.73,245.79,121.73,245.79Z" transform="translate(-77.53 -55.71)"/><path class="cls-7" d="M88.88,304.69c15.69,11.13,52-10.76,53.34-25.83C138.55,287,125.93,299,99.65,303.51,91.06,305,89.65,304.29,88.88,304.69Z" transform="translate(-77.53 -55.71)"/><path class="cls-8" d="M339.28,284.87c11.88,5.23,21,16,24.84,24.3,5.23,11.45.19,24.1-8.87,27.27-7.32,2.56-19,1-20.88-9.5-1.11-6.39-12.64-15.39-20.95-10.3-5.72,3.51-11.79,6-19.37.6-7.81-5.59-5.9-20.17,3.58-28.45C308.83,279,324,278.11,339.28,284.87Z" transform="translate(-77.53 -55.71)"/><path class="cls-2" d="M296,315.89c8.31,4.8,20.22-4.61,20.22-4.61-14.63,5.33-18.89-1.47-22.72-.52C290.06,311.6,296,315.89,296,315.89Z" transform="translate(-77.53 -55.71)"/><path class="cls-2" d="M363.16,321.57c3.67-18.88-31.23-43-45.5-38,8.91,0,25,6.56,40,28.65C362.53,319.47,362.48,321,363.16,321.57Z" transform="translate(-77.53 -55.71)"/></svg>