<svg id="Layer_1" data-name="Layer 1" xmlns="http://www.w3.org/2000/svg" viewBox="0 0 279.93 282.81"><defs><style>.cls-1{fill:#69c2c8;stroke:#62b5b7;}.cls-1,.cls-3,.cls-5,.cls-6,.cls-8{stroke-miterlimit:10;stroke-width:2px;}.cls-2,.cls-4{fill:#fbf9ef;}.cls-2{opacity:0.31;}.cls-3{fill:#f3a8b8;stroke:#e29fb0;}.cls-4{opacity:0.33;}.cls-5{fill:#fbd433;stroke:#eac632;}.cls-6{fill:#84ca97;stroke:#80bf8e;}.cls-7{fill:#9ed2a6;}.cls-8{fill:#ed4c64;stroke:#db4b66;}</style></defs><title>jellybean-block</title><path class="cls-1" d="M214.1,60.9C202.76,67.21,188.68,68,179.73,66c-12.28-2.74-19.32-14.39-16.39-23.53,2.38-7.38,10.67-15.8,20.18-10.91,5.77,3,19.9-.79,20.85-10.49.66-6.68,2.31-13,11.22-15.81,9.17-2.85,19.64,7.47,20.52,20C237.15,40.14,228.75,52.75,214.1,60.9Z" transform="translate(-12.45 -3.81)"/><path class="cls-2" d="M215.52,7.62c-8.84,3.73-8.53,18.9-8.53,18.9,4.58-14.88,12.57-14.17,14.13-17.8C222.49,5.51,215.52,7.62,215.52,7.62Z" transform="translate(-12.45 -3.81)"/><path class="cls-2" d="M170.43,57.78c12.84,14.32,53.11,1,57.74-13.36-5.38,7.1-20.34,16-47,14.59C172.48,58.55,171.26,57.56,170.43,57.78Z" transform="translate(-12.45 -3.81)"/><path class="cls-3" d="M24.32,99.29C16.2,89.17,13,75.42,13.49,66.27,14.13,53.7,24.43,44.8,33.94,46.16,41.61,47.27,51.31,54,48.08,64.22,46.12,70.4,52.2,83.7,61.92,83c6.7-.48,13.25.08,17.47,8.4C83.74,100,75.32,112,63.09,115,48.65,118.52,34.82,112.36,24.32,99.29Z" transform="translate(-12.45 -3.81)"/><path class="cls-4" d="M77.08,91.74C71.92,83.65,57,86.51,57,86.51c15.43,2,16.07,10,19.91,10.94C80.33,98.26,77.08,91.74,77.08,91.74Z" transform="translate(-12.45 -3.81)"/><path class="cls-4" d="M20.06,55.71C8.1,70.77,28,108.24,42.93,110.38,35,106.28,23.74,93,20.65,66.53,19.65,57.87,20.42,56.5,20.06,55.71Z" transform="translate(-12.45 -3.81)"/><path class="cls-5" d="M151.36,140.14c6.16-11.42,17.59-19.69,26.21-22.82,11.82-4.31,24,1.72,26.47,11,2,7.51-.48,19.07-11.13,20.06-6.46.61-16.34,11.38-11.93,20.07,3,6,5.08,12.23-.94,19.36-6.19,7.34-20.57,4.27-28.07-5.84C143.12,170,143.41,154.9,151.36,140.14Z" transform="translate(-12.45 -3.81)"/><path class="cls-2" d="M178.85,185.81c5.44-7.91-3-20.52-3-20.52,4.15,15-3,18.7-2.33,22.6C174.1,191.34,178.85,185.81,178.85,185.81Z" transform="translate(-12.45 -3.81)"/><path class="cls-2" d="M189.85,119.26c-18.53-5.16-45.32,27.71-41.47,42.34.71-8.88,8.53-24.43,31.73-37.59C187.7,119.72,189.26,119.9,189.85,119.26Z" transform="translate(-12.45 -3.81)"/><path class="cls-6" d="M101.31,241.15c-9.66,8.67-23.22,12.58-32.38,12.62-12.59.06-22-9.74-21.2-19.31.69-7.72,6.9-17.77,17.26-15.11,6.28,1.61,19.23-5.18,18-14.85-.84-6.66-.65-13.24,7.42-17.91,8.31-4.81,20.82,2.93,24.45,15C119.17,215.8,113.78,230,101.31,241.15Z" transform="translate(-12.45 -3.81)"/><path class="cls-7" d="M90.87,188.88c-7.79,5.6-4.12,20.32-4.12,20.32,1.16-15.52,9.12-16.6,9.83-20.48C97.21,185.28,90.87,188.88,90.87,188.88Z" transform="translate(-12.45 -3.81)"/><path class="cls-7" d="M58,247.79c15.7,11.12,52-10.76,53.34-25.83-3.66,8.12-16.28,20.12-42.57,24.65C60.2,248.09,58.79,247.39,58,247.79Z" transform="translate(-12.45 -3.81)"/><path class="cls-8" d="M264.43,233c11.88,5.24,21,16,24.84,24.31,5.23,11.45.19,24.09-8.87,27.27-7.32,2.56-19,1-20.88-9.51-1.12-6.38-12.64-15.38-20.95-10.29-5.72,3.51-11.8,6-19.38.6-7.8-5.59-5.89-20.17,3.59-28.45C234,227.12,249.09,226.2,264.43,233Z" transform="translate(-12.45 -3.81)"/><path class="cls-2" d="M221.1,264c8.31,4.8,20.21-4.61,20.21-4.61-14.62,5.33-18.88-1.47-22.72-.52C215.2,259.7,221.1,264,221.1,264Z" transform="translate(-12.45 -3.81)"/><path class="cls-2" d="M288.3,269.67c3.68-18.88-31.22-43-45.5-38,8.92,0,25,6.56,40,28.64C287.68,267.56,287.62,269.14,288.3,269.67Z" transform="translate(-12.45 -3.81)"/></svg>