<?xml version="1.0" encoding="utf-8"?>
<!-- Generator: Adobe Illustrator 24.0.0, SVG Export Plug-In . SVG Version: 6.00 Build 0)  -->
<svg version="1.1" xmlns="http://www.w3.org/2000/svg" xmlns:xlink="http://www.w3.org/1999/xlink" x="0px" y="0px"
	 viewBox="0 0 364 94" style="enable-background:new 0 0 364 94;" xml:space="preserve">
<style type="text/css">
	.st0{fill:#D6D2BE;stroke:#BFB79F;stroke-width:1.09;stroke-miterlimit:10;}
	.st1{fill:#FBD433;}
	.st2{opacity:0.66;fill:#FBF9EF;enable-background:new    ;}
	.st3{fill:#FBF9EF;}
	.st4{fill:none;stroke:#231F20;stroke-width:0.92;stroke-miterlimit:10;}
	.st5{opacity:0.75;fill:#E9C52E;enable-background:new    ;}
	.st6{fill:none;stroke:#E9C734;stroke-miterlimit:10;}
	.st7{fill:#69C2C8;stroke:#64BABC;stroke-width:0.76;stroke-miterlimit:10;}
	.st8{fill:#69C2C8;stroke:#64BABC;stroke-width:0.75;stroke-miterlimit:10;}
	.st9{fill:#61B5B7;}
	.st10{opacity:0.76;fill:#FFFFFF;enable-background:new    ;}
	.st11{fill:#69C2C8;stroke:#61B5B7;stroke-miterlimit:10;}
	.st12{fill:#8FD4D6;}
	.st13{fill:#69C2C8;stroke:#64BABC;stroke-width:0.94;stroke-miterlimit:10;}
	.st14{fill:#F3A8B8;}
	.st15{fill:none;stroke:#E0A2B2;stroke-miterlimit:10;}
	.st16{fill:#ED4C64;stroke:#DD4C67;stroke-width:0.76;stroke-miterlimit:10;}
	.st17{fill:#ED4C64;stroke:#DD4C67;stroke-width:0.75;stroke-miterlimit:10;}
	.st18{fill:#D34862;}
	.st19{fill:#FFFFFF;}
	.st20{fill:#84CA97;stroke:#7EBD8B;stroke-width:0.96;stroke-miterlimit:10;}
	.st21{opacity:0.58;fill:#FBF9EF;stroke:#84CA97;stroke-width:0.96;stroke-miterlimit:10;enable-background:new    ;}
	.st22{fill:none;stroke:#84CA97;stroke-width:0.64;stroke-miterlimit:10;}
	.st23{fill:#7BBA8A;}
	.st24{fill:#84CA97;stroke:#7BBA8A;stroke-width:0.96;stroke-miterlimit:10;}
	.st25{fill:#69C2C8;}
	.st26{opacity:0.74;fill:#61B5B7;enable-background:new    ;}
	.st27{fill:none;stroke:#61B5B7;stroke-miterlimit:10;}
	.st28{fill:#FBD433;stroke:#E9C52E;stroke-width:0.76;stroke-miterlimit:10;}
	.st29{fill:#FBD433;stroke:#E9C52E;stroke-width:0.75;stroke-miterlimit:10;}
	.st30{fill:#E9C52E;}
</style>
<g id="Layer_2">
	<title>lollipop-yellow</title>
	<g>
		<path class="st0" d="M39.36,93h-2.93c-0.27,0.01-0.49-0.21-0.5-0.48c0,0,0-0.01,0-0.01l-1.12-49.37h4l1.07,49.34
			c0.01,0.28-0.22,0.51-0.5,0.52C39.37,93,39.37,93,39.36,93z"/>
		<circle class="st1" cx="36.98" cy="23.31" r="21.82"/>
		
			<rect x="36.06" y="45.75" transform="matrix(0.9998 -0.0175 0.0175 0.9998 -1.2008 0.6519)" class="st2" width="1.39" height="46.76"/>
		<path class="st3" d="M46.53,42.12c-10.84,4.46-30.77-8.62-26-23.2c2.84-8.71,10-11.93,18.52-8.93c5.63,1.97,10.38,9.15,8.38,15.28
			c-1.36,4.3-8.41,9.46-14.74,4.35c-6.53-5.25-1.18-15.34,4.35-12.21c1.61,0.84,2.56,2.57,2.39,4.38c-0.94,4-5.26,1.23-2.69-0.85
			l0.28,0.15c-2.89-1.79-4.1,3.14-1.42,5c3.39,2.31,8.94-0.8,8.17-5.41s-4.06-6.74-7.3-7.81c-5.2-1.72-12.34,2.33-12.46,9.16
			c0.08,6.03,3.61,11.48,9.09,14c10,4.85,20.18-3.72,20.31-12.74c0.16-10.64-6.46-16.9-14.42-19.35
			c-9.94-3.06-20.87,3.9-23.17,13.08c-2.87,11.47,3.13,24,15.63,27.62C37.43,46.36,47.03,43.23,46.53,42.12z"/>
		<path class="st4" d="M46.85,43.91"/>
		<path class="st5" d="M45.83,41.57c3.64-1.61,6.73-4.26,8.85-7.63c1.83-3.13,2.57-6.78,2.1-10.37c-0.81,3.51-2.34,6.82-4.49,9.71
			c-2.78,3.8-6.28,7.01-10.3,9.46l2.63-0.56l0,0L45.83,41.57z"/>
		<circle class="st6" cx="36.98" cy="23.31" r="21.82"/>
		<path class="st7" d="M38.22,48.28l5.21,8.85c0.07,0.12,0.02,0.27-0.1,0.34c-0.07,0.04-0.15,0.04-0.22,0.01l-5.4-2.46l-0.62-7.37
			L38.22,48.28z"/>
		<path class="st8" d="M35.63,48.43l-5.2,10.29c-0.06,0.12-0.01,0.27,0.11,0.34c0.07,0.04,0.15,0.04,0.22,0l5.34-2.49l0.65-8.78
			L35.63,48.43z"/>
		<path class="st8" d="M34.63,46.88l11,4.86c0.24,0.12,0.54,0.01,0.65-0.23c0.03-0.07,0.05-0.14,0.05-0.22
			c-0.34-1.45-0.59-2.93-0.74-4.41c0.15-1.48,0.4-2.95,0.74-4.4c0-0.28-0.22-0.5-0.5-0.5c-0.07,0-0.14,0.01-0.2,0.04L34.63,46.88z"
			/>
		<path class="st8" d="M37.26,45.97l-8.94-3.95c-0.25-0.11-0.55,0.01-0.66,0.26c-0.03,0.06-0.04,0.13-0.04,0.2
			c0,0,0.49,3.3,0.49,4.4s-0.49,4.41-0.49,4.41c0,0.27,0.21,0.49,0.48,0.5c0.08,0,0.15-0.02,0.22-0.05l8.94-3.94
			c0.51-0.22,0.73-0.81,0.51-1.32C37.67,46.25,37.49,46.07,37.26,45.97z"/>
		<path class="st9" d="M41.11,46.08c-1.64-0.02-3.25,0.39-4.68,1.18c1.37-0.02,2.75,0.08,4.1,0.31c2.86,0.51,0.16-0.76,0.16-0.76
			S43.56,46.25,41.11,46.08z"/>
		<path class="st9" d="M33.01,47.69c1.62-0.04,3.21-0.49,4.6-1.32c-1.36,0.05-2.72-0.02-4.07-0.21c-2.87-0.42-0.14,0.77-0.14,0.77
			S30.55,47.57,33.01,47.69z"/>
		<path class="st8" d="M35.58,45.04h3.2c0.28,0,0.5,0.22,0.5,0.5v2.69c0,0.28-0.22,0.5-0.5,0.5h-3.2c-0.28,0-0.5-0.22-0.5-0.5v-2.69
			C35.08,45.26,35.3,45.04,35.58,45.04z"/>
		<path class="st10" d="M40,3.28c-4.44-0.46-8.93,0.26-13,2.11c-3.46,1.64-6.24,4.43-7.87,7.9c2.84-2.68,6.19-4.75,9.85-6.11
			C33.92,5.3,39.15,4.3,44.43,4.23l-2.9-0.85l0,0L40,3.28z"/>
	</g>
</g>
<g id="Layer_7">
	<g>
		<path class="st0" d="M112.03,93h-2.93c-0.27,0.01-0.49-0.21-0.5-0.48c0,0,0-0.01,0-0.01l-1.12-49.37h4l1.07,49.34
			c0.01,0.28-0.22,0.51-0.5,0.52C112.04,93,112.03,93,112.03,93z"/>
		
			<rect x="108.72" y="45.74" transform="matrix(0.9998 -0.0175 0.0175 0.9998 -1.1896 1.9201)" class="st3" width="1.39" height="46.76"/>
		<path class="st11" d="M113.63,44.99l3.76,7.52c0.22,0.33-1,0.7-1.61,0.7c-0.58-0.62-1.08-2.35-3.58-0.39
			c-1.1,0.86-1.64-1.31-2.19-1.31c-0.55,0-1.35,1.41-2.53,1.49c-0.71,0-1.42-1.36-2-1.31c-0.7,0.11-1.31,0.52-1.68,1.12
			c-1,0-1.85,0-1.62-0.37l4-7.41C95.66,43.3,87.94,34.22,87.92,23.57c0-12,7.11-21.81,21.82-21.81
			c12.05-0.03,21.83,9.71,21.86,21.76c0.03,10.59-7.55,19.66-17.97,21.52V44.99z"/>
		<path class="st4" d="M119.52,43.91"/>
		<path class="st9" d="M118.5,41.57c3.64-1.61,6.73-4.26,8.85-7.63c1.83-3.13,2.57-6.78,2.1-10.37c-0.81,3.51-2.34,6.82-4.49,9.71
			c-2.78,3.8-6.28,7.01-10.3,9.46l2.63-0.56l0,0L118.5,41.57z"/>
		<path class="st9" d="M112.88,48.31c-0.31-1.33-0.92-2.56-1.78-3.62c0.24,1.06,0.4,2.14,0.47,3.23c0.11,2.28,0.62,0.09,0.62,0.09
			S113.18,50.25,112.88,48.31z"/>
		<path class="st9" d="M107.21,48.89c0.4-1.58,1.2-3.02,2.32-4.2c-0.36,1.31-0.6,2.65-0.72,4c-0.23,2.9-0.78,0-0.78,0
			S106.75,51.31,107.21,48.89z"/>
		<path class="st12" d="M110.28,3.13c-3.96-0.42-7.95,0.34-11.47,2.2c-3.16,1.81-5.63,4.62-7,8c2.46-2.64,5.43-4.74,8.73-6.18
			c4.3-1.92,8.93-2.98,13.64-3.11l-2.55-0.82l0,0L110.28,3.13z"/>
		<path class="st13" d="M111.64,51.51"/>
		<path class="st13" d="M114.16,51.49"/>
	</g>
</g>
<g id="Layer_1">
	<g>
		<path class="st0" d="M185,93h-2.9c-0.3,0-0.5-0.2-0.5-0.5l0,0l-1.1-49.4h4l1.1,49.3C185.6,92.8,185.3,93,185,93L185,93z"/>
		<circle class="st14" cx="182.6" cy="23.3" r="21.8"/>
		
			<rect x="181.7" y="45.7" transform="matrix(0.9998 -0.0175 0.0175 0.9998 -1.1782 3.1941)" class="st2" width="1.4" height="46.8"/>
		<path class="st3" d="M192.2,42.1c-10.8,4.5-30.8-8.6-26-23.2c2.8-8.7,10-11.9,18.5-8.9c5.6,2,10.4,9.2,8.4,15.3
			c-1.4,4.3-8.4,9.5-14.7,4.4c-6.5-5.3-1.2-15.3,4.3-12.2c1.6,0.8,2.6,2.6,2.4,4.4c-0.9,4-5.3,1.2-2.7-0.9l0.3,0.1
			c-2.9-1.8-4.1,3.1-1.4,5c3.4,2.3,8.9-0.8,8.2-5.4s-4.1-6.7-7.3-7.8c-5.3-1.8-12.4,2.3-12.5,9.1c0.1,6,3.6,11.5,9.1,14
			c10,4.8,20.2-3.7,20.3-12.7c0.2-10.6-6.5-16.9-14.4-19.4c-10-3-20.9,3.9-23.2,13.1c-2.9,11.5,3.1,24,15.6,27.6
			C183.1,46.4,192.7,43.2,192.2,42.1z"/>
		<path class="st4" d="M192.5,43.9"/>
		<circle class="st15" cx="182.6" cy="23.3" r="21.8"/>
		<path class="st16" d="M183.9,48.3l5.2,8.9c0.1,0.1,0,0.3-0.1,0.3s-0.2,0-0.2,0l-5.4-2.5l-0.6-7.3L183.9,48.3z"/>
		<path class="st17" d="M181.3,48.4l-5.2,10.3c-0.1,0.1,0,0.3,0.1,0.3c0.1,0,0.2,0,0.2,0l5.3-2.5l0.7-8.8L181.3,48.4z"/>
		<path class="st17" d="M180.3,46.9l11,4.9c0.2,0.1,0.5,0,0.7-0.2c0-0.1,0-0.1,0-0.2c-0.3-1.5-0.6-2.9-0.7-4.4
			c0.2-1.5,0.4-3,0.7-4.4c0-0.3-0.2-0.5-0.5-0.5c-0.1,0-0.1,0-0.2,0L180.3,46.9z"/>
		<path class="st17" d="M182.9,46l-8.9-4c-0.3-0.1-0.5,0-0.7,0.3c0,0.1,0,0.1,0,0.2c0,0,0.5,3.3,0.5,4.4s-0.5,4.4-0.5,4.4
			c0,0.3,0.2,0.5,0.5,0.5c0.1,0,0.1,0,0.2,0l8.9-3.9c0.5-0.2,0.7-0.8,0.5-1.3C183.3,46.3,183.2,46.1,182.9,46z"/>
		<path class="st18" d="M186.8,46.1c-1.6,0-3.2,0.4-4.7,1.2c1.4,0,2.7,0.1,4.1,0.3c2.9,0.5,0.2-0.8,0.2-0.8S189.2,46.3,186.8,46.1z"
			/>
		<path class="st18" d="M178.7,47.7c1.6,0,3.2-0.5,4.6-1.3c-1.4,0-2.7,0-4.1-0.2c-2.9-0.4-0.1,0.8-0.1,0.8S176.2,47.6,178.7,47.7z"
			/>
		<path class="st17" d="M181.3,45h3.2c0.3,0,0.5,0.2,0.5,0.5v2.7c0,0.3-0.2,0.5-0.5,0.5h-3.2c-0.3,0-0.5-0.2-0.5-0.5v-2.7
			C180.8,45.3,181,45,181.3,45z"/>
		<path class="st19" d="M180,2.9c-3.3-0.4-6.6,0.5-9.4,2.3c-2.7,2-4.7,4.8-5.8,8c1.9-2.6,4.4-4.7,7.2-6.2c3.4-1.9,7.2-3,11.2-3.2
			L181.1,3l0,0L180,2.9z"/>
	</g>
</g>
<g id="Layer_5">
	<g>
		<path class="st0" d="M258.64,93h-3c-0.27,0.01-0.49-0.21-0.5-0.48c0,0,0-0.01,0-0.01l-1.05-49.37h4l1.07,49.34
			c0.01,0.28-0.22,0.51-0.5,0.52C258.66,93,258.65,93,258.64,93z"/>
		
			<rect x="255.34" y="45.73" transform="matrix(0.9998 -0.0175 0.0175 0.9998 -1.1672 4.4789)" class="st3" width="1.39" height="46.76"/>
		<path class="st13" d="M258.25,51.51"/>
		<path class="st13" d="M260.77,51.49"/>
		<circle class="st20" cx="255.25" cy="25.3" r="20.18"/>
		<path class="st21" d="M257.54,6.05c-3.79-0.42-7.63,0.31-11,2.1c-3.02,1.72-5.37,4.4-6.68,7.61c2.35-2.52,5.18-4.53,8.34-5.91
			c4.1-1.82,8.52-2.82,13-2.94l-2.37-0.78l0,0L257.54,6.05z"/>
		<path class="st22" d="M264.03,42.16"/>
		<path class="st23" d="M256.32,41.99c0,0,5.56-0.28,9.64-2.84c2.1-1.14,3.53-3.21,3.86-5.58c-1.59,2.05-3.65,3.7-6,4.79
			c-3.56,1.76-7.37,2.98-11.29,3.63l2.55,0.13l0,0L256.32,41.99z"/>
		<path class="st24" d="M275.92,29.5c0,0-12.42,2.76-19.62,2.76c-6.37,0-21.71-2.76-21.71-2.76c-0.58-0.08-1-0.61-0.94-1.2v-6
			c-0.06-0.59,0.36-1.11,0.94-1.19c6.72,1.96,13.66,3.03,20.66,3.2c7.01-0.04,13.98-1.12,20.67-3.2c0.58,0.08,0.99,0.61,0.93,1.19v6
			C276.91,28.88,276.5,29.41,275.92,29.5z"/>
		<path class="st23" d="M274.27,30.06c1.41-0.06,2.58-1.1,2.82-2.49c0.46-2.12-0.68-4.86-1-5.77c0.29,1.6,0.19,3.24-0.28,4.8
			c-0.49,1.53-1.66,2.74-3.17,3.27l1.17,0.28l0,0L274.27,30.06z"/>
	</g>
</g>
<g id="Layer_4">
	<g>
		<path class="st0" d="M330.56,93h-2.93c-0.27,0.01-0.49-0.21-0.5-0.48c0,0,0-0.01,0-0.01l-1.12-49.37h4l1.07,49.34
			c0.01,0.28-0.22,0.51-0.5,0.52C330.57,93,330.57,93,330.56,93z"/>
		<circle class="st25" cx="328.18" cy="23.31" r="21.82"/>
		
			<rect x="327.26" y="45.74" transform="matrix(0.9998 -0.0175 0.0175 0.9998 -1.1564 5.7308)" class="st2" width="1.02" height="46.76"/>
		<path class="st3" d="M337.73,42.12c-10.84,4.46-30.77-8.62-26-23.2c2.84-8.71,10-11.93,18.52-8.93
			c5.63,1.97,10.38,9.15,8.38,15.28c-1.36,4.3-8.41,9.46-14.74,4.35c-6.53-5.25-1.18-15.34,4.35-12.21
			c1.61,0.84,2.56,2.57,2.39,4.38c-0.94,4-5.26,1.23-2.69-0.85l0.28,0.15c-2.89-1.79-4.1,3.14-1.42,5c3.39,2.31,8.94-0.8,8.17-5.41
			s-4.06-6.74-7.3-7.81c-5.2-1.72-12.34,2.33-12.46,9.16c0.08,6.03,3.61,11.48,9.09,14c10,4.85,20.18-3.72,20.31-12.74
			c0.16-10.64-6.46-16.9-14.42-19.35c-9.94-3.06-20.87,3.9-23.17,13.08c-2.87,11.47,3.13,24,15.63,27.62
			C328.63,46.36,338.23,43.23,337.73,42.12z"/>
		<path class="st4" d="M338.05,43.91"/>
		<path class="st26" d="M337.03,41.57c3.64-1.61,6.73-4.26,8.85-7.63c1.83-3.13,2.57-6.78,2.1-10.37c-0.81,3.51-2.34,6.82-4.49,9.71
			c-2.78,3.8-6.28,7.01-10.3,9.46l2.63-0.56l0,0L337.03,41.57z"/>
		<circle class="st27" cx="328.18" cy="23.31" r="21.82"/>
		<path class="st28" d="M329.42,48.28l5.21,8.85c0.07,0.12,0.02,0.27-0.1,0.34c-0.07,0.04-0.15,0.04-0.22,0.01l-5.4-2.46l-0.62-7.37
			L329.42,48.28z"/>
		<path class="st29" d="M326.83,48.43l-5.2,10.29c-0.06,0.12-0.01,0.27,0.11,0.34c0.07,0.04,0.15,0.04,0.22,0l5.34-2.49l0.65-8.78
			L326.83,48.43z"/>
		<path class="st29" d="M325.83,46.88l11,4.86c0.24,0.12,0.54,0.01,0.65-0.23c0.03-0.07,0.05-0.14,0.05-0.22
			c-0.34-1.45-0.59-2.93-0.74-4.41c0.15-1.48,0.4-2.95,0.74-4.4c0-0.28-0.22-0.5-0.5-0.5c-0.07,0-0.14,0.01-0.2,0.04L325.83,46.88z"
			/>
		<path class="st29" d="M328.46,45.97l-8.94-3.95c-0.25-0.11-0.55,0.01-0.66,0.26c-0.03,0.06-0.04,0.13-0.04,0.2
			c0,0,0.49,3.3,0.49,4.4s-0.49,4.41-0.49,4.41c0,0.27,0.21,0.49,0.48,0.5c0.08,0,0.15-0.02,0.22-0.05l8.94-3.94
			c0.51-0.22,0.73-0.81,0.51-1.32C328.87,46.25,328.69,46.07,328.46,45.97z"/>
		<path class="st30" d="M332.31,46.08c-1.64-0.02-3.25,0.39-4.68,1.18c1.37-0.02,2.75,0.08,4.1,0.31c2.86,0.51,0.16-0.76,0.16-0.76
			S334.76,46.25,332.31,46.08z"/>
		<path class="st30" d="M324.21,47.69c1.62-0.04,3.21-0.49,4.6-1.32c-1.36,0.05-2.72-0.02-4.07-0.21c-2.87-0.42-0.14,0.77-0.14,0.77
			S321.75,47.57,324.21,47.69z"/>
		<path class="st29" d="M326.78,45.04h3.2c0.28,0,0.5,0.22,0.5,0.5v2.69c0,0.28-0.22,0.5-0.5,0.5h-3.2c-0.28,0-0.5-0.22-0.5-0.5
			v-2.69C326.28,45.26,326.5,45.04,326.78,45.04z"/>
		<path class="st10" d="M331.2,3.28c-4.44-0.46-8.93,0.26-13,2.11c-3.46,1.64-6.24,4.43-7.87,7.9c2.84-2.68,6.19-4.75,9.85-6.11
			c4.94-1.88,10.17-2.88,15.45-2.95l-2.9-0.85l0,0L331.2,3.28z"/>
	</g>
</g>
</svg>
