<?xml version="1.0" encoding="utf-8"?>
<!-- Generator: Adobe Illustrator 24.0.1, SVG Export Plug-In . SVG Version: 6.00 Build 0)  -->
<svg version="1.1" id="Layer_2" xmlns="http://www.w3.org/2000/svg" xmlns:xlink="http://www.w3.org/1999/xlink" x="0px" y="0px"
	 viewBox="0 0 288 288" style="enable-background:new 0 0 288 288;" xml:space="preserve">
<style type="text/css">
	.st0{clip-path:url(#SVGID_2_);}
	.st1{fill:#D6D2BE;}
	.st2{fill:#BFB79F;}
	.st3{fill:#FBD433;}
	.st4{fill:#EEECDE;}
	.st5{fill:#E7E2D4;}
	.st6{fill:#FBF9EF;}
	.st7{fill:#EEC92F;}
	.st8{fill:#E9C734;}
	.st9{fill:#69C2C8;}
	.st10{fill:#64BABC;}
	.st11{fill:#61B5B7;}
	.st12{fill:#FEF5CE;}
	.st13{fill:#FEFEFB;}
	.st14{fill:#63B8BB;}
	.st15{fill:#E9C52E;}
	.st16{fill:#DBF0F2;}
	.st17{fill:#E4E1D4;}
	.st18{fill:#CEC9B3;}
	.st19{fill:#DEDBC9;}
	.st20{fill:#E3D38F;}
	.st21{fill:#DCCE8D;}
	.st22{fill:#D5D0C0;}
	.st23{fill:#C7C0AA;}
	.st24{fill:#CFC9B4;}
	.st25{fill:#D3C17A;}
	.st26{fill:#CDBC78;}
	.st27{fill:#FCFBF4;}
	.st28{fill:#F7F5E9;}
	.st29{fill:#FBECAF;}
	.st30{fill:#F5E7AD;}
	.st31{fill:#84CA97;}
	.st32{fill:#7EBD8B;}
	.st33{fill:#C9E5CA;}
	.st34{fill:#81C592;}
	.st35{fill:#7BBA8A;}
	.st36{fill:#8FD4D6;}
	.st37{fill:#BFB79E;}
	.st38{fill:#E7E2D3;}
	.st39{fill:#ED4C64;}
	.st40{fill:#DC4B66;}
	.st41{fill:#F28895;}
	.st42{fill:#DE4A65;}
	.st43{fill:#F3A8B8;}
	.st44{fill:#E0A2B2;}
	.st45{fill:#DD4C67;}
	.st46{fill:#D34862;}
	.st47{fill:#FFFFFF;}
</style>
<g>
	<defs>
		<rect id="SVGID_1_" width="288" height="288"/>
	</defs>
	<clipPath id="SVGID_2_">
		<use xlink:href="#SVGID_1_"  style="overflow:visible;"/>
	</clipPath>
	<g class="st0">
		<path class="st1" d="M256.7,85.2l7,1.9c0.7,0.2,1,0.8,0.9,1.5l0,0l-30.1,119.2l-9.6-2.7l30.2-119.1C255.3,85.4,256,85,256.7,85.2
			L256.7,85.2"/>
		<path class="st2" d="M256.7,85.2l-0.4,1.3l7,1.9l0,0l0-0.1h-0.1l0.1,0.1l0-0.1h-0.1h0.1l-0.1,0l0,0h0.1l-0.1,0l1.3,0.3l-1.3-0.4
			l0,0l0,0l-29.8,117.9l-7-1.9l29.9-117.8l0,0l-0.1,0v0.1l0.1-0.1l-0.1,0v0.1v-0.1l0,0.1l0,0v-0.1l0,0.1L256.7,85.2l-0.4,1.3l0,0
			l0,0L256.7,85.2l0.4-1.3l0,0l0,0l0,0c-0.2-0.1-0.4-0.1-0.7-0.1c-1.2,0-2.2,0.8-2.5,2l-30.5,120.4l12.2,3.4L265.9,89l0,0l0,0l0,0
			c0.1-0.2,0.1-0.4,0.1-0.6c0-1.2-0.8-2.2-1.9-2.5l-0.3,1.3l0.4-1.3l-7-1.9l0,0L256.7,85.2"/>
		<path class="st3" d="M201.6,306.4c-28.9-8-45.9-37.9-37.9-66.9c8-28.9,37.9-45.9,66.9-37.9c28.9,8,45.9,37.9,37.9,66.9
			C260.5,297.4,230.6,314.4,201.6,306.4"/>
		<polyline class="st4" points="259.9,87.5 230.9,200.1 234.2,201 262.1,93.1 263.3,88.4 259.9,87.5 		"/>
		<polyline class="st5" points="260,87.4 259.9,87.5 263.3,88.4 262.1,93.1 263.3,88.3 260,87.4 		"/>
		<path class="st6" d="M205.7,202.5c29-3.5,68.1,41.1,47,72.9c-12.6,19-31.9,22-50.4,9.1c-12.2-8.5-18.8-28.9-10-42.2
			c6.1-9.4,26.5-17.1,38.3-0.7c12.2,16.9-7.4,37.6-18.5,26.4c-3.3-3.1-4.4-7.9-2.8-12.1c4.9-9,13.4,0.5,5.9,3.8l-0.6-0.5
			c5.7,6.2,11.9-4.8,6.7-11.1c-6.6-7.8-22-4-23.2,7.6c-1.2,11.6,5.3,18.9,12.3,23.6c11.3,7.6,31.2,2.6,36-13.7
			c3.8-14.5-1.1-29.9-12.5-39.6c-20.8-18.3-50.9-4.5-57.2,17.1c-7.5,25.4,4.3,44.8,21.8,56c21.8,13.9,52.7,4.5,64.3-16
			c14.5-25.6,8.4-59.7-19.2-76.7C230.4,198.4,205.2,199.5,205.7,202.5"/>
		<path class="st7" d="M210.3,203.7l-3.3,0.7c-9.8,1.4-19,5.8-26.3,12.4c-6.5,6.3-10.7,14.6-11.9,23.5c4.3-7.9,10.1-14.8,17.2-20.3
			c9.2-7.3,19.7-12.7,31-15.9L210.3,203.7"/>
		<path class="st8" d="M201.6,306.4l0.3-1.2c-23.5-6.5-38.9-27.9-38.9-51.1c0-4.7,0.6-9.5,1.9-14.2c6.5-23.5,27.9-38.9,51.1-38.9
			c4.7,0,9.4,0.6,14.2,1.9c23.5,6.5,38.9,27.9,38.9,51.1c0,4.7-0.6,9.5-1.9,14.2c-6.5,23.5-27.9,38.9-51.1,38.9
			c-4.7,0-9.5-0.6-14.2-1.9L201.6,306.4l-0.3,1.2c5,1.4,9.9,2,14.9,2c24.4,0,46.7-16.1,53.5-40.8c1.4-5,2-9.9,2-14.9
			c0-24.4-16.1-46.7-40.8-53.5c-5-1.4-9.9-2-14.9-2c-24.4,0-46.7,16.1-53.5,40.8c-1.4,5-2,9.9-2,14.9c0,24.4,16.1,46.7,40.8,53.5
			L201.6,306.4"/>
		<path class="st9" d="M229.7,193.3l-6.6-24.7c-0.1-0.3,0.1-0.7,0.5-0.8c0.2,0,0.4,0,0.5,0.1l11.3,9.5l-3.4,18.1L229.7,193.3z"/>
		<path class="st10" d="M229.7,193.3l0.9-0.2l-6.6-24.7l-0.9,0.2l0.9-0.2l-0.3,0.1l0.3,0l0-0.1l-0.3,0.1l0.3,0h-0.3l0.1,0.3
			c0.1,0,0.2-0.2,0.2-0.3h-0.3l0.1,0.3l0,0l-0.1-0.3l0,0.3l0.1,0l-0.1-0.3l0,0.3v-0.3l-0.2,0.2l0.2,0.1v-0.3l-0.2,0.2l0,0l10.9,9.1
			l-3,15.8l-1-1L229.7,193.3l0.9-0.2L229.7,193.3l-0.7,0.7l3.6,3.5l3.8-20.4l-11.8-9.8l0,0c-0.3-0.2-0.6-0.4-1-0.4
			c-0.1,0-0.2,0-0.4,0l0,0l0,0c-0.7,0.2-1.2,0.8-1.2,1.5c0,0.1,0,0.2,0,0.4l0,0l6.7,25l0.2,0.2L229.7,193.3z"/>
		<path class="st9" d="M236,194.6l19.3-21.2c0.2-0.3,0.2-0.6,0-0.9c-0.1-0.1-0.3-0.2-0.5-0.2l-14.5,2.4l-7.4,20.6L236,194.6z"/>
		<path class="st10" d="M236,194.6l0.7,0.6l19.3-21.2l0,0c0.3-0.3,0.4-0.7,0.4-1.1c0-0.4-0.2-0.8-0.5-1.1l0,0
			c-0.3-0.3-0.7-0.4-1.1-0.4c-0.1,0-0.2,0-0.3,0l0.2,0.9l-0.2-0.9l-15,2.5l-8.2,22.8l5.1-1.3l0.2-0.2L236,194.6l-0.2-0.9l-1.4,0.4
			l6.6-18.5l13.9-2.3l0,0l-0.1-0.3v0.3l0.1,0l-0.1-0.3v0.3V173l-0.2,0.2l0.2,0.1V173l-0.2,0.2l0,0l0.2-0.2h-0.3l0.1,0.2l0.2-0.2
			h-0.3h0.3l-0.2-0.2l-0.1,0.2h0.3l-0.2-0.2l0,0L235.4,194L236,194.6l-0.2-0.9L236,194.6z"/>
		<path class="st9" d="M237.4,199l-23.2-19c-0.5-0.4-1.3-0.4-1.7,0.1c-0.1,0.1-0.2,0.3-0.3,0.5c-0.1,3.7-0.5,7.4-1.2,11.1
			c-1.3,3.5-2.9,6.8-4.7,10.1c-0.2,0.7,0.2,1.3,0.9,1.5c0.2,0,0.3,0.1,0.5,0L237.4,199z"/>
		<path class="st10" d="M237.4,199l0.6-0.7l-23.2-19l-0.6,0.7l0.6-0.7c-0.4-0.4-0.9-0.5-1.4-0.5c-0.6,0-1.2,0.3-1.6,0.7l0,0
			c-0.2,0.3-0.4,0.5-0.5,0.9l0,0.1l0,0.1c-0.1,3.7-0.5,7.3-1.1,11l0.9,0.2l-0.9-0.3c-1.3,3.4-2.9,6.7-4.6,10l-0.1,0.1l0,0.1
			c-0.1,0.2-0.1,0.4-0.1,0.6c0,1,0.6,1.8,1.6,2.1l0,0c0.2,0.1,0.4,0.1,0.6,0.1c0.1,0,0.2,0,0.3,0l0,0l31.7-4.7l-1.6-1.3L237.4,199
			l-0.1-0.9l-29.6,4.4l0,0l0,0l-0.1,0l0,0c-0.1,0-0.2-0.2-0.2-0.3l0-0.1l-0.9-0.3l0.8,0.4c1.8-3.3,3.4-6.7,4.7-10.2l0-0.1l0-0.1
			c0.6-3.7,1-7.4,1.2-11.2l-0.9,0l0.9,0.2l0.1-0.1l0,0l0.2-0.1l0.2,0.1l0,0l23.2,19L237.4,199l-0.1-0.9L237.4,199z"/>
		<path class="st9" d="M230.5,199.4l18.8,15.4c0.5,0.4,1.3,0.4,1.8-0.2c0.1-0.1,0.2-0.3,0.2-0.5c0,0,1-8.2,1.7-10.9
			c0.7-2.6,4.1-10.3,4.1-10.3c0.2-0.6-0.2-1.3-0.8-1.5c-0.2-0.1-0.4-0.1-0.6,0l-24.1,3.5c-1.4,0.2-2.3,1.5-2.1,2.8
			C229.7,198.5,230,199,230.5,199.4z"/>
		<path class="st10" d="M230.5,199.4l-0.6,0.7l18.8,15.4l0,0c0.4,0.3,0.9,0.5,1.4,0.5c0.6,0,1.3-0.3,1.7-0.8l0,0
			c0.2-0.2,0.3-0.5,0.4-0.8l0-0.1l0-0.1c0,0,0.1-0.5,0.2-1.3c0.2-1.2,0.4-3.1,0.7-4.9c0.3-1.8,0.6-3.6,0.9-4.5
			c0.2-0.6,0.5-1.6,0.9-2.6c0.6-1.6,1.4-3.5,2-5c0.3-0.7,0.6-1.4,0.8-1.8c0.2-0.5,0.3-0.7,0.3-0.7l0-0.1l0-0.1
			c0.1-0.2,0.1-0.4,0.1-0.6c0-0.9-0.6-1.8-1.5-2.1l0,0c-0.2-0.1-0.4-0.1-0.6-0.1c-0.1,0-0.2,0-0.4,0l0.2,0.9l-0.1-0.9l-24.1,3.5
			c-1.7,0.3-2.9,1.7-2.9,3.4c0,0.2,0,0.3,0,0.5l0,0c0.1,0.8,0.6,1.6,1.2,2.2l0,0L230.5,199.4l0.6-0.7c-0.3-0.2-0.5-0.6-0.6-1l0,0
			l0-0.2c0-0.8,0.6-1.4,1.3-1.5l24.1-3.5l0,0l0,0l0.1,0l0,0l0,0c0.1,0,0.2,0.2,0.2,0.3l0,0.1l0.9,0.3l-0.9-0.4c0,0-0.8,1.9-1.8,4.2
			c-0.5,1.1-1,2.3-1.4,3.4c-0.4,1.1-0.8,2.1-1,2.8c-0.2,0.7-0.4,1.7-0.6,2.9c-0.6,3.5-1.2,8.1-1.2,8.1l0.9,0.1l-0.9-0.2l-0.1,0.1
			l0,0c-0.1,0.1-0.1,0.1-0.2,0.1l-0.2-0.1l0,0l-18.9-15.4l0,0L230.5,199.4z"/>
		<path class="st11" d="M221.3,196.6c3.9,1.1,8.1,1.2,12,0.3c-3.3-0.9-6.5-2-9.6-3.5c-6.5-3.1-0.9,1.7-0.9,1.7
			S215.6,194.6,221.3,196.6z"/>
		<path class="st11" d="M241.8,198.1c-3.9-1-8-0.9-11.9,0.1c3.3,0.8,6.5,1.9,9.6,3.2c6.6,2.9,0.8-1.8,0.8-1.8
			S247.7,200.1,241.8,198.1z"/>
		<path class="st9" d="M233.9,202.8l-7.7-2.1c-0.7-0.2-1.1-0.9-0.9-1.5l1.8-6.5c0.2-0.7,0.9-1.1,1.5-0.9l7.7,2.1
			c0.7,0.2,1.1,0.9,0.9,1.5l-1.8,6.5C235.3,202.6,234.6,203,233.9,202.8z"/>
		<path class="st10" d="M233.9,202.8l0.2-0.9l-7.7-2.1c-0.1,0-0.2-0.2-0.2-0.3l0-0.1l0,0l1.8-6.5c0-0.1,0.2-0.2,0.3-0.2l0.1,0
			l7.7,2.1c0.1,0,0.2,0.2,0.2,0.3l0,0.1l-1.8,6.5l0,0c0,0.1-0.2,0.2-0.3,0.2l-0.1,0L233.9,202.8l-0.2,0.9c0.2,0.1,0.4,0.1,0.6,0.1
			c1,0,1.8-0.6,2.1-1.6l0,0l1.8-6.5l0,0c0.1-0.2,0.1-0.4,0.1-0.6c0-1-0.6-1.8-1.6-2.1l-7.7-2.1c-0.2-0.1-0.4-0.1-0.6-0.1
			c-1,0-1.8,0.6-2.1,1.6l-1.8,6.5l0,0c-0.1,0.2-0.1,0.4-0.1,0.6c0,1,0.6,1.8,1.6,2.1l7.7,2.1L233.9,202.8z"/>
		<path class="st12" d="M185.6,294.9l6.4,4l3.6,1.3c3.8,1.5,7.6,2.6,11.6,3.3c-3-1-5.9-2.4-8.7-4.2c-1.1-0.7-2.2-1.5-3.3-2.2
			C191.9,296.4,188.7,295.7,185.6,294.9"/>
		<path class="st13" d="M252.3,289.9c-8.6,4.5-18,7.3-27.7,8.1c-3.5,0.3-7,0.5-10.5,0.5c-6.3,0-12.7-0.5-18.9-1.6
			c1.1,0.8,2.2,1.5,3.3,2.2c2.8,1.8,5.7,3.2,8.7,4.2c3.7,0.7,7.5,1,11.3,1c3.2,0,6.5-0.3,9.7-0.8C237.6,302,246.1,297.2,252.3,289.9
			"/>
		<path class="st1" d="M256.7-202.8l7,1.9c0.7,0.2,1,0.8,0.9,1.5l0,0L234.5-80.1l-9.6-2.7l30.2-119.1
			C255.3-202.6,256-203,256.7-202.8L256.7-202.8"/>
		<path class="st2" d="M256.7-202.8l-0.4,1.3l7,1.9l0,0l0-0.1h-0.1l0.1,0.1l0-0.1h-0.1h0.1l-0.1,0l0,0h0.1l-0.1,0l1.3,0.3l-1.3-0.4
			l0,0l0,0L233.5-81.8l-7-1.9l29.9-117.8l0,0l-0.1,0v0.1l0.1-0.1l-0.1,0v0.1v-0.1l0,0.1l0,0v-0.1l0,0.1L256.7-202.8l-0.4,1.3l0,0
			l0,0L256.7-202.8l0.4-1.3l0,0l0,0l0,0c-0.2-0.1-0.4-0.1-0.7-0.1c-1.2,0-2.2,0.8-2.5,2L223.3-81.8l12.2,3.4L265.9-199l0,0l0,0l0,0
			c0.1-0.2,0.1-0.4,0.1-0.6c0-1.2-0.8-2.2-1.9-2.5l-0.3,1.3l0.4-1.3l-7-1.9l0,0L256.7-202.8"/>
		<path class="st3" d="M201.6,18.4c-28.9-8-45.9-37.9-37.9-66.9c8-28.9,37.9-45.9,66.9-37.9c28.9,8,45.9,37.9,37.9,66.9
			C260.5,9.4,230.6,26.4,201.6,18.4"/>
		<polyline class="st4" points="259.9,-200.5 230.9,-87.8 234.2,-87 262.1,-194.9 263.3,-199.6 259.9,-200.5 		"/>
		<polyline class="st5" points="260,-200.6 259.9,-200.5 263.3,-199.6 262.1,-194.9 263.3,-199.7 260,-200.6 		"/>
		<path class="st6" d="M205.7-85.5c29-3.5,68.1,41.1,47,72.9c-12.6,19-31.9,22-50.4,9.1c-12.2-8.5-18.8-28.9-10-42.2
			c6.1-9.4,26.5-17.1,38.3-0.7c12.2,16.9-7.4,37.6-18.5,26.4c-3.3-3.1-4.4-7.9-2.8-12.1c4.9-9,13.4,0.5,5.9,3.8l-0.6-0.5
			c5.7,6.2,11.9-4.8,6.7-11.1c-6.6-7.8-22-4-23.2,7.6c-1.2,11.6,5.3,18.9,12.3,23.6c11.3,7.6,31.2,2.6,36-13.7
			c3.8-14.5-1.1-29.9-12.5-39.6c-20.8-18.3-50.9-4.5-57.2,17.1c-7.5,25.4,4.3,44.9,21.8,56c21.8,13.9,52.7,4.5,64.3-16
			c14.5-25.6,8.4-59.7-19.2-76.7C230.4-89.6,205.2-88.4,205.7-85.5"/>
		<path class="st7" d="M210.3-84.3l-3.3,0.7c-9.8,1.4-19,5.8-26.3,12.4c-6.5,6.3-10.7,14.6-11.9,23.5c4.3-7.9,10.1-14.8,17.2-20.3
			c9.2-7.3,19.7-12.7,31-15.9L210.3-84.3"/>
		<path class="st8" d="M201.6,18.4l0.3-1.2C178.4,10.7,163-10.7,163-33.9c0-4.7,0.6-9.4,1.9-14.2c6.5-23.5,27.9-38.9,51.1-38.9
			c4.7,0,9.4,0.6,14.2,1.9c23.5,6.5,38.9,27.9,38.9,51.1c0,4.7-0.6,9.5-1.9,14.2c-6.5,23.5-27.9,38.9-51.1,38.9
			c-4.7,0-9.5-0.6-14.2-1.9L201.6,18.4l-0.3,1.2c5,1.4,9.9,2,14.9,2c24.4,0,46.7-16.1,53.5-40.8c1.4-5,2-9.9,2-14.9
			c0-24.4-16.1-46.7-40.8-53.5c-5-1.4-9.9-2-14.9-2c-24.4,0-46.7,16.1-53.5,40.8c-1.4,5-2,9.9-2,14.9c0,24.4,16.1,46.7,40.8,53.5
			L201.6,18.4"/>
		<path class="st9" d="M229.7-94.7l-6.6-24.7c-0.1-0.3,0.1-0.7,0.5-0.8c0.2,0,0.4,0,0.5,0.1l11.3,9.5L232-92.5L229.7-94.7z"/>
		<path class="st10" d="M229.7-94.7l0.9-0.2l-6.6-24.7l-0.9,0.2l0.9-0.2l-0.3,0.1l0.3,0l0-0.1l-0.3,0.1l0.3,0h-0.3l0.1,0.3
			c0.1,0,0.2-0.2,0.2-0.3h-0.3l0.1,0.3l0,0l-0.1-0.3l0,0.3l0.1,0l-0.1-0.3l0,0.3v-0.3l-0.2,0.2l0.2,0.1v-0.3l-0.2,0.2l0.6-0.7
			l-0.6,0.7l10.9,9.1l-3,15.8l-1-1L229.7-94.7l0.9-0.2L229.7-94.7l-0.7,0.7l3.6,3.5l3.8-20.4l-11.8-9.8l0,0c-0.3-0.2-0.6-0.4-1-0.4
			c-0.1,0-0.2,0-0.4,0l0,0c-0.7,0.2-1.2,0.8-1.2,1.5c0,0.1,0,0.2,0,0.4l0,0l6.7,25l0.2,0.2L229.7-94.7z"/>
		<path class="st9" d="M236-93.4l19.3-21.2c0.2-0.3,0.2-0.6,0-0.9c-0.1-0.1-0.3-0.2-0.5-0.2l-14.5,2.4l-7.4,20.6L236-93.4z"/>
		<path class="st10" d="M236-93.4l0.7,0.6l19.3-21.2l0,0c0.3-0.3,0.4-0.7,0.4-1.1c0-0.4-0.2-0.8-0.5-1.1l0,0
			c-0.3-0.3-0.7-0.4-1.1-0.4c-0.1,0-0.2,0-0.3,0l0,0l-15,2.5l-8.2,22.8l5.1-1.3l0.2-0.2L236-93.4l-0.2-0.9l-1.4,0.4l6.6-18.5
			l13.9-2.3l0,0l-0.1-0.3v0.3l0.1,0l-0.1-0.3v0.3v-0.3l-0.2,0.2l0.2,0.1v-0.3l-0.2,0.2l0,0l0.2-0.2l-0.3,0l0.1,0.2l0.2-0.2l-0.3,0
			h0.3l-0.2-0.2l-0.1,0.2h0.3l-0.2-0.2l0,0L235.4-94L236-93.4l-0.2-0.9L236-93.4z"/>
		<path class="st9" d="M237.4-89l-23.2-19c-0.5-0.4-1.3-0.4-1.7,0.1c-0.1,0.1-0.2,0.3-0.3,0.5c-0.1,3.7-0.5,7.4-1.2,11.1
			c-1.3,3.5-2.9,6.8-4.7,10.1c-0.2,0.7,0.2,1.3,0.9,1.5c0.2,0,0.3,0.1,0.5,0L237.4-89z"/>
		<path class="st10" d="M237.4-89l0.6-0.7l-23.2-19l-0.6,0.7l0.6-0.7c-0.4-0.4-0.9-0.5-1.4-0.5c-0.6,0-1.2,0.3-1.6,0.7l0,0
			c-0.2,0.3-0.4,0.6-0.5,0.9l0,0.1l0,0.1c-0.1,3.7-0.5,7.3-1.1,11l0.9,0.2l-0.9-0.3c-1.3,3.4-2.9,6.7-4.6,10l-0.1,0.1l0,0.1
			c-0.1,0.2-0.1,0.4-0.1,0.6c0,1,0.6,1.8,1.6,2.1l0,0c0.2,0.1,0.4,0.1,0.6,0.1c0.1,0,0.2,0,0.3,0l0,0l31.7-4.7l-1.6-1.3L237.4-89
			l-0.1-0.9l-29.6,4.4l0,0l0,0l-0.1,0l0,0c-0.1,0-0.2-0.2-0.2-0.3l0-0.1l-0.9-0.3l0.8,0.4c1.8-3.3,3.4-6.7,4.7-10.2l0-0.1l0-0.1
			c0.6-3.7,1-7.4,1.2-11.2l-0.9,0l0.9,0.2l0.1-0.1l0,0l0,0l0.2-0.1l0.2,0.1l0,0l23.2,19L237.4-89l-0.1-0.9L237.4-89z"/>
		<path class="st9" d="M230.5-88.5l18.8,15.4c0.5,0.4,1.3,0.4,1.8-0.2c0.1-0.1,0.2-0.3,0.2-0.5c0,0,1-8.2,1.7-10.9
			c0.7-2.6,4.1-10.3,4.1-10.3c0.2-0.6-0.2-1.3-0.8-1.5c-0.2-0.1-0.4-0.1-0.6,0l-24.1,3.5c-1.4,0.2-2.3,1.5-2.1,2.8
			C229.7-89.5,230-88.9,230.5-88.5z"/>
		<path class="st10" d="M230.5-88.5l-0.6,0.7l18.8,15.4l0,0c0.4,0.3,0.9,0.5,1.4,0.5c0.6,0,1.3-0.3,1.7-0.8l0,0
			c0.2-0.2,0.3-0.5,0.4-0.8l0-0.1l0-0.1c0,0,0.1-0.5,0.2-1.3c0.2-1.2,0.4-3.1,0.7-4.9c0.3-1.8,0.6-3.6,0.9-4.5
			c0.2-0.6,0.5-1.6,0.9-2.6c0.6-1.6,1.4-3.5,2-5c0.3-0.7,0.6-1.4,0.8-1.8s0.3-0.7,0.3-0.7l0-0.1l0-0.1c0.1-0.2,0.1-0.4,0.1-0.6
			c0-0.9-0.6-1.8-1.5-2.1l0,0c-0.2-0.1-0.4-0.1-0.6-0.1c-0.1,0-0.2,0-0.4,0l0.2,0.9l-0.1-0.9l-24.1,3.5c-1.7,0.3-2.9,1.7-2.9,3.4
			c0,0.2,0,0.3,0,0.5c0.1,0.8,0.6,1.6,1.2,2.2L230.5-88.5l0.6-0.7c-0.3-0.2-0.5-0.6-0.6-1l0-0.2c0-0.8,0.6-1.4,1.3-1.5l24.1-3.5l0,0
			l0,0l0.1,0l0,0c0.1,0,0.2,0.2,0.2,0.3l0,0.1l0.9,0.3l-0.9-0.4c0,0-0.8,1.9-1.8,4.2c-0.5,1.1-1,2.3-1.4,3.4c-0.4,1.1-0.8,2.1-1,2.8
			c-0.2,0.7-0.4,1.7-0.6,2.9c-0.6,3.5-1.2,8.1-1.2,8.1l0.9,0.1l-0.9-0.2l-0.1,0.1l0,0c-0.1,0.1-0.1,0.1-0.2,0.1l-0.2-0.1l0,0
			l-18.8-15.4L230.5-88.5z"/>
		<path class="st11" d="M221.3-91.4c3.9,1.1,8.1,1.2,12,0.3c-3.3-0.9-6.5-2-9.6-3.5c-6.5-3.1-0.9,1.7-0.9,1.7S215.6-93.4,221.3-91.4
			z"/>
		<path class="st11" d="M241.8-89.8c-3.9-1-8-0.9-11.9,0.1c3.3,0.8,6.5,1.9,9.6,3.2c6.6,2.9,0.8-1.8,0.8-1.8S247.7-87.9,241.8-89.8z
			"/>
		<path class="st9" d="M233.9-85.2l-7.7-2.1c-0.7-0.2-1.1-0.9-0.9-1.5l1.8-6.5c0.2-0.7,0.9-1.1,1.5-0.9l7.7,2.1
			c0.7,0.2,1.1,0.9,0.9,1.5l-1.8,6.5C235.3-85.4,234.6-85,233.9-85.2z"/>
		<path class="st10" d="M233.9-85.2l0.2-0.9l-7.7-2.1c-0.1,0-0.2-0.2-0.2-0.3l0-0.1l1.8-6.5c0-0.1,0.2-0.2,0.3-0.2l0.1,0l7.7,2.1
			c0.1,0,0.2,0.2,0.2,0.3l0,0.1l-1.8,6.5c0,0.1-0.2,0.2-0.3,0.2l-0.1,0L233.9-85.2l-0.2,0.9c0.2,0.1,0.4,0.1,0.6,0.1
			c1,0,1.8-0.6,2.1-1.6l1.8-6.5c0.1-0.2,0.1-0.4,0.1-0.6c0-1-0.6-1.8-1.6-2.1l-7.7-2.1c-0.2-0.1-0.4-0.1-0.6-0.1
			c-1,0-1.8,0.6-2.1,1.6l-1.8,6.5c-0.1,0.2-0.1,0.4-0.1,0.6c0,1,0.6,1.8,1.6,2.1l7.7,2.1L233.9-85.2z"/>
		<path class="st12" d="M185.6,6.9l6.4,4l3.6,1.3c3.8,1.5,7.6,2.6,11.6,3.3c-3-1-5.9-2.4-8.7-4.2c-1.1-0.7-2.2-1.5-3.3-2.2
			C191.9,8.4,188.7,7.7,185.6,6.9"/>
		<path class="st13" d="M252.3,1.9c-8.6,4.5-18,7.3-27.7,8.1c-3.5,0.3-7,0.5-10.5,0.5c-6.3,0-12.7-0.5-18.9-1.6
			c1.1,0.8,2.2,1.5,3.3,2.2c2.8,1.8,5.7,3.2,8.7,4.2c3.7,0.7,7.5,1,11.3,1c3.2,0,6.5-0.3,9.7-0.8C237.6,14,246.1,9.2,252.3,1.9"/>
		<path class="st1" d="M108.6,243.4l-6.8,2.8c-0.6,0.3-1.3,0-1.6-0.6l0,0L49.7,132.9l9.2-3.9l50.4,112.6
			C109.6,242.3,109.3,243.1,108.6,243.4L108.6,243.4"/>
		<path class="st2" d="M108.6,243.4l-0.5-1.3l-6.8,2.9l0,0l0.1,0.1v-0.1l-0.1,0l0.1,0.1v-0.1v0.1l0.1-0.1l-0.1-0.1v0.1l0.1-0.1l0,0
			l0,0l0,0l-50-111.4l6.7-2.8L108,242.2l0,0l0.1,0H108l0,0l0.1,0H108h0.1l0-0.1l-0.1,0.1h0.1l0-0.1L108.6,243.4l-0.5-1.3l0,0l0,0
			L108.6,243.4l0.5,1.3l0,0l0,0l0,0c1-0.4,1.6-1.4,1.6-2.4c0-0.4-0.1-0.7-0.2-1.1l0,0L59.6,127.3l-11.7,4.9L99,246.1l0,0l0,0l0,0
			l0,0c0.4,1,1.4,1.5,2.4,1.5c0.4,0,0.7-0.1,1.1-0.2l-0.6-1.2l0.5,1.3l6.8-2.8l0,0L108.6,243.4"/>
		<path class="st9" d="M14.3,34.9C42,23.2,74,36.2,85.7,63.9c11.7,27.8-1.3,59.8-29.1,71.5c-27.8,11.7-59.8-1.3-71.5-29.1
			C-26.5,78.5-13.5,46.6,14.3,34.9"/>
		<path class="st4" d="M74.6,178l-1.7,2.4l26.6,60.1l2,4.4l2.3-1L74.6,178 M56.5,137.1l-2.3,1l13.8,31.2l1.7-2.4l-11.3-25.6
			l-0.7-1.3l0.1,0L56.5,137.1"/>
		<polyline class="st5" points="99.4,240.5 101.4,245 103.8,244 103.7,243.9 101.4,244.9 99.4,240.5 		"/>
		<path class="st6" d="M75.7,119.2C55.1,140-3.5,129.2-6.7,91c-1.9-22.8,11.5-37.2,34-38.6c14.9-0.9,32.8,11,34.1,27.1
			c1,11.2-10.2,30-29.7,24.3c-20.1-5.8-17.6-34.2-1.8-32.4c4.5,0.4,8.4,3.4,9.8,7.8c1.7,10.1-10.9,7.9-7,0.7l0.8,0.1
			C25,78.7,27,91.2,35,92.9c10.1,2,19.8-10.5,13.6-20.4c-6.2-9.9-15.9-11.6-24.4-10.9C10.5,62.7-2,78.9,4.3,94.8
			c6,13.8,19.5,22.9,34.5,23.4c27.7,1.5,42.9-28.2,34.4-49.1c-10-24.7-31.3-32.7-52-30.6C-4.6,41.1-23,67.8-19.4,91.2
			c4.5,29.2,30.5,52.2,62.8,48.5C58.9,137.8,77.9,121.3,75.7,119.2"/>
		<path class="st14" d="M81.3,66.5c1.6,8.9,1.2,18-0.9,26.7c-2.7,11.4-7.7,22.3-14.5,31.8l5.5-3.8l2.2-2.6
			c6.8-7.2,11.4-16.3,13-26.2C87.7,83.4,85.9,74.3,81.3,66.5"/>
		<path class="st11" d="M14.3,34.9l0.5,1.2c6.8-2.9,13.8-4.2,20.7-4.2c20.8,0,40.6,12.2,49.1,32.6c2.9,6.8,4.2,13.8,4.2,20.7
			c0,20.8-12.2,40.6-32.6,49.1c-6.8,2.9-13.8,4.2-20.7,4.2c-20.8,0-40.6-12.2-49.1-32.6c-2.9-6.8-4.2-13.8-4.2-20.7
			c0-20.8,12.2-40.6,32.6-49.1L14.3,34.9l-0.5-1.2c-21.3,9-34.1,29.7-34.1,51.4c0,7.2,1.4,14.6,4.4,21.6c9,21.3,29.7,34.1,51.4,34.1
			c7.2,0,14.6-1.4,21.6-4.4c21.3-9,34.1-29.7,34.1-51.4c0-7.2-1.4-14.6-4.4-21.6c-9-21.3-29.7-34.1-51.4-34.1
			c-7.2,0-14.6,1.4-21.6,4.4L14.3,34.9"/>
		<path class="st3" d="M62.5,141.4l20.6,15.3c0.3,0.2,0.3,0.6,0.1,0.9c-0.1,0.2-0.3,0.2-0.5,0.2l-14.8-0.4l-8.6-16.4L62.5,141.4"/>
		<path class="st15" d="M62.5,141.4l-0.6,0.8l20.6,15.3l0.6-0.8l-0.6,0.7l0.2-0.3l-0.3,0c0,0.1,0,0.2,0.1,0.3l0.2-0.3l-0.3,0h0.3
			l-0.3-0.2l-0.1,0.2h0.3l-0.3-0.2l0,0l0,0l0.3,0.2v-0.3c-0.1,0-0.2,0-0.3,0.1l0.3,0.2v-0.3h0l0,1l0-0.9l-14.3-0.4L61,142.2l1.4,0.2
			L62.5,141.4l-0.6,0.8L62.5,141.4l0.1-0.9l-5-0.6l9.7,18.5l15.4,0.4h0l0,0c0.5,0,0.9-0.2,1.2-0.6l0,0c0.2-0.3,0.3-0.6,0.3-1
			c0-0.5-0.2-0.9-0.6-1.2l0,0l-20.8-15.5l-0.3,0L62.5,141.4"/>
		<path class="st3" d="M56.7,144.3l-2,28.8c0,0.3,0.2,0.6,0.6,0.7c0.2,0,0.4-0.1,0.5-0.2l9.9-10.9l-7-20.9L56.7,144.3z"/>
		<path class="st15" d="M56.7,144.3l-0.9-0.1l-2,28.8l0,0l0,0.1c0,0.8,0.6,1.5,1.4,1.6l0,0l0.1,0c0.4,0,0.9-0.2,1.2-0.5l0,0
			l10.3-11.3l-7.8-23l-3.2,4.2l0,0.3L56.7,144.3l0.7,0.6l0.9-1.2l6.3,18.7l-9.5,10.5l0,0l0.2,0.2v-0.3l-0.2,0.1l0.2,0.2v-0.3v0.3
			l0-0.3l0,0v0.3l0-0.3l0,0l0,0.3h0.3c0-0.2-0.1-0.3-0.3-0.3l0,0.3h0.3h-0.3l0.3,0l0,0h-0.3l0.3,0l0,0l2-28.8L56.7,144.3l0.7,0.6
			L56.7,144.3z"/>
		<path class="st3" d="M52.9,141.7l30.1,0.5c0.7,0,1.2-0.5,1.3-1.2c0-0.2,0-0.4-0.1-0.5c-2.2-3-4.2-6.2-6-9.4
			c-1.1-3.6-1.9-7.2-2.6-10.9c-0.3-0.6-1-0.9-1.6-0.7c-0.2,0.1-0.3,0.2-0.4,0.3L52.9,141.7z"/>
		<path class="st15" d="M52.9,141.7l0,0.9l30.1,0.5l0-0.9l0,0.9l0.1,0c1.2,0,2.1-0.9,2.2-2.1l0-0.1c0-0.3-0.1-0.6-0.2-0.9l0-0.1
			l-0.1-0.1c-2.2-3-4.2-6.1-5.9-9.3l-0.8,0.5l0.9-0.3c-1.1-3.5-1.9-7.1-2.5-10.7l0-0.1l0-0.1c-0.4-0.8-1.2-1.3-2-1.3
			c-0.3,0-0.6,0.1-0.8,0.2l0,0c-0.3,0.1-0.5,0.3-0.7,0.5l0,0l-22.1,23.4l2.1,0L52.9,141.7l0.7,0.6l20.6-21.9l0,0l0.1-0.1l0,0l0.1,0
			c0.1,0,0.2,0.1,0.3,0.2l0.9-0.4l-0.9,0.2c0.6,3.7,1.5,7.4,2.6,11l0,0.1l0,0.1c1.8,3.3,3.8,6.5,6.1,9.5l0.8-0.6l-0.9,0.4l0,0.1l0,0
			c0,0.2-0.1,0.3-0.3,0.3l0,0l0,0l-30.1-0.5L52.9,141.7l0.7,0.6L52.9,141.7z"/>
		<path class="st3" d="M58.1,137.1l-24.4-0.4c-0.7,0-1.3,0.5-1.3,1.2c0,0.2,0,0.3,0.1,0.5c0,0,4.3,7.1,5.4,9.7
			c1.1,2.5,3.2,10.6,3.2,10.6c0.3,0.6,1,0.9,1.6,0.7c0.2-0.1,0.3-0.2,0.5-0.3l16.8-17.8c0.9-1,0.9-2.6-0.1-3.5
			C59.3,137.3,58.7,137.1,58.1,137.1z"/>
		<path class="st15" d="M58.1,137.1l0-0.9l-24.4-0.4l0,0l0,0c-1.2,0-2.2,1-2.2,2.2l0,0l0,0c0,0.3,0.1,0.6,0.2,0.9l0,0.1l0,0.1
			c0,0,0.3,0.4,0.7,1.1c0.6,1.1,1.6,2.7,2.5,4.3c0.9,1.6,1.8,3.2,2.1,4.1c0.2,0.6,0.6,1.5,0.9,2.6c0.5,1.7,1.1,3.6,1.5,5.2
			c0.2,0.8,0.4,1.4,0.5,1.9c0.1,0.5,0.2,0.8,0.2,0.8l0,0.1l0,0.1c0.3,0.8,1.1,1.4,2,1.4c0.3,0,0.5-0.1,0.8-0.2
			c0.3-0.1,0.6-0.3,0.8-0.6l-0.7-0.6l0.7,0.6l16.8-17.8c0.6-0.7,0.9-1.5,0.9-2.4c0-0.9-0.4-1.8-1.1-2.5c-0.6-0.6-1.4-0.9-2.3-0.9
			l0,0L58.1,137.1l0,0.9c0.4,0,0.8,0.2,1,0.4c0.3,0.3,0.5,0.7,0.5,1.1c0,0.4-0.1,0.8-0.4,1.1l-16.8,17.8l0,0l-0.1,0.1l-0.1,0
			c-0.1,0-0.2-0.1-0.3-0.2l-0.9,0.4l0.9-0.2c0,0-0.5-2-1.2-4.4c-0.3-1.2-0.7-2.4-1-3.6c-0.4-1.1-0.7-2.1-1-2.8
			c-0.3-0.7-0.8-1.6-1.3-2.7c-1.7-3.1-4.1-7.1-4.1-7.1l-0.8,0.5l0.9-0.4l0-0.1l0,0l0,0l0,0c0-0.2,0.1-0.3,0.3-0.3l0,0l0,0l24.4,0.4
			l0,0L58.1,137.1z"/>
		<path class="st15" d="M67.1,133.6c-3.8,1.5-7.1,4-9.6,7.3c3.1-1.4,6.4-2.5,9.7-3.3c7.1-1.6-0.4-1.9-0.4-1.9S72.9,131.6,67.1,133.6
			z"/>
		<path class="st15" d="M50,145.1c3.7-1.7,6.9-4.2,9.3-7.5c-3.1,1.4-6.3,2.6-9.6,3.5c-7,1.8,0.4,1.9,0.4,1.9S44.2,147.3,50,145.1z"
			/>
		<path class="st3" d="M53.3,136.5l7.4-3.1c0.6-0.3,1.4,0,1.6,0.7l2.6,6.2c0.3,0.6,0,1.4-0.7,1.6l-7.4,3.1c-0.6,0.3-1.4,0-1.6-0.7
			l-2.6-6.2C52.4,137.5,52.7,136.8,53.3,136.5z"/>
		<path class="st15" d="M53.3,136.5l0.4,0.9l7.4-3.1l0,0l0.1,0c0.1,0,0.2,0.1,0.3,0.2l2.6,6.2l0,0.1c0,0.1-0.1,0.2-0.2,0.3l-7.4,3.1
			l0,0l-0.1,0c-0.1,0-0.2-0.1-0.3-0.2l-2.6-6.2l0-0.1c0-0.1,0.1-0.2,0.2-0.3L53.3,136.5l-0.4-0.9c-0.8,0.4-1.3,1.2-1.3,2
			c0,0.3,0.1,0.6,0.2,0.9l2.6,6.2c0.4,0.8,1.2,1.3,2,1.3c0.3,0,0.6-0.1,0.8-0.2l0,0l7.4-3.1c0.8-0.4,1.3-1.2,1.3-2
			c0-0.3-0.1-0.6-0.2-0.8l-2.6-6.2c-0.4-0.8-1.2-1.3-2-1.3c-0.3,0-0.6,0.1-0.8,0.2l0,0l-7.4,3.1L53.3,136.5z"/>
		<path class="st16" d="M34.1,33.9l-7.5,0.9L23,36c-3.9,1.2-7.6,2.7-11.2,4.6c3-1.1,6.2-1.8,9.5-2.1c1.3-0.1,2.6-0.2,4-0.3
			C28.1,36.7,31.1,35.3,34.1,33.9"/>
		<path class="st13" d="M25.2,38.3c-1.3,0-2.6,0.1-4,0.3c-3.3,0.3-6.5,1.1-9.5,2.1C5.5,44-0.1,48.3-4.9,53.5
			c-6.4,7.1-10.1,16.3-10.5,25.8c3.9-8.9,9.6-17,16.8-23.6C8.5,48.9,16.6,43,25.2,38.3"/>
		<path class="st17" d="M68.4,177.8l-11.6,16.3c0.3,0.7,0.5,1.4,0.8,2l1,0.7L69.8,181L68.4,177.8 M111.3,117.5l-27.5,38.6
			c0.3,0.3,0.5,0.7,0.5,1.2c0,0.3-0.1,0.7-0.3,1l0,0c-0.3,0.4-0.8,0.6-1.2,0.6c0,0,0,0,0,0l0,0h0l-0.8,0l-5,7l1.4,3.1l35.3-50.1
			C112.8,118.4,112.1,118,111.3,117.5 M108.6,115.5l-27.3,38.7l0.2,0.2l27.5-38.6C108.9,115.7,108.8,115.6,108.6,115.5"/>
		<path class="st1" d="M70.4,174.9l-0.3,0.4l1.4,3.1l0.2-0.3L70.4,174.9 M75.1,168.4l-2.9,4.1l1.4,3.1l2.9-4.1L75.1,168.4"/>
		<path class="st18" d="M70.2,175.3l-1.8,2.6l1.4,3.1l1.8-2.6L70.2,175.3 M76.9,165.9l-1.8,2.6l1.4,3.1l1.8-2.6L76.9,165.9"/>
		<polyline class="st19" points="72.2,172.5 70.4,174.9 71.8,178 73.5,175.6 72.2,172.5 		"/>
		<path class="st17" d="M66.9,174.6l-11.5,16.3c0,0,0,0.1,0.1,0.1L67,174.8L66.9,174.6 M78.1,158.7l-2.7,3.9l0.1,0.3l2.9-4.1
			L78.1,158.7"/>
		<path class="st1" d="M69,171.6l-0.3,0.4l0.1,0.2l0.3-0.4L69,171.6 M73.6,165.2l-2.9,4.1l0.1,0.2l2.9-4L73.6,165.2"/>
		<path class="st18" d="M68.7,172l-1.8,2.6l0.1,0.2l1.8-2.6L68.7,172 M75.4,162.6l-1.8,2.6l0.1,0.3l1.8-2.6L75.4,162.6"/>
		<polyline class="st19" points="70.7,169.2 69,171.6 69.1,171.9 70.8,169.5 70.7,169.2 		"/>
		<polyline class="st20" points="80.2,155.8 79.5,156.8 79.8,156.9 80.5,155.9 80.2,155.8 		"/>
		<path class="st21" d="M79.5,156.8l-1.3,1.9l0.3,0l1.3-1.9L79.5,156.8 M83.8,156.1l-1.9,2.7l0.8,0h0l0,0c0,0,0,0,0,0
			c0.5,0,0.9-0.2,1.2-0.6l0,0c0.2-0.3,0.3-0.6,0.3-1C84.3,156.8,84.2,156.4,83.8,156.1 M81.3,154.2l-1.1,1.6l0.2,0.2l1.1-1.5
			L81.3,154.2"/>
		<path class="st22" d="M58.6,196.9L58.6,196.9 M58.5,196.9L58.5,196.9L58.5,196.9L58.5,196.9 M69.8,181l-11.2,15.9l-1-0.7
			c0.2,0.5,0.3,0.9,0.5,1.4l0.5-0.6l-0.5,0.6c0.2,0.5,0.4,1,0.5,1.6c0.7,0,1.3-0.3,1.7-0.9l0,0l10.5-14.9L69.8,181 M65.8,172.2
			l-11.5,16.3c0.4,0.8,0.7,1.5,1.1,2.3l11.5-16.3L65.8,172.2 M75.5,158.6l-1.1,1.6l1.1,2.4l2.7-3.9L75.5,158.6 M113.6,118.8
			l-35.3,50.1l1.1,2.4l36.2-51.4C114.9,119.6,114.2,119.2,113.6,118.8 M106.9,114.1l-27.4,38.8l1.8,1.3l27.3-38.7
			C108,115.1,107.5,114.6,106.9,114.1"/>
		<path class="st23" d="M71.8,178l-0.2,0.3l1.1,2.4l0.2-0.3L71.8,178 M76.4,171.5l-2.9,4.1l1.1,2.4l2.9-4.1L76.4,171.5 M67.9,169.3
			l-0.3,0.4l1.1,2.4l0.3-0.4L67.9,169.3 M72.5,162.8l-2.9,4.1l1.1,2.4l2.9-4.1L72.5,162.8"/>
		<path class="st2" d="M71.6,178.4l-1.8,2.6l1.1,2.4l1.8-2.6L71.6,178.4 M67.7,169.7l-1.8,2.6l1.1,2.4l1.8-2.6L67.7,169.7
			 M78.3,168.9l-1.8,2.6l1.1,2.4l1.8-2.6L78.3,168.9 M74.4,160.2l-1.8,2.6l1.1,2.4l1.8-2.6L74.4,160.2"/>
		<path class="st24" d="M73.5,175.6l-1.7,2.4l1.1,2.4l1.7-2.4L73.5,175.6 M69.7,166.8l-1.7,2.4l1.1,2.4l1.7-2.4L69.7,166.8"/>
		<polyline class="st25" points="78.4,154.4 76.8,156.8 79.5,156.8 80.2,155.8 78.4,154.4 		"/>
		<path class="st26" d="M76.8,156.8l-1.3,1.9l2.7,0.1l1.3-1.9L76.8,156.8 M79.5,152.9l-1.1,1.6l1.8,1.3l1.1-1.6L79.5,152.9"/>
		<path class="st27" d="M67,174.8L55.5,191c0.5,1,0.9,2,1.3,3.1l11.6-16.3L67,174.8 M78.5,158.7l-2.9,4.1l1.3,3l5-7L78.5,158.7
			 M109,115.8l-27.5,38.6l2.2,1.6l0,0c0,0,0.1,0.1,0.1,0.1l27.5-38.6c-0.6-0.4-1.2-0.8-1.8-1.3C109.4,116.1,109.2,115.9,109,115.8"
			/>
		<path class="st4" d="M69.1,171.9l-0.3,0.4l1.3,3l0.3-0.4L69.1,171.9 M73.7,165.4l-2.9,4l1.3,3l2.9-4.1L73.7,165.4"/>
		<path class="st5" d="M68.8,172.3l-1.8,2.6l1.3,3l1.8-2.6L68.8,172.3 M75.5,162.9l-1.8,2.6l1.3,3l1.8-2.6L75.5,162.9"/>
		<polyline class="st28" points="70.8,169.5 69.1,171.9 70.4,174.9 72.2,172.5 70.8,169.5 		"/>
		<polyline class="st29" points="80.5,155.9 79.8,156.9 81.7,156.9 80.5,155.9 		"/>
		<path class="st30" d="M81.6,154.4l-1.1,1.5l1.3,1l-1.9-0.1l-1.3,1.9l3.4,0.1l1.9-2.7c0,0-0.1-0.1-0.1-0.1l0,0L81.6,154.4"/>
		<path class="st31" d="M159.2,49c18.4,13.6,22.2,39.4,8.7,57.8c-13.6,18.4-39.4,22.2-57.8,8.7c-18.4-13.6-22.2-39.4-8.7-57.8
			C115,39.3,140.9,35.4,159.2,49"/>
		<path class="st32" d="M159.2,49l-0.6,0.8c10.7,7.9,16.4,20.1,16.4,32.5c0,8.3-2.6,16.7-7.9,23.9c-7.9,10.7-20.1,16.4-32.5,16.4
			c-8.3,0-16.7-2.6-23.9-7.9c-10.7-7.9-16.4-20.1-16.4-32.5c0-8.3,2.6-16.7,7.9-23.9c7.9-10.7,20.1-16.4,32.5-16.4
			c8.3,0,16.7,2.6,23.9,7.9L159.2,49l0.6-0.8c-7.6-5.6-16.4-8.3-25.1-8.3c-13,0-25.8,5.9-34.1,17.2c-5.6,7.6-8.3,16.4-8.3,25.1
			c0,13,5.9,25.8,17.2,34.1c7.6,5.6,16.4,8.3,25.1,8.3c13,0,25.8-5.9,34.1-17.2c5.6-7.6,8.3-16.4,8.3-25.1c0-13-5.9-25.8-17.2-34.1
			L159.2,49"/>
		<path class="st33" d="M137.4,44.1c-3.6,0-7.3,0.6-10.7,1.9c1.2-0.1,2.4-0.1,3.6-0.1c3.9,0,7.8,0.4,11.7,1.3
			c7.4,1.6,14.4,4.4,20.9,8.3l-1.7-1.5l0.6-0.8l0,0l-0.6,0.8l0,0l0,0c-5.6-5.2-12.6-8.5-20.1-9.7C139.8,44.2,138.6,44.1,137.4,44.1"
			/>
		<path class="st31" d="M126.8,46c3.4-1.3,7-1.9,10.7-1.9c1.2,0,2.4,0.1,3.6,0.2c7.5,1.1,14.5,4.5,20.1,9.7l0,0l0,0l0.6-0.8
			l-0.6,0.8l1.7,1.5c-6.5-3.8-13.5-6.6-20.9-8.3c-3.8-0.9-7.7-1.3-11.7-1.3C129.2,45.9,128,45.9,126.8,46 M137.4,42.1
			c-6,0-11.9,1.6-17,4.8l-4.6,2.8l5.3-1c3.1-0.6,6.2-0.9,9.3-0.9c3.8,0,7.5,0.4,11.2,1.3l0,0c8.8,2,17.2,5.6,24.6,10.8l3.6,2.5
			c-2.7-4.8-6.5-9.2-11.2-12.7l0.2-0.2l0,0l-0.2,0.2c-5.4-4-11.5-6.5-17.8-7.4C139.7,42.2,138.6,42.1,137.4,42.1"/>
		<path class="st34" d="M158.8,49.5l-0.2,0.2c4.7,3.5,8.5,7.9,11.2,12.7l1,0.7l-6.3-8.9l-2.1-1.8C161.3,51.5,160.1,50.4,158.8,49.5
			 M140.9,42.3c6.2,1,12.3,3.4,17.8,7.4l0.2-0.2c-5.2-3.7-11.1-6.2-17.5-7.1l0,0l0,0C141.2,42.4,141,42.3,140.9,42.3"/>
		<path class="st35" d="M116.1,111c0,0,9.5,6.3,19.3,7c4.8,0.7,9.7-1,13.1-4.5c-5.1,1.4-10.5,1.7-15.7,0.6c-8-1.4-15.8-4-23-7.8
			l4,3.3L116.1,111z"/>
		<path class="st31" d="M163.6,114.2c0,0-23.8-10.6-35.7-19.3C117.4,87.2,95.5,64,95.5,64c-0.9-0.8-0.9-2.2-0.1-3.1l7.3-9.9
			c0.6-1,1.9-1.4,3-0.8c8.7,11.4,18.8,21.6,30.1,30.4c11.6,8.5,24.4,15.2,37.9,19.9c0.9,0.8,0.9,2.2,0.1,3.1l-7.3,9.9
			C166,114.4,164.7,114.8,163.6,114.2"/>
		<path class="st35" d="M163.6,114.2l0.4-0.9c0,0-0.4-0.2-1-0.5c-2.3-1.1-8.4-3.9-15.1-7.3c-6.7-3.5-14.2-7.6-19.3-11.4
			c-2.6-1.9-5.9-4.8-9.4-8c-5.3-4.9-11-10.6-15.4-15.1c-2.2-2.2-4.1-4.2-5.4-5.5c-0.7-0.7-1.2-1.2-1.5-1.6c-0.4-0.4-0.5-0.6-0.5-0.6
			l0,0l0,0c-0.3-0.3-0.4-0.6-0.4-0.9c0-0.3,0.1-0.6,0.3-0.9l0,0l7.4-10l0,0c0.2-0.4,0.6-0.6,1.1-0.6c0.2,0,0.4,0,0.6,0.2l0.5-0.9
			l-0.8,0.6c8.7,11.5,18.9,21.7,30.3,30.6l0,0l0,0c11.7,8.5,24.5,15.3,38.2,20l0.3-0.9l-0.7,0.7c0.2,0.2,0.4,0.6,0.4,0.9
			c0,0.3-0.1,0.6-0.3,0.8l0,0l-7.4,10l0,0c-0.2,0.4-0.7,0.6-1.1,0.6c-0.2,0-0.4,0-0.6-0.1l0,0l0,0L163.6,114.2l-0.5,0.9
			c0.5,0.3,1,0.4,1.5,0.4c1.1,0,2.2-0.6,2.8-1.6l-0.8-0.5l0.8,0.6l7.3-9.9l-0.8-0.6l0.7,0.7c0.6-0.6,0.8-1.4,0.8-2.2
			c0-0.8-0.3-1.7-1-2.3l-0.2-0.2l-0.2-0.1c-13.5-4.7-26.2-11.3-37.7-19.7l-0.6,0.8l0.6-0.8c-11.3-8.7-21.3-18.9-29.9-30.2l-0.1-0.2
			l-0.2-0.1c-0.5-0.3-1-0.4-1.5-0.4c-1.1,0-2.2,0.6-2.8,1.6l0.8,0.5l-0.8-0.6l-7.3,9.9l0.8,0.6l-0.7-0.7c-0.6,0.6-0.8,1.4-0.8,2.2
			c0,0.8,0.3,1.7,1,2.3l0.7-0.7l-0.7,0.7c0,0,5.5,5.8,12.3,12.6c3.4,3.4,7.1,7,10.7,10.3c3.5,3.3,6.9,6.2,9.6,8.2
			c6,4.4,15,9.3,22.4,13c7.5,3.7,13.4,6.4,13.4,6.4L163.6,114.2l-0.5,0.9L163.6,114.2"/>
		<path class="st35" d="M160.2,113.2c2.4,1.6,5.6,1.3,7.7-0.7c3.3-2.9,4.8-8.8,5.4-10.7c-1.5,3-3.6,5.6-6.3,7.6
			c-2.7,1.9-6.1,2.5-9.2,1.5l1.6,1.9L160.2,113.2z"/>
		<path class="st1" d="M255.5,120l3.3,5.8c0.3,0.5,0.1,1.2-0.4,1.5l0,0l-96.8,58.4l-4.6-7.9l96.8-58.3
			C254.5,119.3,255.2,119.5,255.5,120L255.5,120z"/>
		<path class="st2" d="M255.5,120l-1.1,0.6l3.3,5.8l0,0l0.1-0.1l-0.1,0l0,0.1l0.1-0.1l-0.1,0h0.1l-0.1-0.1l-0.1,0.1h0.1l-0.1-0.1
			l0,0l0,0l0,0l-95.7,57.8l-3.3-5.8l95.7-57.7l0,0l0-0.1v0.1l0,0l0-0.1v0.1v-0.1l-0.1,0l0.1,0v-0.1l-0.1,0L255.5,120l-1.1,0.6l0,0
			l0,0l0,0L255.5,120l1.1-0.6l0,0l0,0l0,0c-0.5-0.8-1.3-1.2-2.1-1.2c-0.4,0-0.9,0.1-1.2,0.3l-97.8,58.9l5.8,10.1l97.9-59.1l0,0l0,0
			l0,0l0,0c0.7-0.4,1.2-1.2,1.1-2c0-0.4-0.1-0.8-0.3-1.2l-1.1,0.6l1.1-0.6l-3.3-5.8l0,0L255.5,120z"/>
		
			<rect x="157.5" y="150.8" transform="matrix(0.8587 -0.5125 0.5125 0.8587 -48.2892 129.7099)" class="st6" width="107" height="3.2"/>
		<path class="st9" d="M158.4,171.5l10.7-16c0.4-0.8,2.5,1.2,3.2,2.4c-0.6,1.9-3.4,4.8,3.3,7.6c3,1.2-0.7,4.7-0.1,5.8
			c0.6,1.1,4.3,1.1,5.8,3.3c0.8,1.4-1.1,4.4-0.3,5.5c1,1.3,2.5,2,4.1,2.1c1.1,2,2.1,3.7,1.1,3.6l-19.3,0.5
			c8.5,22.8-0.7,48.5-21.8,60.7c-23.8,13.7-51.4,10.7-68.2-18.5c-13.8-23.9-5.6-54.4,18.3-68.2C116.2,148.2,142.9,152.9,158.4,171.5
			L158.4,171.5z"/>
		<path class="st11" d="M158.4,171.5l1,0.6l10.7-16.1l0-0.1l-0.7-0.4l0.4,0.7c0.2-0.1,0.3-0.2,0.3-0.3l-0.7-0.4l0.4,0.7l-0.4-0.7
			l0,0.8c0.1,0,0.2,0,0.4-0.1l-0.4-0.7l0,0.8V156l-0.1,0.5l0.1,0V156l-0.1,0.5l0-0.1l0,0.1l0,0l0-0.1l0,0.1c0,0,0.2,0.1,0.3,0.2
			c0.3,0.2,0.6,0.5,1,0.9c0.3,0.3,0.6,0.7,0.7,0.9l1-0.6l-1.1-0.3c-0.1,0.3-0.3,0.8-0.6,1.4c-0.3,0.6-0.5,1.4-0.5,2.3
			c0,0.5,0.1,1,0.3,1.5c0.3,0.7,0.8,1.4,1.6,2.1c0.8,0.6,1.8,1.2,3.2,1.8l0,0l0,0c0.3,0.1,0.4,0.2,0.4,0.3c0,0,0,0.1,0.1,0.2
			c0,0.1,0,0.4-0.1,0.7c-0.2,0.4-0.4,1-0.7,1.5c-0.1,0.3-0.2,0.5-0.3,0.8c-0.1,0.3-0.2,0.6-0.2,1c0,0.3,0.1,0.6,0.2,0.9l0,0l0,0
			c0.2,0.4,0.5,0.6,0.7,0.8c0.5,0.3,0.9,0.5,1.4,0.6c0.7,0.2,1.5,0.5,2.2,0.8c0.7,0.3,1.2,0.7,1.5,1.2l1-0.6l-1,0.6
			c0,0,0.1,0.1,0.1,0.3c0,0.4-0.1,1-0.3,1.7c-0.2,0.7-0.4,1.4-0.4,2.2c0,0.4,0.1,0.9,0.4,1.4l0,0l0,0c1.2,1.5,3,2.4,5,2.5l0-1.1
			l-1,0.6c0.4,0.7,0.8,1.4,1,1.9c0.1,0.3,0.2,0.5,0.3,0.6l0.1,0.2l0,0l0.2,0h-0.2l0,0l0.2,0h-0.2h0.6l-0.6-0.2c0,0.1,0,0.2,0,0.2
			h0.6l-0.6-0.2l0.8,0.3l-0.4-0.7c-0.2,0.1-0.3,0.3-0.4,0.5l0.8,0.3l-0.4-0.7l0.4,0.6v-0.7c0,0-0.2,0-0.4,0.1l0.4,0.6v-0.7v0.3
			l0-0.3l0,0v0.3l0-0.3l0,0l-20.9,0.5l0.6,1.5c2.1,5.6,3.1,11.4,3.1,17c0,17-8.9,33.3-24.4,42.3l0,0c-8.7,5-17.9,7.7-26.8,7.7
			c-7.5,0-14.9-1.9-21.7-6.1c-6.8-4.2-13-10.6-18.2-19.7l0,0c-4.4-7.7-6.5-16.1-6.5-24.3c0-16.9,8.8-33.3,24.4-42.3
			c7.6-4.4,16-6.5,24.3-6.5c14,0,27.9,6.1,37.4,17.5L158.4,171.5l-0.5-1l-0.1,0.1L158.4,171.5l1,0.6L158.4,171.5l0.6,1l0.1-0.1
			l1.2-0.7l-0.9-1c-10-11.9-24.5-18.3-39.2-18.3c-8.7,0-17.5,2.2-25.5,6.8c-16.4,9.5-25.6,26.6-25.6,44.3c0,8.7,2.2,17.4,6.8,25.5
			l0,0c5.3,9.3,11.8,16.1,18.9,20.5c7.1,4.4,14.9,6.5,22.9,6.5c9.4,0,18.9-2.9,27.9-8l0,0l0,0c16.2-9.3,25.6-26.4,25.6-44.3
			c0-6-1-12-3.2-17.8l-1.1,0.4l0,1.1l19.3-0.5l0-1.1l0,1.1l0.1,0c0.2,0,0.3,0,0.5-0.1c0.3-0.1,0.6-0.3,0.8-0.6
			c0.2-0.3,0.2-0.6,0.2-0.8c0-0.4-0.1-0.7-0.2-1c-0.3-0.9-0.9-1.8-1.5-2.9l-0.3-0.6l-0.6,0c-1.3,0-2.5-0.6-3.3-1.6l-0.9,0.7l0.9-0.7
			l-0.2,0.2l0.2-0.1l0,0l-0.2,0.2l0.2-0.1l-0.1,0l0.1,0l0,0l-0.1,0l0.1,0l0-0.1c0-0.3,0.1-0.9,0.3-1.6c0.2-0.7,0.4-1.4,0.4-2.3
			c0-0.5-0.1-1-0.4-1.5l0,0l0,0c-0.5-0.7-1.2-1.3-1.8-1.7c-1-0.6-2.1-0.9-2.9-1.2c-0.4-0.1-0.7-0.3-0.9-0.4c-0.1,0-0.2-0.1-0.2-0.1
			l0,0l-0.1,0.1l0.1-0.1l0,0l-0.1,0.1l0.1-0.1l-0.3,0.2l0.3-0.2l0,0l-0.3,0.2l0.3-0.2l0,0L176,171h0.5c0,0,0-0.1-0.1-0.3L176,171
			h0.5h-0.1l0.1,0l0,0h-0.1l0.1,0c0,0,0-0.2,0.2-0.5c0.2-0.4,0.4-0.9,0.7-1.5c0.2-0.6,0.5-1.2,0.5-2c0-0.5-0.1-1.1-0.5-1.5
			c-0.3-0.5-0.8-0.8-1.4-1.1l0,0c-1.6-0.7-2.6-1.3-3.1-1.9c-0.2-0.3-0.4-0.5-0.5-0.7c-0.1-0.2-0.1-0.4-0.1-0.6
			c0-0.4,0.1-0.8,0.4-1.4c0.2-0.5,0.5-1,0.7-1.6l0.1-0.5l-0.2-0.4c-0.4-0.7-1-1.3-1.6-1.9c-0.3-0.3-0.7-0.6-1-0.8
			c-0.2-0.1-0.4-0.2-0.6-0.3c-0.2-0.1-0.4-0.1-0.7-0.1c-0.2,0-0.5,0-0.8,0.2c-0.3,0.1-0.5,0.4-0.6,0.6l1,0.5l-1-0.6L154.7,175
			l4.2-2.4L158.4,171.5z"/>
		<path class="st11" d="M146,165.8c-7.3-5.4-16.1-8.5-25.2-8.9c-8.3-0.1-16.4,2.6-23,7.6c7.9-2.4,16.2-3.1,24.4-2.1
			c10.7,1.2,21.1,4.5,30.5,9.7l-4.1-4.6L146,165.8z"/>
		<path class="st11" d="M165.8,169.2c-2.3,2.1-4,4.7-5.2,7.7c1.8-1.7,3.8-3.2,5.9-4.6c4.4-2.8-0.5-1.3-0.5-1.3
			S169.3,166.4,165.8,169.2z"/>
		<path class="st11" d="M173.4,179.8c-3.6,1-7.4,1.1-11,0.2c3-0.8,5.9-1.8,8.8-3.1c6-2.8,0.9,1.5,0.9,1.5S178.7,178,173.4,179.8z"/>
		<path class="st36" d="M79,225.8c3.7,8.3,9.7,15.4,17.4,20.3c7.2,4.2,15.6,5.9,23.9,4.8c-8-1.9-15.6-5.4-22.2-10.3
			c-8.7-6.4-16.1-14.4-21.7-23.5l1.3,6L79,225.8z"/>
		<path class="st1" d="M116.8,375.9c-0.6,0.4-1.5,0.3-2-0.4L37.9,263l9-6.4l76.9,112.7l0,0c0.4,0.6,0.3,1.5-0.4,1.9L116.8,375.9
			L116.8,375.9"/>
		<path class="st37" d="M116.8,375.9l-0.9-1.2l0.1,0.1v-0.1l-0.1,0l0.1,0.1v-0.1v0.1l0.1-0.1l-0.1,0v0.1l0.1-0.1l0,0L40,263.3
			l6.5-4.7l76.1,111.5l0,0l1.2-0.9l-1.2,0.9l0.1-0.1h-0.2l0,0.1l0.1-0.1h-0.2h0.2l-0.1-0.1l-0.1,0.1h0.2l-0.1-0.1l0,0l-6.6,4.7l0,0
			l0,0L116.8,375.9l-0.9-1.2L116.8,375.9l0.9,1.2l0,0l0,0l6.6-4.7l-0.9-1.2l0.9,1.2c0.8-0.6,1.2-1.5,1.2-2.4c0-0.6-0.2-1.1-0.5-1.6
			l0,0l0,0l-77.8-114l-11.4,8.2l77.8,113.8l0,0c0.6,0.8,1.5,1.3,2.4,1.3c0.6,0,1.2-0.2,1.7-0.5l0,0l0,0L116.8,375.9"/>
		<path class="st4" d="M50.1,265.1c-0.3,0.2-0.5,0.5-0.8,0.7c-0.4,0.3-0.8,0.6-1.1,0.9l72.3,104.8l2-1.4l-3-4.4L50.1,265.1"/>
		<polyline class="st38" points="119.5,365.6 122.5,370 120.5,371.4 120.6,371.5 122.6,370.1 119.5,365.6 		"/>
		<path class="st39" d="M-39.3,207.6c5.4-10.7,20.4-14.6,37.7-11.1c2.2-17.3,10.3-30.1,22-32C37.1,162,54.9,183.3,60,212
			c5.1,28.7-4.3,54.1-21.2,56.7c-0.6,0.1-1.3,0.2-1.9,0.2c-11.8,2.5-28.1-0.4-43.6-8.7C-32.4,246.3-47.1,222.8-39.3,207.6"/>
		<path class="st40" d="M-39.3,207.6l1.6,0.8c1.9-3.7,5-6.5,9.1-8.4c4.1-1.9,9.3-3,15.1-2.9c3.7,0,7.6,0.4,11.6,1.2l1.9,0.4l0.2-1.9
			c1.1-8.5,3.6-15.7,7.2-21c1.8-2.7,3.8-4.8,6.1-6.4c2.2-1.6,4.7-2.6,7.3-3l0,0c0.8-0.1,1.7-0.2,2.5-0.2c3.6,0,7.3,1.2,10.9,3.4
			c5.4,3.3,10.6,9,14.9,16.4c4.3,7.4,7.6,16.4,9.4,26.4c0.9,5.2,1.4,10.2,1.4,15c0,10.7-2.2,20.3-5.9,27.3c-1.9,3.5-4.1,6.4-6.7,8.4
			c-2.5,2.1-5.4,3.4-8.5,3.9l0,0l0,0c-0.5,0.1-1,0.1-1.5,0.1l-0.1,0l-0.2,0l-0.2,0c-2.6,0.5-5.5,0.8-8.5,0.8
			c-10.1,0-22.2-3.1-33.9-9.4l0,0c-10.3-5.5-18.8-12.7-24.7-20.1c-5.9-7.4-9.1-15.2-9.1-21.9c0-3,0.6-5.7,1.9-8.2l0,0L-39.3,207.6
			l-1.6-0.8c-1.5,3-2.3,6.4-2.3,9.8c0,7.8,3.6,16.1,9.8,24c6.2,7.9,15.1,15.3,25.8,21l0,0c12.2,6.5,24.8,9.8,35.6,9.8
			c3.3,0,6.3-0.3,9.2-0.9l-0.4-1.7l0,1.8l0.2,0c0.7,0,1.4-0.1,2.1-0.2l-0.3-1.7l0.3,1.7c3.8-0.6,7.2-2.2,10.2-4.6
			c4.5-3.7,7.9-9.1,10.3-15.7c2.4-6.6,3.6-14.3,3.6-22.7c0-5-0.5-10.3-1.4-15.7c-2.5-13.8-7.8-26-14.6-34.8
			c-3.4-4.4-7.2-8-11.3-10.4c-4-2.5-8.4-3.9-12.7-3.9c-1,0-2,0.1-3,0.2l0,0l0,0c-3.2,0.5-6.2,1.8-8.8,3.6c-4,2.8-7.2,7-9.7,12.1
			c-2.5,5.1-4.2,11.1-5,17.8l1.7,0.2l0.3-1.7c-4.3-0.9-8.4-1.3-12.3-1.3c-6.2,0-11.8,1.1-16.6,3.3c-4.7,2.2-8.5,5.6-10.7,10l0,0
			L-39.3,207.6"/>
		<path class="st41" d="M22.5,169.4c-3.1,0-5,0.8-5,0.8l-1.8,0.6l-3,2.4c0.9-0.1,1.8-0.1,2.7-0.1c6,0,11.9,1.6,17.1,4.7
			c5.7,3.3,10.8,7.7,15,12.8c-1.6-3-5.9-12.2-13.6-17.5C29.5,170.2,25.5,169.4,22.5,169.4"/>
		<path class="st31" d="M20.8,272.5c-0.2,0.1-0.5,0.2-0.6,0.3c-0.6,0.5-0.7,1.5-0.2,2.1c3.6,3.3,7,6.7,10.2,10.4
			c2.5,4.2,4.7,8.5,6.6,13c0.1,0.2,0.3,0.4,0.5,0.5c0.7,0.4,1.6,0.2,2.1-0.5l17.4-32L20.8,272.5z"/>
		<path class="st35" d="M20.8,272.5l-0.3-1.1c-0.4,0.1-0.8,0.3-1.1,0.6l0,0c-0.6,0.5-0.9,1.3-0.9,2c0,0.6,0.2,1.2,0.6,1.7l0,0.1
			l0.1,0.1c3.6,3.2,6.9,6.7,10.1,10.3l0.9-0.8l-1,0.6c2.4,4.2,4.6,8.5,6.5,12.9l0,0.1l0,0.1c0.2,0.4,0.5,0.7,0.9,0.9l0,0
			c0.4,0.3,0.9,0.4,1.4,0.4c0.9,0,1.8-0.5,2.3-1.3l0,0l18.5-34.2l-38.3,6.6l0,0L20.8,272.5l0.2,1.2l33.5-5.7l-16.2,29.9l1,0.6
			l-1-0.6c-0.1,0.1-0.2,0.2-0.3,0.2l-0.2,0l0,0l-0.1-0.1l-1,0.6l1.1-0.5c-2-4.5-4.2-8.9-6.7-13.1l-0.1-0.1l-0.1-0.1
			c-3.2-3.7-6.6-7.2-10.3-10.5l-0.8,0.9l0.9-0.8l-0.1-0.2c0-0.1,0-0.2,0.1-0.2l0,0l0,0l0.1-0.1L20.8,272.5l0.2,1.2L20.8,272.5z"/>
		<path class="st31" d="M48.3,270.3c0.2,1.9,1.9,3.2,3.8,3l29.1-5c0.2-0.1,0.5-0.2,0.6-0.3c0.6-0.5,0.7-1.5,0.2-2.1
			c0,0-7.5-7.9-9.6-10.9c-2.1-2.9-7.2-12.6-7.2-12.6c-0.1-0.2-0.3-0.4-0.5-0.5c-0.7-0.4-1.6-0.2-2.1,0.5l-14.1,26
			C48.3,269,48.2,269.7,48.3,270.3z"/>
		<path class="st35" d="M48.3,270.3l-1.2,0.1c0.3,2.3,2.3,4,4.6,4c0.2,0,0.4,0,0.6,0l0,0l29.2-5l0,0c0.4-0.1,0.8-0.3,1.1-0.6l0,0
			l0,0c0.6-0.5,0.9-1.3,0.9-2c0-0.6-0.2-1.2-0.6-1.7l0,0l0,0c0,0-0.5-0.5-1.2-1.3c-1.1-1.2-2.8-3-4.4-4.8c-1.6-1.8-3.2-3.6-3.9-4.6
			l0,0c-0.5-0.7-1.2-1.8-1.9-3.1c-1.1-2-2.4-4.3-3.4-6.1c-0.5-0.9-0.9-1.7-1.2-2.3s-0.5-0.9-0.5-0.9l0,0l0,0
			c-0.2-0.4-0.5-0.7-0.9-0.9l0,0c-0.4-0.3-0.9-0.4-1.4-0.4c-0.9,0-1.8,0.5-2.3,1.3l0,0l-14.1,26l0,0c-0.3,0.6-0.4,1.3-0.4,2
			c0,0.2,0,0.4,0,0.6l0,0L48.3,270.3l1.2-0.1c0-0.1,0-0.2,0-0.3c0-0.3,0.1-0.7,0.2-1l-1.1-0.5l1,0.6l14.1-26l-1-0.6l1,0.6
			c0.1-0.1,0.2-0.2,0.3-0.2l0.2,0l0,0l0.1,0.1l1-0.6l-1,0.5c0,0,1.3,2.4,2.8,5.2c0.8,1.4,1.6,2.9,2.4,4.2c0.8,1.3,1.5,2.5,2.1,3.3
			l0,0l0,0c0.6,0.8,1.4,1.8,2.5,3c3,3.5,7.3,8,7.3,8l0.9-0.8l-0.9,0.8l0.1,0.2c0,0.1,0,0.2-0.1,0.2l0,0l-0.1,0.1l0.3,1.1l-0.2-1.2
			l-29.1,5l0.2,1.2l-0.1-1.2c-0.1,0-0.2,0-0.3,0c-1.1,0-2.1-0.8-2.2-2l0,0L48.3,270.3z"/>
		<path class="st32" d="M42,276.6c0,0-4.1,8.1,1.8,1.7c2.8-2.9,5.9-5.6,9.2-7.9c-4.9,0.4-9.5,2.1-13.5,4.9
			C33.9,280.1,42,276.6,42,276.6z"/>
		<path class="st32" d="M59.8,264.3c0,0,4.3-7.9-1.8-1.8c-2.9,2.8-6.1,5.4-9.5,7.6c4.9-0.2,9.6-1.7,13.6-4.4
			C67.9,261.1,59.8,264.3,59.8,264.3z"/>
		<path class="st31" d="M53,263.4l5.2,7.3c0.5,0.7,0.3,1.7-0.4,2.2l-7.6,5.5c-0.7,0.5-1.7,0.3-2.2-0.4l-5.2-7.3
			c-0.5-0.7-0.3-1.7,0.4-2.2l7.6-5.5C51.5,262.6,52.5,262.7,53,263.4z"/>
		<path class="st35" d="M53,263.4l-1,0.7l5.2,7.3l0,0l0.1,0.2c0,0.1-0.1,0.2-0.2,0.3l0,0l-7.6,5.5l0,0l-0.2,0.1
			c-0.1,0-0.2-0.1-0.3-0.2l0,0l-5.2-7.3l0,0l-0.1-0.2c0-0.1,0.1-0.2,0.2-0.3l7.6-5.5l0,0l0.2-0.1c0.1,0,0.2,0.1,0.3,0.2l0,0
			L53,263.4l1-0.7c-0.5-0.7-1.4-1.1-2.2-1.1c-0.5,0-1.1,0.2-1.6,0.5l0,0l-7.6,5.5l0,0c-0.7,0.5-1.1,1.4-1.1,2.2
			c0,0.5,0.2,1.1,0.5,1.6l5.2,7.3l0,0c0.5,0.7,1.4,1.1,2.2,1.1c0.5,0,1.1-0.2,1.6-0.5l0,0l7.6-5.5l0,0c0.7-0.5,1.1-1.4,1.1-2.2
			c0-0.5-0.2-1.1-0.5-1.6l-5.2-7.3l0,0L53,263.4z"/>
		<path class="st42" d="M-9.5,246.4c3.7,6.8,9.7,12.2,16.8,15.1c5.2,2,10.7,3,16.2,3c3,0,6.1-0.3,9.1-0.9l3-0.5l5.4-2.3
			c-2,0.2-4.1,0.2-6.1,0.2c-8.2,0-16.3-1.2-24.2-3.7C3.3,255.1-3.6,251.4-9.5,246.4"/>
		<path class="st1" d="M405,375.9c-0.6,0.4-1.5,0.3-2-0.4l-77-112.6l9-6.4L412,369.2l0,0c0.4,0.6,0.3,1.5-0.4,1.9L405,375.9
			L405,375.9"/>
		<path class="st37" d="M405,375.9l-0.9-1.2l0.1,0.1v-0.1l-0.1,0l0.1,0.1v-0.1v0.1l0.1-0.1l-0.1,0v0.1l0.1-0.1l0,0l-76.2-111.3
			l6.5-4.7l76.1,111.5l0,0l1.2-0.9l-1.2,0.9l0.1-0.1h-0.2l0,0.1l0.1-0.1h-0.2h0.2l-0.1-0.1l-0.1,0.1h0.2l-0.1-0.1l0,0l-6.6,4.7l0,0
			l0,0l0,0L405,375.9l0.9,1.2l0,0l0,0l6.6-4.7l-0.9-1.2l0.9,1.2c0.8-0.6,1.2-1.5,1.2-2.4c0-0.6-0.2-1.1-0.5-1.6l0,0l0,0l-77.8-114
			l-11.4,8.2l77.8,113.8l0,0c0.6,0.8,1.5,1.3,2.4,1.3c0.6,0,1.2-0.2,1.7-0.5l0,0l0,0L405,375.9"/>
		<path class="st4" d="M338.3,265.1c-0.3,0.2-0.5,0.5-0.8,0.7c-0.4,0.3-0.8,0.6-1.1,0.9l72.3,104.8l2-1.4l-3.1-4.6L338.3,265.1"/>
		<polyline class="st38" points="407.6,365.4 410.7,370 408.7,371.4 408.7,371.5 410.8,370.1 407.6,365.4 		"/>
		<path class="st39" d="M248.9,207.6c5.4-10.7,20.4-14.6,37.7-11.1c2.2-17.3,10.3-30.1,22-32c16.8-2.6,34.6,18.7,39.7,47.4
			c5.1,28.7-4.3,54.1-21.2,56.7c-0.6,0.1-1.3,0.2-1.9,0.2c-11.8,2.5-28.1-0.4-43.6-8.7C255.7,246.3,241.1,222.8,248.9,207.6"/>
		<path class="st40" d="M248.9,207.6l1.6,0.8c1.9-3.7,5-6.5,9.1-8.4c4.1-1.9,9.3-3,15.1-2.9c3.7,0,7.6,0.4,11.6,1.2l1.9,0.4l0.2-1.9
			c1.1-8.5,3.6-15.7,7.2-21c1.8-2.7,3.8-4.8,6.1-6.4c2.2-1.6,4.7-2.6,7.3-3l0,0c0.8-0.1,1.7-0.2,2.5-0.2c3.6,0,7.3,1.2,10.9,3.4
			c5.4,3.3,10.6,9,14.9,16.4c4.3,7.4,7.6,16.4,9.4,26.4c0.9,5.2,1.4,10.2,1.4,15c0,10.7-2.2,20.3-5.9,27.3c-1.9,3.5-4.1,6.4-6.7,8.4
			c-2.5,2.1-5.4,3.4-8.5,3.9l0,0l0,0c-0.5,0.1-1,0.1-1.5,0.1l-0.1,0l-0.2,0l-0.2,0c-2.6,0.5-5.5,0.8-8.5,0.8
			c-10.1,0-22.2-3.1-33.9-9.4l0,0c-10.3-5.5-18.8-12.7-24.7-20.1c-5.9-7.4-9.1-15.2-9.1-21.9c0-3,0.6-5.7,1.9-8.2l0,0L248.9,207.6
			l-1.6-0.8c-1.5,3-2.3,6.4-2.3,9.8c0,7.8,3.6,16.1,9.8,24c6.2,7.9,15.1,15.3,25.8,21l0,0c12.2,6.5,24.8,9.8,35.6,9.8
			c3.3,0,6.3-0.3,9.2-0.9l-0.4-1.7l0,1.8l0.2,0c0.7,0,1.4-0.1,2.1-0.2l-0.3-1.7l0.3,1.7c3.8-0.6,7.2-2.2,10.2-4.6
			c4.5-3.7,7.9-9.1,10.3-15.7c2.4-6.6,3.6-14.3,3.6-22.7c0-5-0.5-10.3-1.4-15.7c-2.5-13.8-7.8-26-14.6-34.8
			c-3.4-4.4-7.2-8-11.3-10.4c-4-2.5-8.4-3.9-12.7-3.9c-1,0-2,0.1-3,0.2l0,0l0,0c-3.2,0.5-6.2,1.8-8.8,3.6c-4,2.8-7.2,7-9.7,12.1
			c-2.5,5.1-4.2,11.1-5,17.8l1.7,0.2l0.3-1.7c-4.3-0.9-8.4-1.3-12.3-1.3c-6.2,0-11.8,1.1-16.6,3.3c-4.7,2.2-8.5,5.6-10.7,10l0,0
			L248.9,207.6"/>
		<path class="st41" d="M310.7,169.4c-3.1,0-5,0.8-5,0.8l-1.8,0.6l-3,2.4c0.9-0.1,1.8-0.1,2.7-0.1c6,0,11.9,1.6,17.1,4.7
			c5.7,3.3,10.8,7.7,15,12.8c-1.6-3-5.9-12.2-13.6-17.5C317.7,170.2,313.6,169.4,310.7,169.4"/>
		<path class="st31" d="M309,272.5c-0.2,0.1-0.5,0.2-0.6,0.3c-0.6,0.5-0.7,1.5-0.2,2.1c3.6,3.3,7,6.7,10.2,10.4
			c2.5,4.2,4.7,8.5,6.6,13c0.1,0.2,0.3,0.4,0.5,0.5c0.7,0.4,1.6,0.2,2-0.5l17.4-32L309,272.5z"/>
		<path class="st35" d="M309,272.5l-0.3-1.1c-0.4,0.1-0.8,0.3-1.1,0.6l0,0c-0.6,0.5-0.9,1.3-0.9,2c0,0.6,0.2,1.2,0.6,1.7l0,0.1
			l0.1,0.1c3.6,3.2,6.9,6.7,10.1,10.3l0.9-0.8l-1,0.6c2.4,4.2,4.6,8.5,6.5,12.9l0,0.1l0,0.1c0.2,0.4,0.5,0.7,0.9,0.9l0,0
			c0.4,0.3,0.9,0.4,1.4,0.4c0.9,0,1.8-0.5,2.3-1.3l0,0l18.5-34.2l-38.3,6.6l0,0L309,272.5l0.2,1.2l33.5-5.7l-16.2,29.9l1,0.6l-1-0.6
			c-0.1,0.1-0.2,0.2-0.3,0.2l-0.2,0l0,0l-0.1-0.1l-1,0.6l1.1-0.5c-2-4.5-4.2-8.9-6.7-13.1l-0.1-0.1l-0.1-0.1
			c-3.2-3.7-6.6-7.2-10.3-10.5l-0.8,0.9l0.9-0.8l-0.1-0.2c0-0.1,0-0.2,0.1-0.2l0,0l0.1-0.1L309,272.5l0.2,1.2L309,272.5z"/>
		<path class="st31" d="M336.5,270.3c0.2,1.9,1.9,3.2,3.8,3l29.1-5c0.2-0.1,0.5-0.2,0.6-0.3c0.6-0.5,0.7-1.5,0.2-2.1
			c0,0-7.5-7.9-9.6-10.9c-2.1-2.9-7.2-12.6-7.2-12.6c-0.1-0.2-0.3-0.4-0.5-0.5c-0.7-0.4-1.6-0.2-2,0.5l-14.1,26
			C336.5,269,336.4,269.7,336.5,270.3z"/>
		<path class="st35" d="M336.5,270.3l-1.2,0.1c0.3,2.3,2.3,4,4.6,4c0.2,0,0.4,0,0.6,0l0,0l29.2-5l0,0c0.4-0.1,0.8-0.3,1.1-0.6l0,0
			l0,0c0.6-0.5,0.9-1.3,0.9-2c0-0.6-0.2-1.2-0.6-1.7l0,0l0,0c0,0-0.5-0.5-1.2-1.3c-1.1-1.2-2.8-3-4.4-4.8c-1.6-1.8-3.2-3.6-3.9-4.6
			l0,0c-0.5-0.7-1.2-1.8-1.9-3.1c-1.1-2-2.4-4.3-3.4-6.1c-0.5-0.9-0.9-1.7-1.2-2.3c-0.3-0.6-0.5-0.9-0.5-0.9l0,0l0,0
			c-0.2-0.4-0.5-0.7-0.9-0.9l0,0c-0.4-0.3-0.9-0.4-1.4-0.4c-0.9,0-1.8,0.5-2.3,1.3l0,0l-14.1,26l0,0c-0.3,0.6-0.4,1.3-0.4,2
			c0,0.2,0,0.4,0,0.6l0,0L336.5,270.3l1.2-0.1c0-0.1,0-0.2,0-0.3c0-0.3,0.1-0.7,0.2-1l-1.1-0.5l1,0.6l14.1-26l-1-0.6l1,0.6
			c0.1-0.1,0.2-0.2,0.3-0.2l0.2,0l0,0l0.1,0.1l1-0.6l-1,0.5c0,0,1.3,2.4,2.8,5.2c0.8,1.4,1.6,2.9,2.4,4.2c0.8,1.3,1.5,2.5,2.1,3.3
			l0,0c0.6,0.8,1.4,1.8,2.5,3c3,3.5,7.3,8,7.3,8l0.9-0.8l-0.9,0.8l0.1,0.2c0,0.1,0,0.2-0.1,0.2l0,0l-0.1,0.1l0.3,1.1l-0.2-1.2
			l-29.1,5l0.2,1.2l-0.1-1.2c-0.1,0-0.2,0-0.3,0c-1.1,0-2.1-0.8-2.2-2l0,0L336.5,270.3z"/>
		<path class="st32" d="M330.1,276.6c0,0-4.1,8.1,1.8,1.7c2.8-2.9,5.9-5.6,9.2-7.9c-4.9,0.4-9.5,2.1-13.5,4.9
			C322.1,280.1,330.1,276.6,330.1,276.6z"/>
		<path class="st32" d="M347.9,264.3c0,0,4.3-7.9-1.8-1.8c-2.9,2.8-6.1,5.4-9.5,7.6c4.9-0.2,9.6-1.7,13.6-4.4
			C356.1,261.1,347.9,264.3,347.9,264.3z"/>
		<path class="st31" d="M341.2,263.4l5.2,7.3c0.5,0.7,0.3,1.7-0.4,2.2l-7.6,5.5c-0.7,0.5-1.7,0.3-2.2-0.4l-5.2-7.3
			c-0.5-0.7-0.3-1.7,0.4-2.2l7.6-5.5C339.7,262.6,340.7,262.7,341.2,263.4z"/>
		<path class="st35" d="M341.2,263.4l-1,0.7l5.2,7.3l0.1,0.2c0,0.1-0.1,0.2-0.2,0.3l0,0l-7.6,5.5l0,0l-0.2,0.1
			c-0.1,0-0.2-0.1-0.3-0.2L332,270l0,0l-0.1-0.2c0-0.1,0.1-0.2,0.2-0.3l7.6-5.5l0,0l0.2-0.1c0.1,0,0.2,0.1,0.3,0.2l0,0L341.2,263.4
			l1-0.7c-0.5-0.7-1.4-1.1-2.2-1.1c-0.5,0-1.1,0.2-1.6,0.5l0,0l-7.6,5.5c-0.7,0.5-1.1,1.4-1.1,2.2c0,0.5,0.2,1.1,0.5,1.6l5.2,7.3
			l0,0c0.5,0.7,1.4,1.1,2.2,1.1c0.5,0,1.1-0.2,1.6-0.5l7.6-5.5l0,0c0.7-0.5,1.1-1.4,1.1-2.2c0-0.5-0.2-1.1-0.5-1.6l-5.2-7.3l0,0
			L341.2,263.4z"/>
		<path class="st42" d="M278.7,246.4c3.7,6.8,9.7,12.2,16.8,15.1c5.2,2,10.7,3,16.2,3c3,0,6.1-0.3,9.1-0.9l3-0.5l5.4-2.3
			c-2,0.2-4.1,0.2-6.1,0.2c-8.2,0-16.3-1.2-24.2-3.7C291.5,255.1,284.6,251.4,278.7,246.4"/>
		<path class="st1" d="M116.8,88.5c-0.6,0.4-1.5,0.3-2-0.4l-77-112.6l9-6.4l76.9,112.7l0,0c0.4,0.6,0.3,1.5-0.4,1.9L116.8,88.5
			L116.8,88.5"/>
		<path class="st37" d="M116.8,88.5l-0.9-1.2l0.1,0.1v-0.1l-0.1,0l0.1,0.1v-0.1v0.1l0.1-0.1l-0.1,0v0.1l0.1-0.1l0,0L40-24.1l6.5-4.7
			l76.1,111.4l0,0l1.2-0.9l-1.2,0.9l0.1-0.1h-0.2l0,0.1l0.1-0.1h-0.2h0.2l-0.1-0.1l-0.1,0.1h0.2l-0.1-0.1l0,0l-6.6,4.7l0,0
			L116.8,88.5l-0.9-1.2L116.8,88.5l0.9,1.2l0,0l6.6-4.7l-0.9-1.2l0.9,1.2c0.8-0.6,1.2-1.5,1.2-2.4c0-0.6-0.2-1.1-0.5-1.6l0,0l0,0
			L47.3-33l-11.4,8.2L113.7,89l0,0c0.6,0.8,1.5,1.3,2.4,1.3c0.6,0,1.1-0.2,1.6-0.5l0,0l0,0L116.8,88.5"/>
		<path class="st4" d="M50.1-22.4c-0.3,0.2-0.5,0.5-0.8,0.7c-0.4,0.3-0.8,0.6-1.1,0.9L120.5,84l2-1.4l-3-4.4L50.1-22.4"/>
		<polyline class="st38" points="119.5,78.2 122.5,82.6 120.5,84 120.6,84.1 122.6,82.7 119.5,78.2 		"/>
		<path class="st39" d="M-39.3-79.9C-33.9-90.6-19-94.4-1.6-90.9c2.2-17.3,10.3-30.1,22-32c16.8-2.6,34.6,18.7,39.7,47.4
			c5.1,28.7-4.3,54.1-21.2,56.7c-0.6,0.1-1.3,0.2-1.9,0.2C25.1-16.2,8.9-19-6.7-27.4C-32.4-41.1-47.1-64.6-39.3-79.9"/>
		<path class="st40" d="M-39.3-79.9l1.6,0.8c1.9-3.7,5-6.5,9.1-8.4c4.1-1.9,9.3-3,15.1-2.9C-9.9-90.4-6-90-2-89.2l1.9,0.4l0.2-1.9
			c1.1-8.5,3.6-15.7,7.2-21c1.8-2.7,3.8-4.8,6.1-6.4c2.2-1.6,4.7-2.6,7.3-3l0,0c0.8-0.1,1.7-0.2,2.5-0.2c3.6,0,7.3,1.2,10.9,3.4
			c5.4,3.3,10.6,9,14.9,16.4c4.3,7.4,7.6,16.4,9.4,26.4c0.9,5.2,1.4,10.2,1.4,15c0,10.7-2.2,20.3-5.9,27.3c-1.9,3.5-4.1,6.4-6.7,8.4
			c-2.5,2.1-5.4,3.4-8.5,3.9l0,0l0,0c-0.5,0.1-1,0.1-1.5,0.1l-0.1,0l-0.2,0l-0.2,0c-2.6,0.5-5.5,0.8-8.5,0.8
			c-10.1,0-22.2-3.1-33.9-9.4l0,0C-16.2-34.4-24.7-41.6-30.6-49c-5.9-7.4-9.1-15.2-9.1-21.9c0-3,0.6-5.7,1.9-8.2l0,0L-39.3-79.9
			l-1.6-0.8c-1.5,3-2.3,6.4-2.3,9.8c0,7.8,3.6,16.1,9.8,24c6.2,7.9,15.1,15.3,25.8,21l0,0C4.7-19.3,17.3-16,28.1-16
			c3.3,0,6.3-0.3,9.2-0.9l-0.4-1.7l0,1.8l0.2,0c0.7,0,1.4-0.1,2.1-0.2l-0.3-1.7l0.3,1.7c3.8-0.6,7.2-2.2,10.2-4.6
			c4.5-3.7,7.9-9.1,10.3-15.7c2.4-6.6,3.6-14.3,3.6-22.7c0-5-0.5-10.3-1.4-15.7c-2.5-13.8-7.8-26-14.6-34.8
			c-3.4-4.4-7.2-8-11.3-10.4c-4-2.5-8.4-3.9-12.7-3.9c-1,0-2,0.1-3,0.2l0,0c-3.2,0.5-6.2,1.8-8.8,3.6c-4,2.8-7.2,7-9.7,12.1
			c-2.5,5.1-4.2,11.1-5,17.8l1.7,0.2l0.3-1.7c-4.3-0.9-8.4-1.3-12.3-1.3c-6.2,0-11.8,1.1-16.6,3.3c-4.7,2.2-8.5,5.6-10.7,10l0,0l0,0
			L-39.3-79.9"/>
		<path class="st41" d="M22.5-118c-3.1,0-5,0.8-5,0.8l-1.8,0.6l-3,2.4c0.9-0.1,1.8-0.1,2.7-0.1c6,0,11.9,1.6,17.1,4.7
			c5.7,3.3,10.8,7.7,15,12.8c-1.6-3-5.9-12.2-13.6-17.5C29.5-117.2,25.5-118,22.5-118"/>
		<path class="st31" d="M20.8-15c-0.2,0.1-0.5,0.2-0.6,0.3c-0.6,0.5-0.7,1.5-0.2,2.1c3.6,3.3,7,6.7,10.2,10.4
			c2.5,4.2,4.7,8.5,6.6,13c0.1,0.2,0.3,0.4,0.5,0.5c0.7,0.4,1.6,0.2,2.1-0.5l17.4-32L20.8-15z"/>
		<path class="st35" d="M20.8-15l-0.3-1.1c-0.4,0.1-0.8,0.3-1.1,0.6l0,0c-0.6,0.5-0.9,1.3-0.9,2c0,0.6,0.2,1.2,0.6,1.7l0,0.1
			l0.1,0.1C22.8-8.5,26.1-5,29.3-1.4l0.9-0.8l-1,0.6c2.4,4.2,4.6,8.5,6.5,12.9l0,0.1l0,0.1c0.2,0.4,0.5,0.7,0.9,0.9l0,0
			c0.4,0.3,0.9,0.4,1.4,0.4c0.9,0,1.8-0.5,2.3-1.3l0,0l18.5-34.2l-38.3,6.6l0,0L20.8-15l0.2,1.2l33.5-5.7L38.3,10.3l1,0.6l-1-0.6
			c-0.1,0.1-0.2,0.2-0.3,0.2l-0.2,0l0,0l-0.1-0.1l-1,0.6l1.1-0.5c-2-4.5-4.2-8.9-6.7-13.1l-0.1-0.1l-0.1-0.1
			c-3.2-3.7-6.6-7.2-10.3-10.5L20-12.6l0.9-0.8l-0.1-0.2c0-0.1,0-0.2,0.1-0.2l0,0l0.1-0.1L20.8-15l0.2,1.2L20.8-15z"/>
		<path class="st31" d="M48.3-17.1c0.2,1.9,1.9,3.2,3.8,3l29.1-5c0.2-0.1,0.5-0.2,0.6-0.3c0.6-0.5,0.7-1.5,0.2-2.1
			c0,0-7.5-7.9-9.6-10.9S65.2-45,65.2-45c-0.1-0.2-0.3-0.4-0.5-0.5c-0.7-0.4-1.6-0.2-2.1,0.5L48.6-19C48.3-18.4,48.2-17.8,48.3-17.1
			z"/>
		<path class="st35" d="M48.3-17.1L47.1-17c0.3,2.3,2.3,4,4.6,4c0.2,0,0.4,0,0.6,0l0,0l29.2-5l0,0c0.4-0.1,0.8-0.3,1.1-0.6l0,0
			c0.6-0.5,0.9-1.3,0.9-2c0-0.6-0.2-1.2-0.6-1.7l0,0l0,0c0,0-0.5-0.5-1.2-1.3c-1.1-1.2-2.8-3-4.4-4.8c-1.6-1.8-3.2-3.6-3.9-4.6
			c-0.5-0.7-1.2-1.8-1.9-3.1c-1.1-2-2.4-4.3-3.4-6.1c-0.5-0.9-0.9-1.7-1.2-2.3c-0.3-0.6-0.5-0.9-0.5-0.9l0,0l0,0
			c-0.2-0.4-0.5-0.7-0.9-0.9l0,0c-0.4-0.3-0.9-0.4-1.4-0.4c-0.9,0-1.8,0.5-2.3,1.3l0,0l-14.1,26l0,0c-0.3,0.6-0.4,1.3-0.4,2
			c0,0.2,0,0.4,0,0.6L48.3-17.1l1.2-0.1c0-0.1,0-0.2,0-0.3c0-0.3,0.1-0.7,0.2-1L48.6-19l1,0.6l14.1-26l-1-0.6l1,0.6
			c0.1-0.1,0.2-0.2,0.3-0.2l0.2,0l0,0l0.1,0.1l1-0.6l-1,0.5c0,0,1.3,2.4,2.8,5.2c0.8,1.4,1.6,2.9,2.4,4.2c0.8,1.3,1.5,2.5,2.1,3.3
			c0.6,0.8,1.4,1.8,2.5,3c3,3.5,7.3,8,7.3,8l0.9-0.8l-0.9,0.8l0.1,0.2c0,0.1,0,0.2-0.1,0.2l0,0L81-20.3l0.3,1.1L81-20.3l-29.1,5
			l0.2,1.2L52-15.3c-0.1,0-0.2,0-0.3,0c-1.1,0-2.1-0.8-2.2-2L48.3-17.1z"/>
		<path class="st32" d="M42-10.8c0,0-4.1,8.1,1.8,1.7c2.8-2.9,5.9-5.6,9.2-7.9c-4.9,0.4-9.5,2.1-13.5,4.9C33.9-7.3,42-10.8,42-10.8z
			"/>
		<path class="st32" d="M59.8-23.1c0,0,4.3-7.9-1.8-1.8c-2.9,2.8-6.1,5.4-9.5,7.6c4.9-0.2,9.6-1.7,13.6-4.4
			C67.9-26.3,59.8-23.1,59.8-23.1z"/>
		<path class="st31" d="M53-24l5.2,7.3c0.5,0.7,0.3,1.7-0.4,2.2l-7.6,5.5c-0.7,0.5-1.7,0.3-2.2-0.4l-5.2-7.3
			c-0.5-0.7-0.3-1.7,0.4-2.2l7.6-5.5C51.5-24.9,52.5-24.7,53-24z"/>
		<path class="st35" d="M53-24l-1,0.7l5.2,7.3l0.1,0.2c0,0.1-0.1,0.2-0.2,0.3L49.6-10l0,0L49.3-10c-0.1,0-0.2-0.1-0.3-0.2l-5.2-7.3
			l-0.1-0.2c0-0.1,0.1-0.2,0.2-0.3l7.6-5.5l0,0l0.2-0.1c0.1,0,0.2,0.1,0.3,0.2L53-24l1-0.7c-0.5-0.7-1.4-1.1-2.2-1.1
			c-0.5,0-1.1,0.2-1.6,0.5l-0.1,0l-7.6,5.4l0,0c-0.7,0.5-1.1,1.4-1.1,2.2c0,0.5,0.2,1.1,0.5,1.6l5.2,7.3c0.5,0.7,1.4,1.1,2.2,1.1
			c0.5,0,1.1-0.2,1.6-0.5l0,0l7.6-5.5c0.7-0.5,1.1-1.4,1.1-2.2c0-0.5-0.2-1.1-0.5-1.6L54-24.7L53-24z"/>
		<path class="st42" d="M-9.5-41.1c3.7,6.8,9.7,12.2,16.8,15.1c5.2,2,10.7,3,16.2,3c3,0,6.1-0.3,9.1-0.9l3-0.5l5.4-2.3
			c-2,0.2-4.1,0.2-6.1,0.2c-8.2,0-16.3-1.2-24.2-3.7C3.3-32.4-3.6-36.1-9.5-41.1"/>
		<path class="st1" d="M96-8l4-6.5c0.4-0.7,1.1-0.8,1.8-0.4l112.3,66l-5.5,9L96.5-5.9C95.6-6.4,95.6-7.4,96-8"/>
		<path class="st2" d="M96-8l1.2,0.8l4-6.5l0,0l-0.1-0.1l0.1,0.2l0.1,0l-0.1-0.1l0.1,0.2l-0.1-0.3v0.3l0.1,0l-0.1-0.3v0.3v-0.2
			l0,0.2l0,0v-0.2l0,0.2l0,0l0,0l111,65.2l-4,6.5L97.2-7.1l-0.7,1.2l0.8-1.2l-0.1-0.1h0l0-0.1L96-8l-1.2-0.8c-0.3,0.5-0.5,1-0.5,1.6
			c0,0.5,0.1,1,0.4,1.4c0.2,0.4,0.6,0.8,1.1,1.1l0,0L209,61.9l7.1-11.4L102.6-16.2l-0.7,1.2l0.8-1.2c-0.4-0.3-1-0.4-1.5-0.4
			c-0.5,0-0.9,0.1-1.3,0.4c-0.4,0.2-0.7,0.6-1,1l-4,6.5L96-8"/>
		<path class="st43" d="M304.5,113.3c-16.7,27-52.1,35.4-79.1,18.7S190,79.9,206.7,52.9s52.1-35.4,79.1-18.7
			C312.8,50.9,321.1,86.3,304.5,113.3z"/>
		<polyline class="st4" points="101.2,-13.7 99.3,-10.6 205.3,52.3 207.2,49.2 118.9,-3.3 101.2,-13.7 		"/>
		<polyline class="st5" points="101.1,-13.8 99.2,-10.7 99.3,-10.6 101.2,-13.7 118.9,-3.3 101.1,-13.8 		"/>
		<path class="st6" d="M200.1,78.6c4.9-30.4,61.9-57.1,88-26.1c15.6,18.3,12.8,38.9-5.7,53.8c-12.2,9.8-35,10.6-45.9-2.4
			c-7.7-9.1-9.7-32,10.5-39.1c20.9-7.2,36,18.5,21.4,26.5c-4,2.5-9.4,2.2-13.2-0.7c-7.7-7.6,4.7-13.5,5.8-4.8l-0.6,0.5
			c8.1-4-1.3-13.5-9.3-10.1c-9.9,4.4-10.5,21.1,0.7,25.9c11.3,4.8,20.7,0.1,27.6-5.6c11.4-9.4,12-31-3.1-40.6
			c-13.6-8.1-30.8-7.9-44,1c-24.6,15.8-19.7,50.4,0.3,63.1c23.5,15.1,46.9,8.8,63.4-5.4c20.6-18.3,20.2-52.3,2.8-70.2
			c-21.8-22.4-58.1-26.3-83.5-3.3C203.1,52.3,197,78.2,200.1,78.6z"/>
		<path class="st44" d="M304.5,113.3l-1.1-0.7c-10.6,17.2-29,26.6-47.8,26.6c-10.1,0-20.3-2.7-29.5-8.4
			c-17.2-10.6-26.6-29-26.6-47.8c0-10.1,2.7-20.3,8.4-29.5c10.6-17.2,29-26.6,47.8-26.6c10.1,0,20.3,2.7,29.5,8.4
			c17.2,10.6,26.6,29,26.6,47.8c0,10.1-2.7,20.3-8.4,29.5L304.5,113.3l1.1,0.7c5.9-9.6,8.8-20.3,8.8-30.8c0-19.7-9.9-38.9-27.9-50
			c-9.6-5.9-20.3-8.8-30.8-8.8c-19.7,0-38.9,9.9-50,27.9c-5.9,9.6-8.8,20.3-8.8,30.8c0,19.7,9.9,38.9,27.9,50
			c9.6,5.9,20.3,8.8,30.8,8.8c19.7,0,38.9-9.9,50-27.9L304.5,113.3z"/>
		<path class="st39" d="M197.7,51.4l-27.2-0.7c-0.4,0.1-0.7-0.4-0.5-0.6s0.3-0.4,0.3-0.4l13.1-8.6l17.2,8.8L197.7,51.4z"/>
		<path class="st45" d="M197.7,51.4l0-1l-27.3-0.7l-0.1,0l0.1,0.6l0-0.6l-0.1,0l0.1,0.6l0-0.6v0.6l0.3-0.5c-0.1,0-0.2-0.1-0.3-0.1
			v0.6l0.3-0.5l-0.2,0.4l0.4-0.2c0,0-0.1-0.1-0.2-0.1l-0.2,0.4l0.4-0.2l-0.4,0.3l0.5,0c0-0.2,0-0.2-0.1-0.3l-0.4,0.3l0.5,0h-0.8
			l0.6,0.4c0.1-0.2,0.1-0.3,0.1-0.4h-0.8l0.6,0.4l0,0c0.1-0.2,0.3-0.4,0.3-0.4l-0.9-0.5l0.6,0.8l12.6-8.3l15,7.7l-1.3,0.7
			L197.7,51.4l0-1L197.7,51.4l0.5,0.9l4.5-2.6l-19.4-9.9l-13.8,9.1l-0.1,0.2c0,0-0.1,0.2-0.3,0.4l0,0c-0.1,0.2-0.2,0.5-0.2,0.7
			c0,0.4,0.2,0.7,0.4,1c0.1,0.1,0.3,0.3,0.4,0.4c0.2,0.1,0.4,0.2,0.7,0.2c0.1,0,0.2,0,0.3,0l-0.2-1l0,1l27.4,0.7l0.2-0.1L197.7,51.4
			z"/>
		<path class="st39" d="M201.1,45.4l-15.9-25.9c-0.1-0.4-0.7-0.4-0.8-0.2s-0.3,0.4-0.3,0.4l-1.7,15.3l18.8,13.8L201.1,45.4z"/>
		<path class="st45" d="M201.1,45.4l0.8-0.5L186.1,19l-0.8,0.5l1-0.2c-0.1-0.4-0.4-0.7-0.6-0.9c-0.3-0.2-0.5-0.2-0.8-0.2
			c-0.2,0-0.4,0-0.6,0.1c-0.2,0.1-0.4,0.2-0.6,0.5c-0.1,0.2-0.3,0.4-0.3,0.4l-0.1,0.2l-1.8,16.1l20.8,15.3l-0.1-5.7l-0.1-0.2
			L201.1,45.4l-1,0l0,1.5l-16.7-12.2l1.7-14.8l-1-0.1l0.8,0.5c0,0,0.1-0.2,0.3-0.4l-0.6-0.4l0.3,0.7c0.1,0,0.2-0.1,0.3-0.3l-0.6-0.4
			l0.3,0.7l-0.2-0.5l0,0.5l0.2,0l-0.2-0.5l0,0.5v-0.4l-0.2,0.3c0.1,0.1,0.1,0.1,0.2,0.1v-0.4l-0.2,0.3l0.3-0.5l-0.6,0.1
			c0,0.2,0.2,0.3,0.3,0.4l0.3-0.5l-0.6,0.1l0,0.2l16,26.1L201.1,45.4l-1,0L201.1,45.4z"/>
		<path class="st39" d="M205.9,45.3l-26.2,17.9c-0.5,0.3-0.7,1.1-0.5,1.8c0.2,0.1,0.2,0.1,0.4,0.3c3.8,1.4,7.3,2.7,10.8,4.5
			c3.1,2.5,6.2,5.1,8.9,7.7c0.7,0.4,1.4,0.2,1.8-0.4c0.1-0.2,0.1-0.2,0.3-0.4L205.9,45.3z"/>
		<path class="st45" d="M205.9,45.3l-0.6-0.8l-26.2,17.9l0.6,0.8l-0.5-0.8c-0.4,0.3-0.7,0.6-0.8,1c-0.2,0.4-0.2,0.8-0.2,1.2
			c0,0.3,0,0.5,0.1,0.8l0.1,0.4l0.3,0.2c0.2,0.1,0.2,0.1,0.4,0.3l0.1,0.1l0.1,0c3.8,1.4,7.3,2.7,10.7,4.5l0.5-0.9l-0.6,0.8
			c3.1,2.5,6.2,5,8.8,7.6l0.1,0.1l0.1,0.1c0.4,0.2,0.8,0.4,1.3,0.4c0.4,0,0.8-0.1,1.1-0.3c0.3-0.2,0.6-0.5,0.8-0.8l0,0l0,0
			c0.1-0.2,0.1-0.2,0.3-0.4l0.1-0.2l4.8-33.7l-1.9,1.3L205.9,45.3l-1-0.1l-4.5,31.3l1,0.1l-0.8-0.5c-0.1,0.2-0.1,0.2-0.3,0.4l0,0
			c-0.1,0.1-0.1,0.1-0.1,0.2l-0.1,0c0,0-0.1,0-0.2-0.1l-0.5,0.8l0.7-0.7c-2.8-2.6-5.9-5.2-9-7.7l-0.1-0.1l-0.1,0
			c-3.6-1.9-7.2-3.2-11-4.6l-0.3,0.9l0.5-0.8c-0.2-0.1-0.2-0.1-0.4-0.3l-0.5,0.8l1-0.2c0-0.1,0-0.2,0-0.3c0-0.2,0-0.3,0.1-0.4l0-0.1
			l0,0l0,0l0,0.1l0,0l0,0l0,0.1l0,0l26.2-17.9L205.9,45.3l-1-0.1L205.9,45.3z"/>
		<path class="st39" d="M204.3,52.4L225.6,38c0.6-0.5,0.7-1.1,0.3-2c-0.2-0.1-0.2-0.1-0.4-0.3c0,0-8.1-3.5-10.6-5
			c-2.5-1.5-9.2-7.2-9.2-7.2c-0.7-0.4-1.4-0.2-1.8,0.4c-0.1,0.2-0.1,0.2-0.3,0.4L200,49.7c-0.2,1.4,0.8,2.7,2.2,2.9
			C203.1,52.8,203.6,52.9,204.3,52.4z"/>
		<path class="st45" d="M204.3,52.4l0.6,0.8l21.3-14.4l0,0c0.3-0.2,0.5-0.5,0.7-0.8c0.2-0.3,0.2-0.7,0.2-1c0-0.5-0.1-0.9-0.3-1.4
			l-0.1-0.3l-0.3-0.2c-0.2-0.1-0.2-0.1-0.4-0.3l-0.1,0l-0.1,0c0,0-0.5-0.2-1.3-0.6c-1.2-0.5-3-1.3-4.8-2.2c-1.8-0.8-3.5-1.7-4.3-2.2
			c-0.6-0.3-1.4-1-2.4-1.7c-1.4-1.1-3.1-2.5-4.4-3.5c-0.7-0.5-1.2-1-1.6-1.3c-0.4-0.3-0.6-0.5-0.6-0.5l-0.1,0l-0.1,0
			c-0.4-0.2-0.8-0.4-1.3-0.4c-0.4,0-0.8,0.1-1.1,0.3c-0.3,0.2-0.6,0.5-0.8,0.8c-0.1,0.2-0.1,0.2-0.3,0.4l-0.1,0.2L199,49.6l1,0.1
			l-1-0.2c0,0.2,0,0.4,0,0.6c0,0.9,0.4,1.7,0.9,2.3c0.6,0.6,1.3,1,2.2,1.2l0.2-1l-0.2,1c0.4,0.1,0.7,0.2,1.1,0.2
			c0.3,0,0.6,0,0.9-0.2c0.3-0.1,0.6-0.3,0.9-0.5L204.3,52.4l0.6,0.8L204.3,52.4l-0.6-0.8c-0.1,0.1-0.2,0.1-0.3,0.2
			c-0.1,0-0.1,0-0.2,0c-0.1,0-0.4,0-0.7-0.1l0,0l0,0c-0.4-0.1-0.8-0.3-1-0.6c-0.3-0.3-0.4-0.6-0.4-1l0-0.2l0,0l3.6-25.4l-1-0.1
			l0.8,0.5c0.1-0.2,0.1-0.2,0.3-0.4c0.1-0.1,0.1-0.1,0.1-0.2l0.1,0c0,0,0.1,0,0.2,0.1l0.5-0.8l-0.6,0.8c0,0,1.7,1.4,3.7,3.1
			c1,0.8,2.1,1.7,3.1,2.4c1,0.8,1.9,1.4,2.6,1.8c0.7,0.4,1.7,0.9,2.8,1.5c3.4,1.6,7.9,3.6,7.9,3.6l0.4-0.9l-0.5,0.8
			c0.2,0.1,0.2,0.1,0.4,0.3l0.5-0.8l-0.9,0.4c0.1,0.3,0.2,0.5,0.2,0.5l0,0.1c0,0-0.1,0.1-0.2,0.2l0.6,0.8l-0.6-0.8l-21.3,14.4l0,0
			L204.3,52.4z"/>
		<path class="st46" d="M198.7,61c2.2-3.6,3.5-7.7,3.8-12.2c-1.9,3.1-4,5.9-6.4,8.8c-5.1,5.8,1.5,1.6,1.5,1.6S194.9,66.1,198.7,61z"
			/>
		<path class="st46" d="M206.3,40.6c-2.2,3.6-3.3,7.9-3.5,12.1c1.9-3.1,3.7-6.1,6.1-8.9c4.9-5.9-1.7-1.3-1.7-1.3
			S210,35.1,206.3,40.6z"/>
		<path class="st39" d="M208.7,50.2l-4.4,7.2c-0.4,0.7-1.1,0.8-1.8,0.4l-6.1-3.7c-0.7-0.4-0.8-1.1-0.4-1.8l4.4-7.2
			c0.4-0.7,1.1-0.8,1.8-0.4l6.1,3.7C208.8,48.6,209.2,49.5,208.7,50.2z"/>
		<path class="st45" d="M208.7,50.2l-0.8-0.5l-4.4,7.2c-0.1,0.1-0.1,0.1-0.1,0.2l-0.1,0c0,0-0.1,0-0.2-0.1l-6.1-3.7
			c-0.1-0.1-0.1-0.1-0.2-0.1l0-0.1c0,0,0-0.1,0.1-0.2l4.4-7.2c0.1-0.1,0.1-0.1,0.1-0.2l0.1,0c0,0,0.1,0,0.2,0.1l6.1,3.7l0-0.1l0,0.1
			l0,0l0-0.1l0,0.1l0.1,0.1l0.1,0.2l0,0.1L208.7,50.2l0.8,0.5c0.2-0.4,0.3-0.8,0.3-1.1c0-0.4-0.1-0.8-0.3-1.2
			c-0.2-0.3-0.4-0.6-0.8-0.8l-6.1-3.7c-0.4-0.2-0.8-0.4-1.3-0.4c-0.4,0-0.8,0.1-1.1,0.3c-0.3,0.2-0.6,0.5-0.8,0.8l-4.4,7.2
			c-0.2,0.4-0.4,0.8-0.4,1.3c0,0.4,0.1,0.8,0.3,1.1c0.2,0.3,0.5,0.6,0.8,0.8l6.1,3.7c0.4,0.2,0.8,0.4,1.3,0.4c0.4,0,0.8-0.1,1.1-0.3
			c0.3-0.2,0.6-0.5,0.8-0.8l4.4-7.2L208.7,50.2z"/>
		<path class="st47" d="M304.9,105.6c5.5-6.8,8-15.5,7.9-24.3c-0.7-8.8-4.2-17.2-9.9-24.1c3.2,7.9,4.4,16.4,3.9,24.7
			c-0.5,10.3-3.2,20.3-8.3,29.5l4.7-3.6L304.9,105.6z"/>
		<path class="st1" d="M96,279.8l4-6.5c0.4-0.7,1.1-0.8,1.8-0.4l112.3,66l-5.5,9L96.5,282C95.6,281.4,95.6,280.5,96,279.8"/>
		<path class="st2" d="M96,279.8l1.2,0.8l4-6.5l0,0l0,0l-0.1-0.1l0.1,0.2l0.1,0l-0.1-0.1l0.1,0.2l-0.1-0.3v0.3l0.1,0l-0.1-0.3v0.3
			v-0.2l0,0.2l0,0v-0.2l0,0.2l0,0l0,0l111,65.2l-4,6.5L97.2,280.8l-0.7,1.2l0.8-1.2l-0.1-0.1l0,0l0-0.1l0,0L96,279.8l-1.2-0.8
			c-0.3,0.5-0.5,1-0.5,1.6c0,0.5,0.1,1,0.4,1.4c0.2,0.4,0.6,0.8,1.1,1.1l0,0L209,349.8l7.1-11.4l-113.5-66.7l-0.7,1.2l0.8-1.2
			c-0.4-0.3-1-0.4-1.5-0.4c-0.5,0-0.9,0.1-1.3,0.4c-0.4,0.2-0.7,0.6-1,1l0,0l-4,6.5l0,0L96,279.8"/>
		<path class="st43" d="M304.5,401.2c-16.7,27-52.1,35.4-79.1,18.7s-35.4-52.1-18.7-79.1s52.1-35.3,79.1-18.7
			C312.8,338.8,321.1,374.2,304.5,401.2z"/>
		<polyline class="st4" points="101.2,274.2 99.3,277.2 205.3,340.2 207.2,337 118.9,284.6 101.2,274.2 		"/>
		<polyline class="st5" points="101.1,274 99.2,277.2 99.3,277.2 101.2,274.2 118.9,284.6 101.1,274 		"/>
		<path class="st6" d="M200.1,366.5c4.9-30.4,61.9-57.1,88-26.1c15.6,18.3,12.8,38.9-5.7,53.8c-12.2,9.8-35,10.6-45.9-2.4
			c-7.7-9.1-9.7-32,10.5-39.1c20.9-7.2,36,18.5,21.4,26.5c-4,2.5-9.4,2.2-13.2-0.7c-7.7-7.6,4.7-13.5,5.8-4.8l-0.6,0.5
			c8.1-4-1.3-13.5-9.3-10.1c-9.9,4.4-10.5,21.1,0.7,25.9c11.3,4.8,20.7,0.1,27.6-5.6c11.4-9.4,12-31-3.1-40.6
			c-13.6-8.1-30.8-7.9-44,1c-24.6,15.8-19.7,50.4,0.3,63.1c23.5,15.1,46.9,8.8,63.4-5.4c20.6-18.3,20.2-52.3,2.8-70.2
			c-21.8-22.4-58.1-26.3-83.5-3.3C203.1,340.1,197,366.1,200.1,366.5z"/>
		<path class="st44" d="M304.5,401.2l-1.1-0.7c-10.6,17.2-29,26.6-47.8,26.6c-10.1,0-20.3-2.7-29.5-8.4
			c-17.2-10.6-26.6-29-26.6-47.8c0-10.1,2.7-20.3,8.4-29.5c10.6-17.2,29-26.6,47.8-26.6c10.1,0,20.3,2.7,29.5,8.4
			c17.2,10.6,26.6,29,26.6,47.8c0,10.1-2.7,20.3-8.4,29.5L304.5,401.2l1.1,0.7c5.9-9.6,8.8-20.3,8.8-30.8c0-19.7-9.9-38.9-27.9-50
			c-9.6-5.9-20.3-8.8-30.8-8.8c-19.7,0-38.9,9.9-50,27.9c-5.9,9.6-8.8,20.3-8.8,30.8c0,19.7,9.9,38.9,27.9,50
			c9.6,5.9,20.3,8.8,30.8,8.8c19.7,0,38.9-9.9,50-27.9L304.5,401.2z"/>
		<path class="st39" d="M197.7,339.3l-27.2-0.7c-0.4,0.1-0.7-0.4-0.5-0.6c0.1-0.2,0.3-0.4,0.3-0.4l13.1-8.6l17.2,8.8L197.7,339.3z"
			/>
		<path class="st45" d="M197.7,339.3l0-1l-27.3-0.7l-0.1,0l0.1,0.6v-0.6l-0.1,0l0.1,0.6v-0.6v0.6l0.3-0.5c-0.1,0-0.2-0.1-0.3-0.1
			v0.6l0.3-0.5l-0.2,0.4l0.4-0.2c0,0-0.1-0.1-0.2-0.1l-0.2,0.4l0.4-0.2l-0.4,0.3h0.5c0-0.2,0-0.2-0.1-0.3l-0.4,0.3h0.5h-0.8l0.6,0.4
			c0.1-0.2,0.1-0.3,0.1-0.4h-0.8l0.6,0.4l0,0l0,0c0.1-0.2,0.3-0.4,0.3-0.4l-0.9-0.5l0.6,0.8l12.6-8.3l15,7.7l-1.3,0.7L197.7,339.3
			l0-1L197.7,339.3l0.5,0.9l4.5-2.6l-19.4-9.9l-13.8,9.1l-0.1,0.2c0,0-0.1,0.2-0.3,0.4l0,0c-0.1,0.2-0.2,0.5-0.2,0.7
			c0,0.4,0.2,0.7,0.4,1c0.1,0.1,0.3,0.3,0.4,0.4c0.2,0.1,0.4,0.2,0.7,0.2c0.1,0,0.2,0,0.3,0l-0.2-1l0,1l27.4,0.7l0.2-0.1
			L197.7,339.3z"/>
		<path class="st39" d="M201.1,333.3l-15.9-25.9c-0.1-0.4-0.7-0.4-0.8-0.2c-0.1,0.2-0.3,0.4-0.3,0.4l-1.7,15.3l18.8,13.8
			L201.1,333.3z"/>
		<path class="st45" d="M201.1,333.3l0.8-0.5l-15.9-25.9l-0.8,0.5l1-0.2c-0.1-0.4-0.4-0.7-0.6-0.9c-0.3-0.2-0.5-0.2-0.8-0.2
			c-0.2,0-0.4,0-0.6,0.1c-0.2,0.1-0.4,0.2-0.6,0.5l0,0c-0.1,0.2-0.3,0.4-0.3,0.4l-0.1,0.2l-1.8,16.1l20.8,15.3l-0.1-5.7l-0.1-0.2
			L201.1,333.3l-1,0l0,1.5l-16.7-12.2l1.7-14.8l-1-0.1l0.8,0.5c0,0,0.1-0.2,0.3-0.4l0,0l0,0l-0.6-0.4l0.3,0.7c0.1,0,0.2-0.1,0.3-0.3
			l-0.6-0.4l0.3,0.7l-0.2-0.5v0.5l0.2,0l-0.2-0.5v0.5v-0.4l-0.2,0.3c0.1,0.1,0.1,0.1,0.2,0.1v-0.4l-0.2,0.3l0.3-0.5l-0.6,0.1
			c0,0.2,0.2,0.3,0.3,0.4l0.3-0.5l-0.6,0.1l0,0.2l16,26.1L201.1,333.3l-1,0L201.1,333.3z"/>
		<path class="st39" d="M205.9,333.1L179.6,351c-0.5,0.3-0.7,1.1-0.5,1.8c0.2,0.1,0.2,0.1,0.4,0.3c3.8,1.4,7.3,2.7,10.8,4.5
			c3.1,2.5,6.2,5.1,8.9,7.7c0.7,0.4,1.4,0.2,1.8-0.4c0.1-0.2,0.1-0.2,0.3-0.4L205.9,333.1z"/>
		<path class="st45" d="M205.9,333.1l-0.6-0.8l-26.2,17.9l0.6,0.8l-0.5-0.8c-0.4,0.3-0.7,0.6-0.8,1c-0.2,0.4-0.2,0.8-0.2,1.2
			c0,0.3,0,0.5,0.1,0.8l0.1,0.4l0.3,0.2c0.2,0.1,0.2,0.1,0.4,0.3l0.1,0.1l0.1,0c3.8,1.4,7.3,2.7,10.7,4.5l0.5-0.9l-0.6,0.8
			c3.1,2.5,6.2,5,8.8,7.6l0.1,0.1l0.1,0.1c0.4,0.2,0.8,0.4,1.3,0.4c0.4,0,0.8-0.1,1.1-0.3c0.3-0.2,0.6-0.5,0.8-0.8l0,0
			c0.1-0.2,0.1-0.2,0.3-0.4l0.1-0.2l4.8-33.7l-1.9,1.3L205.9,333.1l-1-0.1l-4.5,31.3l1,0.1l-0.8-0.5c-0.1,0.2-0.1,0.2-0.3,0.4l0,0
			c-0.1,0.1-0.1,0.1-0.1,0.2l-0.1,0c0,0-0.1,0-0.2-0.1l-0.5,0.8l0.7-0.7c-2.8-2.6-5.9-5.2-9-7.7l-0.1-0.1l-0.1,0
			c-3.6-1.9-7.2-3.2-11-4.6l-0.3,0.9l0.5-0.8c-0.2-0.1-0.2-0.1-0.4-0.3l-0.5,0.8l1-0.2c0-0.1,0-0.2,0-0.3c0-0.2,0-0.3,0.1-0.4l0-0.1
			l0,0l0,0l0,0.1l0,0l0,0l0,0.1l0,0l26.2-17.9L205.9,333.1l-1-0.1L205.9,333.1z"/>
		<path class="st39" d="M204.3,340.2l21.3-14.4c0.6-0.5,0.7-1.1,0.3-2c-0.2-0.1-0.2-0.1-0.4-0.3c0,0-8.1-3.5-10.6-5
			c-2.5-1.5-9.2-7.2-9.2-7.2c-0.7-0.4-1.4-0.2-1.8,0.4c-0.1,0.2-0.1,0.2-0.3,0.4l-3.6,25.4c-0.2,1.4,0.8,2.7,2.2,2.9
			C203.1,340.7,203.6,340.8,204.3,340.2z"/>
		<path class="st45" d="M204.3,340.2l0.6,0.8l21.3-14.4l0,0c0.3-0.2,0.5-0.5,0.7-0.8c0.2-0.3,0.2-0.7,0.2-1c0-0.5-0.1-0.9-0.3-1.4
			l-0.1-0.3l-0.3-0.2c-0.2-0.1-0.2-0.1-0.4-0.3l-0.1,0l-0.1,0c0,0-0.5-0.2-1.3-0.6c-1.2-0.5-3-1.3-4.8-2.2c-1.8-0.8-3.5-1.7-4.3-2.2
			l0,0c-0.6-0.3-1.4-1-2.4-1.7c-1.4-1.1-3.1-2.5-4.4-3.5c-0.7-0.5-1.2-1-1.6-1.3c-0.4-0.3-0.6-0.5-0.6-0.5l-0.1,0l-0.1,0
			c-0.4-0.2-0.8-0.4-1.3-0.4c-0.4,0-0.8,0.1-1.1,0.3c-0.3,0.2-0.6,0.5-0.8,0.8l0,0c-0.1,0.2-0.1,0.2-0.3,0.4l-0.1,0.2l-3.6,25.6
			l1,0.1l-1-0.2c0,0.2,0,0.4,0,0.6c0,0.9,0.4,1.7,0.9,2.3c0.6,0.6,1.3,1,2.2,1.2l0.2-1l-0.2,1c0.4,0.1,0.7,0.2,1.1,0.2
			c0.3,0,0.6,0,0.9-0.2c0.3-0.1,0.6-0.3,0.9-0.5L204.3,340.2l0.6,0.8L204.3,340.2l-0.6-0.8c-0.1,0.1-0.2,0.1-0.3,0.2
			c-0.1,0-0.1,0-0.2,0c-0.1,0-0.4,0-0.7-0.1l0,0l0,0c-0.4-0.1-0.8-0.3-1-0.6c-0.3-0.3-0.4-0.6-0.4-1l0-0.2l0,0l3.6-25.4l-1-0.1
			l0.8,0.5c0.1-0.2,0.1-0.2,0.3-0.4l0,0c0.1-0.1,0.1-0.1,0.1-0.2l0.1,0c0,0,0.1,0,0.2,0.1l0.5-0.8l-0.6,0.8c0,0,1.7,1.4,3.7,3.1
			c1,0.8,2.1,1.7,3.1,2.4c1,0.8,1.9,1.4,2.6,1.8l0,0c0.7,0.4,1.7,0.9,2.8,1.5c3.4,1.6,7.9,3.6,7.9,3.6l0.4-0.9l-0.5,0.8
			c0.2,0.1,0.2,0.1,0.4,0.3l0.5-0.8l-0.9,0.4c0.1,0.3,0.2,0.5,0.2,0.5l0,0.1c0,0-0.1,0.1-0.2,0.2l0.6,0.8L225,325l-21.3,14.4l0,0
			L204.3,340.2z"/>
		<path class="st46" d="M198.7,348.8c2.2-3.6,3.5-7.7,3.8-12.2c-1.9,3.1-4,5.9-6.4,8.8c-5.1,5.8,1.5,1.6,1.5,1.6
			S194.9,353.9,198.7,348.8z"/>
		<path class="st46" d="M206.3,328.5c-2.2,3.6-3.3,7.9-3.5,12.1c1.9-3.1,3.7-6.1,6.1-8.9c4.9-5.9-1.7-1.3-1.7-1.3
			S210,323,206.3,328.5z"/>
		<path class="st39" d="M208.7,338l-4.4,7.2c-0.4,0.7-1.1,0.8-1.8,0.4l-6.1-3.7c-0.7-0.4-0.8-1.1-0.4-1.8l4.4-7.2
			c0.4-0.7,1.1-0.8,1.8-0.4l6.1,3.7C208.8,336.5,209.2,337.3,208.7,338z"/>
		<path class="st45" d="M208.7,338l-0.8-0.5l-4.4,7.2l0,0c-0.1,0.1-0.1,0.1-0.1,0.2l-0.1,0c0,0-0.1,0-0.2-0.1l-6.1-3.7l0,0
			c-0.1-0.1-0.1-0.1-0.2-0.1l0-0.1c0,0,0-0.1,0.1-0.2l0,0l4.4-7.2c0.1-0.1,0.1-0.1,0.1-0.2l0.1,0c0,0,0.1,0,0.2,0.1l6.1,3.7l0,0
			l0-0.1l0,0.1l0,0l0-0.1l0,0.1l0.1,0.1l0.1,0.2l0,0.1l0,0L208.7,338l0.8,0.5c0.2-0.4,0.3-0.8,0.3-1.1c0-0.4-0.1-0.8-0.3-1.2
			c-0.2-0.3-0.4-0.6-0.8-0.8l0,0l-6.1-3.7c-0.4-0.2-0.8-0.4-1.3-0.4c-0.4,0-0.8,0.1-1.1,0.3c-0.3,0.2-0.6,0.5-0.8,0.8l-4.4,7.2l0,0
			c-0.2,0.4-0.4,0.8-0.4,1.3c0,0.4,0.1,0.8,0.3,1.1c0.2,0.3,0.5,0.6,0.8,0.8l0,0l6.1,3.7c0.4,0.2,0.8,0.4,1.3,0.4
			c0.4,0,0.8-0.1,1.1-0.3c0.3-0.2,0.6-0.5,0.8-0.8l4.4-7.2l0,0L208.7,338z"/>
		<path class="st47" d="M304.9,393.4c5.5-6.8,8-15.5,7.9-24.3c-0.7-8.8-4.2-17.2-9.9-24.1c3.2,7.9,4.4,16.4,3.9,24.7
			c-0.5,10.3-3.2,20.3-8.3,29.5l4.7-3.6L304.9,393.4z"/>
		<path class="st1" d="M-191.7-8l4-6.5c0.4-0.7,1.1-0.8,1.8-0.4l112.3,66l-5.5,9l-112-65.8C-192.1-6.4-192.1-7.4-191.7-8"/>
		<path class="st2" d="M-191.7-8l1.2,0.8l4-6.5l0,0l-0.1-0.1l0.1,0.2l0.1,0l-0.1-0.1l0.1,0.2l-0.1-0.3v0.3l0.1,0l-0.1-0.3v0.3v-0.2
			l0,0.2l0,0v-0.2l0,0.2l0,0l0,0l111,65.2l-4,6.5L-190.5-7.1l-0.7,1.2l0.8-1.2l-0.1-0.1h0l0-0.1L-191.7-8l-1.2-0.8
			c-0.3,0.5-0.5,1-0.5,1.6c0,0.5,0.1,1,0.4,1.4c0.2,0.4,0.6,0.8,1.1,1.1l0,0l113.3,66.6l7.1-11.4l-113.5-66.7l-0.7,1.2l0.8-1.2
			c-0.4-0.3-1-0.4-1.5-0.4c-0.5,0-0.9,0.1-1.3,0.4c-0.4,0.2-0.7,0.6-1,1l-4,6.5L-191.7-8"/>
		<path class="st43" d="M16.7,113.3c-16.7,27-52.1,35.4-79.1,18.7S-97.7,79.9-81,52.9s52.1-35.4,79.1-18.7
			C25.1,50.9,33.4,86.3,16.7,113.3z"/>
		<polyline class="st4" points="-186.5,-13.7 -188.4,-10.6 -82.5,52.3 -80.6,49.2 -168.9,-3.3 -186.5,-13.7 		"/>
		<polyline class="st5" points="-186.6,-13.8 -188.5,-10.7 -188.4,-10.6 -186.5,-13.7 -168.9,-3.3 -186.6,-13.8 		"/>
		<path class="st6" d="M-87.6,78.6c4.9-30.4,61.9-57.1,88-26.1c15.6,18.3,12.8,38.9-5.7,53.8c-12.2,9.8-35,10.6-45.9-2.4
			c-7.7-9.1-9.7-32,10.5-39.1c20.9-7.2,36,18.5,21.4,26.5c-4,2.5-9.4,2.2-13.2-0.7c-7.7-7.6,4.7-13.5,5.8-4.8l-0.6,0.5
			c8.1-4-1.3-13.5-9.3-10.1c-9.9,4.4-10.5,21.1,0.7,25.9c11.3,4.8,20.7,0.1,27.6-5.6c11.4-9.4,12-31-3.1-40.6
			c-13.6-8.1-30.8-7.9-44,1C-80,72.8-75,107.4-55,120.1c23.5,15.1,46.9,8.8,63.4-5.4C29,96.5,28.7,62.5,11.2,44.6
			c-21.8-22.4-58.1-26.3-83.5-3.3C-84.6,52.3-90.7,78.2-87.6,78.6z"/>
		<path class="st44" d="M16.7,113.3l-1.1-0.7c-10.6,17.2-29,26.6-47.8,26.6c-10.1,0-20.3-2.7-29.5-8.4c-17.2-10.6-26.6-29-26.6-47.8
			c0-10.1,2.7-20.3,8.4-29.5C-69.3,36.4-50.9,27-32.1,27c10.1,0,20.3,2.7,29.5,8.4C14.6,46,24,64.4,24,83.2
			c0,10.1-2.7,20.3-8.4,29.5L16.7,113.3l1.1,0.7c5.9-9.6,8.8-20.3,8.8-30.8c0-19.7-9.9-38.9-27.9-50h0c-9.6-5.9-20.3-8.8-30.8-8.8
			c-19.7,0-38.9,9.9-50,27.9c-5.9,9.6-8.8,20.3-8.8,30.8c0,19.7,9.9,38.9,27.9,50c9.6,5.9,20.3,8.8,30.8,8.8
			c19.7,0,38.9-9.9,50-27.9L16.7,113.3z"/>
		<path class="st39" d="M-90,51.4l-27.2-0.7c-0.4,0.1-0.7-0.4-0.5-0.6s0.3-0.4,0.3-0.4l13.1-8.6l17.2,8.8L-90,51.4z"/>
		<path class="st45" d="M-90,51.4l0-1l-27.3-0.7l-0.1,0l0.1,0.6l0-0.6l-0.1,0l0.1,0.6l0-0.6v0.6l0.3-0.5c-0.1,0-0.2-0.1-0.3-0.1v0.6
			l0.3-0.5l-0.2,0.4l0.4-0.2c0,0-0.1-0.1-0.2-0.1l-0.2,0.4l0.4-0.2l-0.4,0.3h0.5c0-0.2,0-0.2-0.1-0.3l-0.4,0.3h0.5h-0.8l0.6,0.4
			c0.1-0.2,0.1-0.3,0.1-0.4h-0.8l0.6,0.4c0.1-0.2,0.3-0.4,0.3-0.4l-0.9-0.5l0.6,0.8l12.6-8.3l15,7.7l-1.3,0.7L-90,51.4l0-1L-90,51.4
			l0.5,0.9l4.5-2.6l-19.4-9.9l-13.8,9.1l-0.1,0.2c0,0-0.1,0.2-0.3,0.4c-0.1,0.2-0.2,0.5-0.2,0.7c0,0.4,0.2,0.7,0.4,1
			c0.1,0.1,0.3,0.3,0.4,0.4c0.2,0.1,0.4,0.2,0.7,0.2c0.1,0,0.2,0,0.3,0l-0.2-1l0,1l27.4,0.7l0.2-0.1L-90,51.4z"/>
		<path class="st39" d="M-86.6,45.4l-15.9-25.9c-0.1-0.4-0.7-0.4-0.8-0.2c-0.1,0.2-0.3,0.4-0.3,0.4l-1.7,15.3l18.8,13.8L-86.6,45.4z
			"/>
		<path class="st45" d="M-86.6,45.4l0.8-0.5L-101.6,19l-0.8,0.5l1-0.2c-0.1-0.4-0.4-0.7-0.6-0.9c-0.3-0.2-0.5-0.2-0.8-0.2
			c-0.2,0-0.4,0-0.6,0.1c-0.2,0.1-0.4,0.2-0.6,0.5l0,0l0,0c-0.1,0.2-0.3,0.4-0.3,0.4l-0.1,0.2l-1.8,16.1l20.8,15.3l-0.1-5.7
			l-0.1-0.2L-86.6,45.4l-1,0l0,1.5l-16.7-12.2l1.7-14.8l-1-0.1l0.8,0.5c0,0,0.1-0.2,0.3-0.4l0,0l-0.6-0.4l0.3,0.7
			c0.1,0,0.2-0.1,0.3-0.3l-0.6-0.4l0.3,0.7l-0.2-0.5l0,0.5c0,0,0.1,0,0.2,0l-0.2-0.5l0,0.5v-0.4l-0.2,0.3c0.1,0,0.1,0.1,0.2,0.1
			v-0.4l-0.2,0.3l0.3-0.5l-0.6,0.1c0,0.2,0.2,0.3,0.3,0.4l0.3-0.5l-0.6,0.1l0,0.2l16,26.1L-86.6,45.4l-1,0L-86.6,45.4z"/>
		<path class="st39" d="M-81.9,45.3l-26.2,17.9c-0.5,0.3-0.7,1.1-0.5,1.8c0.2,0.1,0.2,0.1,0.4,0.3c3.8,1.4,7.3,2.7,10.8,4.5
			c3.1,2.5,6.2,5.1,8.9,7.7c0.7,0.4,1.4,0.2,1.8-0.4c0.1-0.2,0.1-0.2,0.3-0.4L-81.9,45.3z"/>
		<path class="st45" d="M-81.9,45.3l-0.6-0.8l-26.2,17.9l0.6,0.8l-0.5-0.8c-0.4,0.3-0.7,0.6-0.8,1c-0.2,0.4-0.2,0.8-0.2,1.2
			c0,0.3,0,0.5,0.1,0.8l0.1,0.4l0.3,0.2c0.2,0.1,0.2,0.1,0.4,0.3l0.1,0.1l0.1,0c3.8,1.4,7.3,2.7,10.7,4.5l0.5-0.9l-0.6,0.8
			c3.1,2.5,6.2,5,8.8,7.6l0.1,0.1l0.1,0.1c0.4,0.2,0.8,0.4,1.3,0.4c0.4,0,0.8-0.1,1.1-0.3c0.3-0.2,0.6-0.5,0.8-0.8l0,0
			c0.1-0.2,0.1-0.2,0.3-0.4l0.1-0.2l4.8-33.7l-1.9,1.3L-81.9,45.3l-1-0.1l-4.5,31.3l1,0.1l-0.8-0.5c-0.1,0.2-0.1,0.2-0.3,0.4l0,0
			c-0.1,0.1-0.1,0.1-0.1,0.2l-0.1,0c0,0-0.1,0-0.2-0.1l-0.5,0.8l0.7-0.7c-2.8-2.6-5.9-5.2-9-7.7l-0.1-0.1l-0.1,0
			c-3.6-1.9-7.2-3.2-11-4.6l-0.3,0.9l0.5-0.8c-0.2-0.1-0.2-0.1-0.4-0.3l-0.5,0.8l1-0.2c0-0.1,0-0.2,0-0.3c0-0.2,0-0.3,0.1-0.4l0-0.1
			l0,0l0,0l0,0.1l0,0l0,0l0,0.1l0,0l26.2-17.9L-81.9,45.3l-1-0.1L-81.9,45.3z"/>
		<path class="st39" d="M-83.4,52.4L-62.1,38c0.6-0.5,0.7-1.1,0.3-2c-0.2-0.1-0.2-0.1-0.4-0.3c0,0-8.1-3.5-10.6-5
			c-2.5-1.5-9.2-7.2-9.2-7.2c-0.7-0.4-1.4-0.2-1.8,0.4c-0.1,0.2-0.1,0.2-0.3,0.4l-3.6,25.4c-0.2,1.4,0.8,2.7,2.2,2.9
			C-84.7,52.8-84.1,52.9-83.4,52.4z"/>
		<path class="st45" d="M-83.4,52.4l0.6,0.8l21.3-14.4l0,0c0.3-0.2,0.5-0.5,0.7-0.8c0.2-0.3,0.2-0.7,0.2-1c0-0.5-0.1-0.9-0.3-1.4
			l-0.1-0.3l-0.3-0.2c-0.2-0.1-0.2-0.1-0.4-0.3l-0.1,0l-0.1,0c0,0-0.5-0.2-1.3-0.6c-1.2-0.5-3-1.3-4.8-2.2c-1.8-0.8-3.5-1.7-4.3-2.2
			c-0.6-0.3-1.4-1-2.4-1.7c-1.4-1.1-3.1-2.5-4.4-3.5c-0.7-0.5-1.2-1-1.6-1.3c-0.4-0.3-0.6-0.5-0.6-0.5l-0.1,0l-0.1,0
			c-0.4-0.2-0.8-0.4-1.3-0.4c-0.4,0-0.8,0.1-1.1,0.3c-0.3,0.2-0.6,0.5-0.8,0.8l0,0c-0.1,0.2-0.1,0.2-0.3,0.4l-0.1,0.2l-3.6,25.6
			l1,0.1l-1-0.2c0,0.2,0,0.4,0,0.6c0,0.9,0.4,1.7,0.9,2.3c0.6,0.6,1.3,1,2.2,1.2l0.2-1l-0.2,1c0.4,0.1,0.7,0.2,1.1,0.2
			c0.3,0,0.6,0,0.9-0.2c0.3-0.1,0.6-0.3,0.9-0.5L-83.4,52.4l0.6,0.8L-83.4,52.4l-0.6-0.8c-0.1,0.1-0.2,0.1-0.3,0.2
			c-0.1,0-0.1,0-0.2,0c-0.1,0-0.4,0-0.7-0.1l0,0l0,0c-0.4-0.1-0.8-0.3-1-0.6c-0.3-0.3-0.4-0.6-0.4-1l0-0.2l0,0l3.6-25.4l-1-0.1
			l0.8,0.5c0.1-0.2,0.1-0.2,0.3-0.4l0,0c0.1-0.1,0.1-0.1,0.1-0.2l0.1,0c0,0,0.1,0,0.2,0.1l0.5-0.8l-0.6,0.8c0,0,1.7,1.4,3.7,3.1
			c1,0.8,2.1,1.7,3.1,2.4c1,0.8,1.9,1.4,2.6,1.8c0.7,0.4,1.7,0.9,2.8,1.5c3.4,1.6,7.9,3.6,7.9,3.6l0.4-0.9l-0.5,0.8
			c0.2,0.1,0.2,0.1,0.4,0.3l0.5-0.8l-0.9,0.4c0.1,0.3,0.2,0.5,0.2,0.5l0,0.1c0,0-0.1,0.1-0.2,0.2l0.6,0.8l-0.6-0.8L-84,51.6l0,0
			L-83.4,52.4z"/>
		<path class="st46" d="M-89.1,61c2.2-3.6,3.5-7.7,3.8-12.2c-1.9,3.1-4,5.9-6.4,8.8c-5.1,5.8,1.5,1.6,1.5,1.6S-92.8,66.1-89.1,61z"
			/>
		<path class="st46" d="M-81.4,40.6c-2.2,3.6-3.3,7.9-3.5,12.1c1.9-3.1,3.7-6.1,6.1-8.9c4.9-5.9-1.7-1.3-1.7-1.3
			S-77.7,35.1-81.4,40.6z"/>
		<path class="st39" d="M-79,50.2l-4.4,7.2c-0.4,0.7-1.1,0.8-1.8,0.4l-6.1-3.7c-0.7-0.4-0.8-1.1-0.4-1.8l4.4-7.2
			c0.4-0.7,1.1-0.8,1.8-0.4l6.1,3.7C-79,48.6-78.6,49.5-79,50.2z"/>
		<path class="st45" d="M-79,50.2l-0.8-0.5l-4.4,7.2c-0.1,0.1-0.1,0.1-0.1,0.2l-0.1,0c0,0-0.1,0-0.2-0.1l-6.1-3.7
			c-0.1-0.1-0.1-0.1-0.2-0.1l0-0.1c0,0,0-0.1,0.1-0.2l4.4-7.2c0.1-0.1,0.1-0.1,0.1-0.2l0.1,0c0,0,0.1,0,0.2,0.1l0,0l6.1,3.7l0,0
			l0-0.1l0,0.1l0,0l0-0.1l0,0.1l0.1,0.1l0.1,0.2l0,0.1L-79,50.2l0.8,0.5c0.2-0.4,0.3-0.8,0.3-1.2c0-0.4-0.1-0.8-0.3-1.2
			c-0.2-0.3-0.4-0.6-0.8-0.8l-6.1-3.7l0,0c-0.4-0.2-0.8-0.4-1.3-0.4c-0.4,0-0.8,0.1-1.1,0.3c-0.3,0.2-0.6,0.5-0.8,0.8l-4.4,7.2
			c-0.2,0.4-0.4,0.8-0.4,1.3c0,0.4,0.1,0.8,0.3,1.1c0.2,0.3,0.5,0.6,0.8,0.8l6.1,3.7c0.4,0.2,0.8,0.4,1.3,0.4c0.4,0,0.8-0.1,1.1-0.3
			c0.3-0.2,0.6-0.5,0.8-0.8l4.4-7.2L-79,50.2z"/>
		<path class="st47" d="M17.2,105.6c5.5-6.8,8-15.5,7.9-24.3c-0.7-8.8-4.2-17.2-9.9-24.1c3.2,7.9,4.4,16.4,3.9,24.7
			c-0.5,10.3-3.2,20.3-8.3,29.5l4.7-3.6L17.2,105.6z"/>
	</g>
</g>
</svg>
