<?xml version="1.0" encoding="utf-8"?>
<!-- Generator: Adobe Illustrator 24.0.1, SVG Export Plug-In . SVG Version: 6.00 Build 0)  -->
<svg version="1.1" id="Layer_3" xmlns="http://www.w3.org/2000/svg" xmlns:xlink="http://www.w3.org/1999/xlink" x="0px" y="0px"
	 viewBox="0 0 288 288" style="enable-background:new 0 0 288 288;" xml:space="preserve">
<style type="text/css">
	.st0{clip-path:url(#SVGID_2_);}
	.st1{fill:#F3A8B8;stroke:#E39FB0;stroke-width:1.989;stroke-miterlimit:10;}
	.st2{fill:#E39FB0;}
	.st3{fill:#F3A8B8;}
	.st4{fill:#FBF9EF;}
	.st5{fill:none;stroke:#E39FB0;stroke-width:1.8;stroke-miterlimit:10;}
	.st6{opacity:0.31;fill:#FBF9EF;enable-background:new    ;}
	.st7{clip-path:url(#SVGID_4_);}
	.st8{fill:#FBD433;stroke:#E9C52E;stroke-width:1.989;stroke-miterlimit:10;}
	.st9{fill:#E7C42F;}
	.st10{fill:#FBD433;}
	.st11{fill:none;stroke:#E9C52E;stroke-width:1.8;stroke-miterlimit:10;}
	.st12{clip-path:url(#SVGID_6_);}
	.st13{clip-path:url(#SVGID_8_);}
	.st14{fill:#69C2C8;stroke:#61B5B7;stroke-width:2.21;stroke-miterlimit:10;}
	.st15{fill:#63B9BB;}
	.st16{fill:#69C2C8;stroke:#5BA8A8;stroke-miterlimit:10;}
	.st17{fill:none;stroke:#61B5B7;stroke-width:2.21;stroke-miterlimit:10;}
	.st18{clip-path:url(#SVGID_10_);}
	.st19{clip-path:url(#SVGID_12_);}
	.st20{fill:#84CA97;stroke:#7EBD8B;stroke-width:1.989;stroke-miterlimit:10;}
	.st21{fill:#7DBB8B;}
	.st22{fill:#84CA97;}
	.st23{fill:none;stroke:#7BBA8A;stroke-width:1.8;stroke-miterlimit:10;}
	.st24{clip-path:url(#SVGID_14_);}
	.st25{fill:#F3A8B8;stroke:#E39FB0;stroke-width:2.21;stroke-miterlimit:10;}
	.st26{fill:none;stroke:#E39FB0;stroke-width:2;stroke-miterlimit:10;}
	.st27{clip-path:url(#SVGID_16_);}
	.st28{clip-path:url(#SVGID_18_);}
	.st29{fill:#ED4C64;stroke:#D94864;stroke-width:2.21;stroke-miterlimit:10;}
	.st30{fill:#DB4965;}
	.st31{fill:#ED4C64;}
	.st32{fill:none;stroke:#DD4B66;stroke-width:2;stroke-miterlimit:10;}
	.st33{clip-path:url(#SVGID_20_);}
	.st34{clip-path:url(#SVGID_22_);}
	.st35{fill:#FBD433;stroke:#E9C52E;stroke-width:2.21;stroke-miterlimit:10;}
	.st36{fill:none;stroke:#E9C52E;stroke-width:2;stroke-miterlimit:10;}
	.st37{clip-path:url(#SVGID_24_);}
</style>
<g>
	<g>
		<defs>
			<rect id="SVGID_1_" width="288" height="288"/>
		</defs>
		<clipPath id="SVGID_2_">
			<use xlink:href="#SVGID_1_"  style="overflow:visible;"/>
		</clipPath>
		<g class="st0">
			<path class="st1" d="M147.9,93.5c-3.9-1.1-28.8-3.6-33.1-3.9c-0.8-0.1-1.2,1.1-0.5,1.8l12.9,14l-7.6,11.2
				c-0.3,0.6-0.1,1.3,0.5,1.7c0,0,0.1,0,0.1,0.1l12.8,4.4l1.2,18.9c0.1,0.9,1.1,1.5,1.6,0.9l22.6-26.8L147.9,93.5z"/>
			<path class="st2" d="M148.7,116c4.3-4.7,5.1-10.7,5.4-12.7c-2.6,3.3-5.4,6.4-8.5,9.2c-6.8,6,1.8,1.5,1.8,1.5
				S143.6,121.5,148.7,116z"/>
			<path class="st2" d="M137.7,105.6c7.6,1.1,13.8-2.3,16-3.3c-5-0.3-10-1-14.9-2.2c-10.6-2.6-0.1,2.8-0.1,2.8
				S128.7,104.4,137.7,105.6z"/>
			<path class="st1" d="M238.3,75c3.9,1.2,28.8,3.6,33.1,3.9c0.8,0.1,1.1-1.1,0.5-1.8l-12.9-14l7.6-11.3c0.3-0.6,0.1-1.3-0.5-1.7
				H266l-12.8-4.4L252,26.9c-0.1-0.9-1.1-1.5-1.6-0.9l-22.6,26.9L238.3,75z"/>
			<path class="st2" d="M237.5,52.5c-4.3,4.7-5.1,10.7-5.4,12.7c2.6-3.3,5.4-6.4,8.5-9.2c6.8-6-1.8-1.5-1.8-1.5S242.6,47,237.5,52.5
				z"/>
			<path class="st2" d="M248.5,62.8c-7.6-1.1-13.8,2.3-16,3.3c5,0.3,10,1,14.9,2.2c10.6,2.6,0.1-2.8,0.1-2.8S257.5,64.1,248.5,62.8z
				"/>
			<path class="st3" d="M148.1,103.7c-12.6-24.4-3-54.5,21.4-67.1s54.5-3,67.1,21.4s3,54.5-21.4,67.1l0,0
				C190.7,137.7,160.7,128.1,148.1,103.7L148.1,103.7z"/>
			<path class="st4" d="M193.2,81c0.9,8.6,3.8,16.8,8.5,24c8.8,13,21,16,19.9,15.6c0,0-6.7,5.2-13.1,7.4c-4.2,1.4-8.6,2.2-13.1,2.5
				c-5.2-7.4-8.1-16-8.5-25C186.7,97,188.9,88.5,193.2,81"/>
			<path class="st4" d="M193.4,80.9c7.9,3.1,16.5,4.1,24.9,3.1c15.2-2.2,22.9-12,22.2-11.2c0,0,1.8,8.4,1.1,15.3
				c-0.5,4.5-1.6,8.9-3.2,13.1c-8.7,1.4-17.7,0.2-25.7-3.5C204.8,94,198.2,88.2,193.4,80.9"/>
			<path class="st4" d="M193.6,80.4c6.9-5.1,12.4-11.7,16.1-19.5c6.5-14.2,2.7-26.3,2.9-25.2c0,0,7.9,3.2,13.2,7.7
				c3.4,3,6.4,6.4,9,10.1c-3.6,8.1-9.5,15-16.9,19.9C210.6,78,202.1,80.4,193.6,80.4"/>
			<path class="st4" d="M193.4,80.2c-1.6-8.5-5.2-16.4-10.5-23.2c-9.9-12.2-22.4-13.9-21.3-13.7c0,0,6.3-5.8,12.5-8.6
				c4.1-1.8,8.5-3,12.9-3.7C198.8,44.7,201.2,64,193.4,80.2"/>
			<path class="st4" d="M192.1,80.5c-7.9-3.5-16.6-5-25.2-4.4c-15.9,1.3-24.8,10.6-24,9.8c0,0-0.9-8.4,0.6-15.2
				c1.1-4.4,2.7-8.7,4.8-12.7c8.9-0.9,18,0.8,26,4.9C181.8,66.9,188,73,192.1,80.5"/>
			<path class="st4" d="M192.3,81c0,0-10.4,7.8-15.8,20.4c-6.2,14.5-1.8,26.1-2.1,25c0,0-8.2-2.6-13.8-6.6c-3.6-2.7-6.8-5.8-9.5-9.3
				c3.4-8.4,9.2-15.6,16.6-20.9C175,84.6,183.5,81.6,192.3,81"/>
			<path class="st5" d="M148,103.7c-12.6-24.4-3-54.5,21.4-67.1s54.5-3,67.1,21.4s3,54.5-21.4,67.1
				C190.6,137.7,160.6,128.1,148,103.7L148,103.7z"/>
			<path class="st6" d="M158,100.5c-8.9-17.3-1.5-38.8,16.6-48.1c1.7-0.9,3.4-1.6,5.2-2.2c-16.7,9-23.5,29.2-15.1,45.4
				c8.5,16.4,29.2,22.5,46.4,13.6c4.4-2.3,8.3-5.4,11.5-9.3c-3.6,6.4-9.1,11.6-15.6,15C188.9,124.2,167,117.8,158,100.5z"/>
		</g>
	</g>
	<g>
		<defs>
			<rect id="SVGID_3_" width="288" height="288"/>
		</defs>
		<clipPath id="SVGID_4_">
			<use xlink:href="#SVGID_3_"  style="overflow:visible;"/>
		</clipPath>
		<g class="st7">
			<path class="st8" d="M190.7,274.6c-4.1-0.4-29,1.5-33.3,1.9c-0.8,0.1-1,1.2-0.2,1.8l15.1,11.5l-5.5,12.4
				c-0.2,0.6,0.2,1.3,0.8,1.5h0.1l13.4,2.1l4.5,18.4c0.2,0.9,1.3,1.3,1.8,0.6l17.5-30.4L190.7,274.6z"/>
			<path class="st8" d="M276.5,240.7c4.1,0.5,28.9-1.5,33.3-1.9c0.8-0.1,0.9-1.2,0.2-1.8l-15.1-11.5l5.5-12.4
				c0.2-0.7-0.2-1.3-0.8-1.5h-0.1l-13.4-2.1l-4.5-18.4c-0.2-0.9-1.3-1.3-1.8-0.6l-17.5,30.4L276.5,240.7z"/>
			
				<ellipse transform="matrix(0.9765 -0.2155 0.2155 0.9765 -42.9954 64.6739)" class="st9" cx="275.1" cy="229.5" rx="9.4" ry="1.2"/>
			
				<ellipse transform="matrix(0.6909 -0.7229 0.7229 0.6909 -75.2951 266.8143)" class="st9" cx="274.4" cy="221.5" rx="9.4" ry="1.2"/>
			
				<ellipse transform="matrix(0.9765 -0.2155 0.2155 0.9765 -56.8581 47.7179)" class="st9" cx="190.4" cy="284.6" rx="9.4" ry="1.2"/>
			
				<ellipse transform="matrix(0.6909 -0.7229 0.7229 0.6909 -151.3024 229.9385)" class="st9" cx="193.3" cy="291.9" rx="9.4" ry="1.2"/>
			<path class="st10" d="M192.6,284.6c-16.7-21.9-12.5-53.1,9.4-69.8s53.1-12.5,69.8,9.4s12.5,53.1-9.4,69.8l0,0
				C240.5,310.7,209.3,306.5,192.6,284.6L192.6,284.6z"/>
			<path class="st4" d="M233.1,254.5c2.4,8.3,6.7,15.9,12.6,22.2c11,11.3,23.4,12.1,22.4,11.9c0,0-5.7,6.2-11.6,9.5
				c-3.9,2.1-8.1,3.7-12.4,4.7c-6.4-6.3-10.8-14.4-12.7-23.1C229.5,271.3,230.2,262.6,233.1,254.5"/>
			<path class="st4" d="M233.3,254.4c8.3,1.6,16.9,1.2,25-1.3c14.6-4.8,20.5-15.8,19.9-14.9c0,0,3.3,8,3.8,14.9
				c0.3,4.5,0,9-0.9,13.4c-8.3,2.9-17.4,3.2-25.9,1C246.8,265.2,239.2,260.6,233.3,254.4"/>
			<path class="st4" d="M233.3,253.7c5.9-6.2,10.2-13.7,12.5-22c3.9-15.1-2-26.3-1.5-25.3c0,0,8.4,1.8,14.4,5.3
				c3.9,2.3,7.5,5.2,10.6,8.4c-2.1,8.6-6.7,16.5-13.2,22.5C249.7,248.4,241.8,252.3,233.3,253.7"/>
			<path class="st4" d="M233.1,253.7c-3-8.1-7.9-15.3-14.4-21c-11.9-10.2-24.5-9.8-23.3-9.8c0,0,5.2-6.8,10.8-10.7
				c3.8-2.5,7.8-4.5,12.1-5.9C232.2,217.7,238,236.3,233.1,253.7"/>
			<path class="st4" d="M231.9,254.1c-8.4-2.1-17.2-2-25.6,0.1c-15.4,4.1-22.6,14.7-21.9,13.8c0,0-2.4-8.1-2.1-15
				c0.3-4.5,1.1-9,2.5-13.3c8.7-2.4,17.8-2.3,26.4,0.3C219.4,242.6,226.5,247.5,231.9,254.1"/>
			<path class="st4" d="M232.2,254.6c0,0-8.9,9.5-12,22.8c-3.6,15.3,2.8,26,2.3,25c0,0-8.5-1.1-14.7-4.1c-4-2-7.7-4.5-11-7.5
				c1.9-8.9,6.3-17,12.7-23.4C215.8,261.2,223.6,256.8,232.2,254.6"/>
			<path class="st11" d="M192.5,284.7c-16.7-21.9-12.5-53.1,9.4-69.8s53.1-12.5,69.8,9.4s12.5,53.1-9.4,69.8
				C240.4,310.7,209.2,306.5,192.5,284.7L192.5,284.7z"/>
			<path class="st6" d="M201.9,279.8c-11.8-15.4-8.2-38,7.9-50.3c1.5-1.2,3.1-2.2,4.8-3.1c-14.9,11.8-18.1,32.8-7,47.4
				c11.2,14.7,32.7,17.1,48,5.4c4-3,7.3-6.8,9.7-11.1c-2.5,7-6.9,13-12.8,17.5C236.3,297.7,213.6,295.2,201.9,279.8z"/>
		</g>
	</g>
	<g>
		<defs>
			<rect id="SVGID_5_" width="288" height="288"/>
		</defs>
		<clipPath id="SVGID_6_">
			<use xlink:href="#SVGID_5_"  style="overflow:visible;"/>
		</clipPath>
		<g class="st12">
			<path class="st8" d="M190.7-14.5c-4.1-0.4-29,1.5-33.3,1.9c-0.8,0.1-1,1.2-0.2,1.8l15.1,11.5l-5.5,12.4c-0.2,0.6,0.2,1.3,0.8,1.5
				h0.1l13.4,2.1l4.5,18.4c0.2,0.9,1.3,1.3,1.8,0.6l17.5-30.4L190.7-14.5z"/>
			<path class="st8" d="M276.5-48.4c4.1,0.5,28.9-1.5,33.3-1.9c0.8-0.1,0.9-1.2,0.2-1.8l-15.1-11.5l5.5-12.4
				c0.2-0.7-0.2-1.3-0.8-1.5h-0.1L286-79.7l-4.5-18.4c-0.2-0.9-1.3-1.3-1.8-0.6l-17.5,30.4L276.5-48.4z"/>
			
				<ellipse transform="matrix(0.9765 -0.2155 0.2155 0.9765 19.2852 57.8881)" class="st9" cx="275.1" cy="-59.5" rx="9.4" ry="1.2"/>
			
				<ellipse transform="matrix(0.6909 -0.7229 0.7229 0.6909 133.6873 177.458)" class="st9" cx="274.4" cy="-67.6" rx="9.4" ry="1.2"/>
			<ellipse transform="matrix(0.9765 -0.2155 0.2155 0.9765 5.4431 40.9251)" class="st9" cx="190.4" cy="-4.5" rx="9.4" ry="1.2"/>
			
				<ellipse transform="matrix(0.6909 -0.7229 0.7229 0.6909 57.6524 140.6558)" class="st9" cx="193.3" cy="2.9" rx="9.4" ry="1.2"/>
			<path class="st10" d="M192.6-4.5c-16.7-21.9-12.5-53.1,9.4-69.8s53.1-12.5,69.8,9.4s12.5,53.1-9.4,69.8l0,0
				C240.5,21.6,209.3,17.4,192.6-4.5L192.6-4.5z"/>
			<path class="st4" d="M233.1-34.6c2.4,8.3,6.7,15.9,12.6,22.2c11,11.3,23.4,12.1,22.4,11.9c0,0-5.7,6.2-11.6,9.5
				c-3.9,2.1-8.1,3.7-12.4,4.7c-6.4-6.3-10.8-14.4-12.7-23.1C229.5-17.8,230.2-26.5,233.1-34.6"/>
			<path class="st4" d="M233.3-34.7c8.3,1.6,16.9,1.2,25-1.3c14.6-4.8,20.5-15.8,19.9-14.9c0,0,3.3,8,3.8,14.9c0.3,4.5,0,9-0.9,13.4
				c-8.3,2.9-17.4,3.2-25.9,1C246.8-23.9,239.2-28.5,233.3-34.7"/>
			<path class="st4" d="M233.3-35.3c5.9-6.2,10.2-13.7,12.5-22c3.9-15.1-2-26.3-1.5-25.3c0,0,8.4,1.8,14.4,5.3
				c3.9,2.3,7.5,5.2,10.6,8.4c-2.1,8.6-6.7,16.5-13.2,22.5C249.7-40.6,241.8-36.8,233.3-35.3"/>
			<path class="st4" d="M233.1-35.4c-3-8.1-7.9-15.3-14.4-21c-11.9-10.2-24.5-9.8-23.3-9.8c0,0,5.2-6.8,10.8-10.7
				c3.8-2.5,7.8-4.5,12.1-5.9C232.2-71.4,238-52.8,233.1-35.4"/>
			<path class="st4" d="M231.9-35c-8.4-2.1-17.2-2-25.6,0.1c-15.4,4.1-22.6,14.7-21.9,13.8c0,0-2.4-8.1-2.1-15
				c0.3-4.5,1.1-9,2.5-13.3c8.7-2.4,17.8-2.3,26.4,0.3C219.4-46.5,226.5-41.6,231.9-35"/>
			<path class="st4" d="M232.2-34.5c0,0-8.9,9.5-12,22.8c-3.6,15.3,2.8,26,2.3,25c0,0-8.5-1.1-14.7-4.1c-4-2-7.7-4.5-11-7.5
				c1.9-8.9,6.3-17,12.7-23.4C215.8-27.9,223.6-32.3,232.2-34.5"/>
			<path class="st11" d="M192.5-4.4c-16.7-21.9-12.5-53.1,9.4-69.8s53.1-12.5,69.8,9.4s12.5,53.1-9.4,69.8
				C240.4,21.7,209.2,17.5,192.5-4.4L192.5-4.4z"/>
			<path class="st6" d="M201.9-9.3c-11.8-15.4-8.2-38,7.9-50.3c1.5-1.2,3.1-2.2,4.8-3.1c-14.9,11.8-18.1,32.8-7,47.4
				c11.2,14.7,32.7,17.1,48,5.4c4-3,7.3-6.8,9.7-11.1c-2.5,7-6.9,13-12.8,17.5C236.3,8.7,213.6,6.2,201.9-9.3z"/>
		</g>
	</g>
	<g>
		<defs>
			<rect id="SVGID_7_" width="288" height="288"/>
		</defs>
		<clipPath id="SVGID_8_">
			<use xlink:href="#SVGID_7_"  style="overflow:visible;"/>
		</clipPath>
		<g class="st13">
			<path class="st14" d="M123.4,76.9c-3.8,2.5-23.9,21.6-27.3,25c-0.7,0.7,0,1.7,1.1,1.7l21.1-0.7l4,14.5c0.3,0.7,1.1,1,1.8,0.8
				c0,0,0.1,0,0.1-0.1l13-7.5l16.8,12.7c0.8,0.6,2,0.2,2-0.7l-6.2-38.5L123.4,76.9z"/>
			<path class="st14" d="M173.4-12.6c3.8-2.5,23.9-21.6,27.3-25c0.7-0.7-0.1-1.7-1.1-1.7l-21.1,0.7l-4-14.6c-0.3-0.7-1.1-1-1.8-0.7
				h-0.1l-13,7.5L142.8-59c-0.8-0.6-2-0.2-2,0.7l6.3,38.5L173.4-12.6z"/>
			
				<ellipse transform="matrix(0.6201 -0.7845 0.7845 0.6201 79.0887 120.9315)" class="st15" cx="164.4" cy="-21.2" rx="10.5" ry="1.4"/>
			
				<ellipse transform="matrix(7.801113e-02 -0.997 0.997 7.801113e-02 173.3667 132.1511)" class="st15" cx="158.1" cy="-27.7" rx="10.5" ry="1.4"/>
			
				<ellipse transform="matrix(0.6201 -0.7845 0.7845 0.6201 -17.7523 134.6874)" class="st15" cx="130.2" cy="85.7" rx="10.5" ry="1.4"/>
			
				<ellipse transform="matrix(7.801113e-02 -0.997 0.997 7.801113e-02 37.401 220.451)" class="st15" cx="137.9" cy="90" rx="10.5" ry="1.4"/>
			<path class="st16" d="M132.1,84.2c-29.7-7.1-48.1-36.9-41-66.7c7.1-29.7,36.9-48.1,66.7-41s48.1,36.9,41,66.7l0,0
				C191.6,72.9,161.8,91.3,132.1,84.2L132.1,84.2z"/>
			<path class="st4" d="M145.8,29.8c7.9,5.5,16.9,9,26.4,10.3c17.4,2,28.7-6.1,27.6-5.4c0,0-0.5,9.4-3.3,16.4
				c-1.9,4.6-4.4,8.9-7.4,12.8c-9.9-1-19.4-4.8-27.2-11C154.5,46.8,148.9,38.8,145.8,29.8"/>
			<path class="st4" d="M145.8,29.5c8.3-4.4,15.4-10.9,20.6-18.7c9.2-14.4,6.5-28,6.7-26.8c0,0,8.4,4.6,13.7,10.2
				c3.4,3.7,6.3,7.8,8.6,12.2c-5.2,8.3-12.7,15-21.6,19.1C165.1,29.4,155.4,30.7,145.8,29.5"/>
			<path class="st4" d="M145.4,29c0.7-9.5-0.9-19-4.7-27.7c-7.2-15.8-20.2-21.3-19.1-20.7c0,0,8.5-4.3,16.1-5.6
				c5-0.7,10-0.8,15.1-0.2c4.3,8.9,5.8,18.9,4.5,28.7C155.8,12.9,151.7,21.8,145.4,29"/>
			<path class="st4" d="M145.2,29.1c-8.3-4.8-17.6-7.5-27.1-8c-17.4-0.5-27.9,8.7-27,8c0,0-0.3-9.5,1.8-16.8
				c1.5-4.8,3.6-9.3,6.2-13.6C119.2-1.3,137.2,10.7,145.2,29.1"/>
			<path class="st4" d="M144.5,30.3c-8.7,4.1-16.2,10.3-22,18c-10.4,14.3-9.1,28.6-9.1,27.3c0,0-7.8-5.3-12.4-11.5
				c-3-4.1-5.4-8.5-7.2-13.2c5.7-8.2,13.7-14.5,22.9-18.3C125.6,29.1,135.2,28.4,144.5,30.3"/>
			<path class="st4" d="M145,30.5c0,0-1,14.4,5.7,28.1c7.7,15.7,20.6,20.4,19.6,19.9c0,0-8.1,5-15.5,6.8c-4.8,1.1-9.8,1.5-14.8,1.3
				c-4.6-9-6.5-19.1-5.5-29.1c1.1-9.8,4.7-19.1,10.6-26.9"/>
			<path class="st17" d="M132,84.3c-29.7-7.1-48.1-36.9-41-66.7c7.1-29.7,36.9-48.1,66.7-41c29.7,7.1,48.1,36.9,41,66.7
				C191.6,73,161.8,91.4,132,84.3C132.1,84.3,132,84.3,132,84.3z"/>
			<path class="st6" d="M136.7,73.5c-21-5-33.8-26.9-28.5-48.8c0.5-2.1,1.1-4.1,1.9-6c-4.6,20.6,7.5,41,27.2,45.7
				c19.9,4.8,40.1-8.3,45.1-29.1c1.3-5.4,1.5-11,0.5-16.4c2.8,7.7,3.2,16.1,1.3,24C178.9,64.7,157.7,78.5,136.7,73.5z"/>
		</g>
	</g>
	<g>
		<defs>
			<rect id="SVGID_9_" width="288" height="288"/>
		</defs>
		<clipPath id="SVGID_10_">
			<use xlink:href="#SVGID_9_"  style="overflow:visible;"/>
		</clipPath>
		<g class="st18">
			<path class="st14" d="M123.4,364c-3.8,2.5-23.9,21.6-27.3,25c-0.7,0.7,0,1.7,1.1,1.7l21.1-0.7l4,14.5c0.3,0.7,1.1,1,1.8,0.8
				c0,0,0.1,0,0.1-0.1l13-7.5l16.8,12.7c0.8,0.6,2,0.2,2-0.7l-6.2-38.5L123.4,364z"/>
			<path class="st14" d="M173.4,274.5c3.8-2.5,23.9-21.6,27.3-25c0.7-0.7-0.1-1.7-1.1-1.7l-21.1,0.7l-4-14.6c-0.3-0.7-1.1-1-1.8-0.7
				h-0.1l-13,7.5L142.8,228c-0.8-0.6-2-0.2-2,0.7l6.3,38.5L173.4,274.5z"/>
			
				<ellipse transform="matrix(0.6201 -0.7845 0.7845 0.6201 -146.1466 229.9909)" class="st15" cx="164.4" cy="265.9" rx="10.5" ry="1.4"/>
			
				<ellipse transform="matrix(7.801113e-02 -0.997 0.997 7.801113e-02 -112.8557 396.8669)" class="st15" cx="158.1" cy="259.4" rx="10.5" ry="1.4"/>
			
				<ellipse transform="matrix(0.6201 -0.7845 0.7845 0.6201 -242.9876 243.7467)" class="st15" cx="130.2" cy="372.8" rx="10.5" ry="1.4"/>
			
				<ellipse transform="matrix(7.801113e-02 -0.997 0.997 7.801113e-02 -248.8215 485.167)" class="st15" cx="137.9" cy="377.1" rx="10.5" ry="1.4"/>
			<path class="st16" d="M132.1,371.3c-29.7-7.1-48.1-36.9-41-66.7c7.1-29.7,36.9-48.1,66.7-41c29.7,7.1,48.1,36.9,41,66.7l0,0
				C191.6,360,161.8,378.4,132.1,371.3L132.1,371.3z"/>
			<path class="st4" d="M145.8,316.9c7.9,5.5,16.9,9,26.4,10.3c17.4,2,28.7-6.1,27.6-5.4c0,0-0.5,9.4-3.3,16.4
				c-1.9,4.6-4.4,8.9-7.4,12.8c-9.9-1-19.4-4.8-27.2-11C154.5,333.9,148.9,325.9,145.8,316.9"/>
			<path class="st4" d="M145.8,316.6c8.3-4.4,15.4-10.9,20.6-18.7c9.2-14.4,6.5-28,6.7-26.8c0,0,8.4,4.6,13.7,10.2
				c3.4,3.7,6.3,7.8,8.6,12.2c-5.2,8.3-12.7,15-21.6,19.1C165.1,316.5,155.4,317.8,145.8,316.6"/>
			<path class="st4" d="M145.4,316.1c0.7-9.5-0.9-19-4.7-27.7c-7.2-15.8-20.2-21.3-19.1-20.7c0,0,8.5-4.3,16.1-5.6
				c5-0.7,10-0.8,15.1-0.2c4.3,8.9,5.8,18.9,4.5,28.7C155.8,300,151.7,308.9,145.4,316.1"/>
			<path class="st4" d="M145.2,316.2c-8.3-4.8-17.6-7.5-27.1-8c-17.4-0.5-27.9,8.7-27,8c0,0-0.3-9.5,1.8-16.8
				c1.5-4.8,3.6-9.3,6.2-13.6C119.2,285.8,137.2,297.8,145.2,316.2"/>
			<path class="st4" d="M144.5,317.4c-8.7,4.1-16.2,10.3-22,18c-10.4,14.3-9.1,28.6-9.1,27.3c0,0-7.8-5.3-12.4-11.5
				c-3-4.1-5.4-8.5-7.2-13.2c5.7-8.2,13.7-14.5,22.9-18.3C125.6,316.2,135.2,315.5,144.5,317.4"/>
			<path class="st4" d="M145,317.6c0,0-1,14.4,5.7,28.1c7.7,15.7,20.6,20.4,19.6,19.9c0,0-8.1,5-15.5,6.8c-4.8,1.1-9.8,1.5-14.8,1.3
				c-4.6-9-6.5-19.1-5.5-29.1c1.1-9.8,4.7-19.1,10.6-26.9"/>
			<path class="st17" d="M132,371.4c-29.7-7.1-48.1-36.9-41-66.7c7.1-29.7,36.9-48.1,66.7-41s48.1,36.9,41,66.7
				C191.6,360.1,161.8,378.5,132,371.4C132.1,371.4,132,371.4,132,371.4z"/>
			<path class="st6" d="M136.7,360.6c-21-5-33.8-26.9-28.5-48.8c0.5-2.1,1.1-4.1,1.9-6c-4.6,20.6,7.5,41,27.2,45.7
				c19.9,4.8,40.1-8.3,45.1-29.1c1.3-5.4,1.5-11,0.5-16.4c2.8,7.7,3.2,16.1,1.3,24C178.9,351.8,157.7,365.6,136.7,360.6z"/>
		</g>
	</g>
	<g>
		<defs>
			<rect id="SVGID_11_" width="288" height="288"/>
		</defs>
		<clipPath id="SVGID_12_">
			<use xlink:href="#SVGID_11_"  style="overflow:visible;"/>
		</clipPath>
		<g class="st19">
			<path class="st20" d="M184,180.9c3,2.8,23.9,16.4,27.6,18.7c0.7,0.4,1.5-0.4,1.3-1.3l-5-18.3l11.9-6.5c0.6-0.4,0.7-1.2,0.3-1.7
				c0,0,0-0.1-0.1-0.1l-9.3-9.8l7.6-17.4c0.4-0.8-0.3-1.8-1-1.6l-32.4,13.5L184,180.9z"/>
			<path class="st20" d="M95.2,155.8c-2.9-2.8-23.9-16.4-27.6-18.7c-0.7-0.4-1.5,0.4-1.3,1.3l5,18.3l-11.9,6.5
				c-0.6,0.4-0.7,1.2-0.3,1.7c0,0,0,0.1,0.1,0.1l9.3,9.8L61,192.3c-0.4,0.8,0.3,1.8,1,1.6l32.4-13.6L95.2,155.8z"/>
			
				<ellipse transform="matrix(0.4209 -0.9071 0.9071 0.4209 -98.1924 177.0982)" class="st21" cx="89.6" cy="165.5" rx="1.2" ry="9.4"/>
			
				<ellipse transform="matrix(0.9878 -0.1557 0.1557 0.9878 -25.7869 15.3806)" class="st21" cx="85.3" cy="172.3" rx="9.4" ry="1.2"/>
			
				<ellipse transform="matrix(0.4209 -0.9071 0.9071 0.4209 -46.8066 272.8815)" class="st21" cx="190.3" cy="173.1" rx="1.2" ry="9.4"/>
			
				<ellipse transform="matrix(0.9878 -0.1557 0.1557 0.9878 -23.4243 31.9753)" class="st21" cx="192.4" cy="165.5" rx="9.4" ry="1.2"/>
			<path class="st22" d="M188.6,171.7c0,27.5-22.3,49.8-49.8,49.8S89,199.2,89,171.7s22.3-49.8,49.8-49.8l0,0
				C166.3,121.9,188.6,144.2,188.6,171.7L188.6,171.7z"/>
			<path class="st4" d="M138.1,171.1c3.2-8,4.3-16.7,3.5-25.3c-1.9-15.6-11.3-23.8-10.5-23c0,0,8.3-1.5,15-0.5
				c4.4,0.7,8.7,2,12.7,3.8c1.2,8.9-0.2,17.9-3.9,26.1C151.1,159.9,145.3,166.5,138.1,171.1"/>
			<path class="st4" d="M137.9,171.1c-5.6-6.3-12.7-11.2-20.7-14.2c-14.5-5-25.8,0.1-24.8-0.3c0,0,2.3-8.3,6-14.1
				c2.5-3.7,5.5-7.1,8.9-10.1c8.4,2.8,15.8,8,21.2,14.9C133.7,154.3,136.9,162.5,137.9,171.1"/>
			<path class="st4" d="M137.5,171.6c-8.4,1.3-16.4,4.7-23.2,9.9c-12.3,9.6-14.4,22.1-14.1,21c0,0-5.6-6.5-8.2-12.9
				c-1.7-4.2-2.8-8.6-3.4-13.1c6.9-5.6,15.3-9,24.1-9.9C121.2,165.9,129.8,167.6,137.5,171.6"/>
			<path class="st4" d="M137.6,171.8c-2.5,8.2-2.9,17-1.3,25.4c3.2,15.4,13.5,22.6,12.6,21.9c0,0-8.2,2.3-15.1,1.9
				c-4.5-0.3-8.9-1.2-13.2-2.6C116.5,200.9,123.2,182.6,137.6,171.8"/>
			<path class="st4" d="M138.8,172.1c5.4,6.7,12.4,12,20.4,15.5c14.7,6.1,26.9,2,25.8,2.3c0,0-3,7.9-7.5,13.2
				c-3,3.4-6.3,6.5-10.1,9.1c-8.4-3.3-15.6-8.9-20.8-16.2C141.8,188.9,139.1,180.6,138.8,172.1"/>
			<path class="st4" d="M138.9,171.6c0,0,12.8-2.1,23.4-10.9c12.1-10,13.6-22.3,13.4-21.3c0,0,6.1,6.1,9.2,12.2
				c1.9,4,3.4,8.3,4.2,12.6c-6.9,5.9-15.3,9.7-24.3,10.9C156,176.3,147.1,175,138.9,171.6"/>
			<path class="st23" d="M188.7,171.7c0,27.5-22.3,49.8-49.8,49.8s-49.8-22.3-49.8-49.8s22.3-49.8,49.8-49.8
				C166.4,121.9,188.7,144.2,188.7,171.7L188.7,171.7z"/>
			<path class="st6" d="M178.3,169.9c0,19.4-16.5,35.2-36.8,35.2c-1.9,0-3.8-0.1-5.7-0.4c19-0.3,34.3-15.1,34.3-33.4
				c0-18.4-15.6-33.4-34.9-33.4c-5,0-9.9,1-14.5,3c6.2-4,13.4-6.2,20.8-6.1C161.8,134.8,178.3,150.5,178.3,169.9z"/>
		</g>
	</g>
	<g>
		<defs>
			<rect id="SVGID_13_" width="288" height="288"/>
		</defs>
		<clipPath id="SVGID_14_">
			<use xlink:href="#SVGID_13_"  style="overflow:visible;"/>
		</clipPath>
		<g class="st24">
			<path class="st25" d="M10.9,190.7c-1.5-4.3-15.3-28.4-17.7-32.5c-0.5-0.8-1.7-0.4-1.9,0.7l-4.4,20.7l-15.1,0.3
				c-0.7,0.1-1.3,0.8-1.2,1.5v0.1l4.2,14.4l-16.4,13.3c-0.8,0.6-0.7,1.9,0.2,2.1l38.8,3.2L10.9,190.7z"/>
			<path class="st2" d="M-9,205.9c7,0.9,13-2.3,15-3.3c-4.6-0.2-9.3-0.8-13.8-1.8c-9.8-2.3-0.2,2.6-0.2,2.6S-17.3,204.8-9,205.9z"/>
			<path class="st2" d="M-6.7,189.3c3.9,7.5,11,11.1,13.2,12.4C3.6,197,1,192-1,186.8c-4.5-11.3-2.6,1.8-2.6,1.8
				S-11.4,180.4-6.7,189.3z"/>
			<path class="st25" d="M85.8,260.7c1.5,4.3,15.3,28.4,17.7,32.5c0.5,0.8,1.7,0.4,1.9-0.7l4.4-20.7l15.1-0.4
				c0.7-0.1,1.3-0.8,1.2-1.6v-0.1l-4.2-14.4l16.3-13.3c0.8-0.6,0.7-1.9-0.2-2.1L99,237L85.8,260.7z"/>
			<path class="st2" d="M105.6,245.6c-7-0.9-13,2.3-15,3.3c4.6,0.2,9.3,0.8,13.8,1.8c9.8,2.3,0.2-2.6,0.2-2.6
				S113.9,246.6,105.6,245.6z"/>
			<path class="st2" d="M103.4,262.1c-3.9-7.5-11-11.1-13.2-12.4c3,4.7,5.5,9.7,7.6,14.9c4.5,11.3,2.6-1.7,2.6-1.7
				S108,271.1,103.4,262.1z"/>
			<path class="st3" d="M1.8,197.4c14-27.1,47.4-37.8,74.5-23.8s37.8,47.4,23.8,74.5S52.7,286,25.5,271.9l0,0
				C-1.6,257.9-12.3,224.6,1.8,197.4L1.8,197.4z"/>
			<path class="st4" d="M51.3,223.7C44.1,230,38.5,238,35,246.9c-6.1,16.4-1,29.3-1.4,28.1c0,0-9-2.7-15.1-7.1
				c-4-2.9-7.5-6.4-10.6-10.2c3.3-9.4,9.3-17.6,17.2-23.8C32.7,228.2,41.8,224.7,51.3,223.7"/>
			<path class="st4" d="M51.5,223.8c2.3,9.1,6.9,17.6,13.2,24.5c11.8,12.4,25.6,13.1,24.4,12.9c0,0-6.5,7.1-13.1,10.9
				c-4.4,2.4-9.1,4.2-13.9,5.5c-6.9-7-11.5-15.9-13.3-25.5C47,242.6,48,232.8,51.5,223.8"/>
			<path class="st4" d="M52.1,223.6c9,3,18.6,3.7,28,2.1c17.1-3.2,25.5-14.5,24.7-13.6c0,0,2.2,9.3,1.5,16.9
				c-0.5,5-1.6,9.9-3.4,14.7c-9.7,2-19.7,1.1-28.9-2.5C65.2,237.5,57.6,231.4,52.1,223.6"/>
			<path class="st4" d="M52.1,223.4c6.7-6.9,11.5-15.2,14.2-24.4c4.6-16.8-1.8-29.2-1.3-28.1c0,0,9.3,1.9,15.9,5.8
				c4.3,2.6,8.2,5.7,11.7,9.3C87.8,205.4,71.8,220,52.1,223.4"/>
			<path class="st4" d="M51.1,222.4c-1.9-9.4-6.1-18.2-12.2-25.6c-11.4-13.5-25.6-15.7-24.3-15.4c0,0,7-6.2,14.1-9.3
				c4.7-1.9,9.6-3.2,14.6-3.9c6.6,7.5,10.8,16.8,12.3,26.7C56.7,204.3,55.2,213.9,51.1,222.4"/>
			<path class="st4" d="M50.7,222.9c0,0-13.8-4.4-28.6-1.2C5,225.4-2.7,236.8-2,235.9c0,0-2.9-9.1-2.9-16.7c0.1-5,0.9-9.9,2.3-14.6
				c9.8-2.3,20.1-1.7,29.6,1.6c9.2,3.4,17.4,9.2,23.6,16.8"/>
			<path class="st26" d="M1.6,197.3c14-27.1,47.4-37.8,74.5-23.8s37.8,47.4,23.8,74.5s-47.4,37.8-74.5,23.8
				C-1.7,257.9-12.4,224.5,1.6,197.3C1.6,197.4,1.6,197.4,1.6,197.3z"/>
			<path class="st6" d="M11,204.4c9.9-19.2,34.2-26.3,54.2-16c1.9,1,3.7,2.1,5.4,3.3c-18.9-9.4-41.6-2.5-50.9,15.5
				c-9.4,18.2-1.6,40.9,17.5,50.8c4.9,2.6,10.3,4.1,15.8,4.4c-8.2,0.8-16.4-0.7-23.6-4.5C9.4,247.6,1.1,223.6,11,204.4z"/>
		</g>
	</g>
	<g>
		<defs>
			<rect id="SVGID_15_" width="288" height="288"/>
		</defs>
		<clipPath id="SVGID_16_">
			<use xlink:href="#SVGID_15_"  style="overflow:visible;"/>
		</clipPath>
		<g class="st27">
			<path class="st25" d="M298,190.7c-1.5-4.3-15.3-28.4-17.7-32.5c-0.5-0.8-1.7-0.4-1.9,0.7l-4.4,20.7l-15.1,0.3
				c-0.7,0.1-1.3,0.8-1.2,1.5v0.1l4.2,14.4l-16.4,13.3c-0.8,0.6-0.7,1.9,0.2,2.1l38.8,3.2L298,190.7z"/>
			<path class="st2" d="M278.1,205.9c7,0.9,13-2.3,15-3.3c-4.6-0.2-9.3-0.8-13.8-1.8c-9.8-2.3-0.2,2.6-0.2,2.6
				S269.8,204.8,278.1,205.9z"/>
			<path class="st2" d="M280.4,189.3c3.9,7.5,11,11.1,13.2,12.4c-3-4.7-5.5-9.7-7.6-14.9c-4.5-11.3-2.6,1.8-2.6,1.8
				S275.7,180.4,280.4,189.3z"/>
			<path class="st25" d="M372.9,260.7c1.5,4.3,15.3,28.4,17.7,32.5c0.5,0.8,1.7,0.4,1.9-0.7l4.4-20.7l15.1-0.4
				c0.7-0.1,1.3-0.8,1.2-1.6v-0.1l-4.2-14.4l16.3-13.3c0.8-0.6,0.7-1.9-0.2-2.1l-38.9-3.1L372.9,260.7z"/>
			<path class="st2" d="M392.7,245.6c-7-0.9-13,2.3-15,3.3c4.6,0.2,9.3,0.8,13.8,1.8c9.8,2.3,0.2-2.6,0.2-2.6S401,246.6,392.7,245.6
				z"/>
			<path class="st2" d="M390.5,262.1c-3.9-7.5-11-11.1-13.2-12.4c3,4.7,5.5,9.7,7.6,14.9c4.5,11.3,2.6-1.7,2.6-1.7
				S395.1,271.1,390.5,262.1z"/>
			<path class="st3" d="M288.9,197.4c14-27.1,47.4-37.8,74.5-23.8s37.8,47.4,23.8,74.5s-47.4,37.8-74.5,23.8l0,0
				C285.5,257.9,274.8,224.6,288.9,197.4L288.9,197.4z"/>
			<path class="st4" d="M338.4,223.7c-7.2,6.3-12.8,14.3-16.3,23.2c-6.1,16.4-1,29.3-1.4,28.1c0,0-9-2.7-15.1-7.1
				c-4-2.9-7.5-6.4-10.6-10.2c3.3-9.4,9.3-17.6,17.2-23.8C319.8,228.2,328.9,224.7,338.4,223.7"/>
			<path class="st4" d="M338.6,223.8c2.3,9.1,6.9,17.6,13.2,24.5c11.8,12.4,25.6,13.1,24.4,12.9c0,0-6.5,7.1-13.1,10.9
				c-4.4,2.4-9.1,4.2-13.9,5.5c-6.9-7-11.5-15.9-13.3-25.5C334.1,242.6,335.1,232.8,338.6,223.8"/>
			<path class="st4" d="M339.2,223.6c9,3,18.6,3.7,28,2.1c17.1-3.2,25.5-14.5,24.7-13.6c0,0,2.2,9.3,1.5,16.9
				c-0.5,5-1.6,9.9-3.4,14.7c-9.7,2-19.7,1.1-28.9-2.5C352.3,237.5,344.7,231.4,339.2,223.6"/>
			<path class="st4" d="M339.2,223.4c6.7-6.9,11.5-15.2,14.2-24.4c4.6-16.8-1.8-29.2-1.3-28.1c0,0,9.3,1.9,15.9,5.8
				c4.3,2.6,8.2,5.7,11.7,9.3C374.9,205.4,358.9,220,339.2,223.4"/>
			<path class="st4" d="M338.2,222.4c-1.9-9.4-6.1-18.2-12.2-25.6c-11.4-13.5-25.6-15.7-24.3-15.4c0,0,7-6.2,14.1-9.3
				c4.7-1.9,9.6-3.2,14.6-3.9c6.6,7.5,10.8,16.8,12.3,26.7C343.8,204.3,342.3,213.9,338.2,222.4"/>
			<path class="st4" d="M337.8,222.9c0,0-13.8-4.4-28.6-1.2c-17.1,3.7-24.8,15.1-24,14.2c0,0-2.9-9.1-2.9-16.7
				c0.1-5,0.9-9.9,2.3-14.6c9.8-2.3,20.1-1.7,29.6,1.6c9.2,3.4,17.4,9.2,23.6,16.8"/>
			<path class="st26" d="M288.7,197.3c14-27.1,47.4-37.8,74.5-23.8S401,220.9,387,248s-47.4,37.8-74.5,23.8
				C285.4,257.9,274.7,224.5,288.7,197.3C288.7,197.4,288.7,197.4,288.7,197.3z"/>
			<path class="st6" d="M298.1,204.4c9.9-19.2,34.2-26.3,54.2-16c1.9,1,3.7,2.1,5.4,3.3c-18.9-9.4-41.6-2.5-50.9,15.5
				c-9.4,18.2-1.6,40.9,17.5,50.8c4.9,2.6,10.3,4.1,15.8,4.4c-8.2,0.8-16.4-0.7-23.6-4.5C296.5,247.6,288.2,223.6,298.1,204.4z"/>
		</g>
	</g>
	<g>
		<defs>
			<rect id="SVGID_17_" width="288" height="288"/>
		</defs>
		<clipPath id="SVGID_18_">
			<use xlink:href="#SVGID_17_"  style="overflow:visible;"/>
		</clipPath>
		<g class="st28">
			<path class="st29" d="M343.1,132.6c4.2,1.7,31.3,7.4,36.1,8.3c0.9,0.2,1.4-1,0.8-1.9l-12.6-17l9.7-11.5c0.4-0.6,0.3-1.5-0.4-1.9
				c0,0-0.1,0-0.1-0.1l-13.6-6.4l0.9-21c0-1-1-1.8-1.7-1.2l-28.1,26.9L343.1,132.6z"/>
			<path class="st29" d="M241,142.2c-4.2-1.8-31.3-7.4-36.1-8.3c-0.9-0.2-1.4,1-0.8,1.9l12.6,17l-9.7,11.5c-0.4,0.6-0.2,1.5,0.4,1.9
				c0,0,0.1,0,0.1,0.1l13.6,6.4l-0.9,21c0,1,1,1.8,1.7,1.2l28.2-27L241,142.2z"/>
			
				<ellipse transform="matrix(6.616835e-02 -0.9978 0.9978 6.616835e-02 69.037 382.6562)" class="st30" cx="239" cy="154.4" rx="1.4" ry="10.5"/>
			
				<ellipse transform="matrix(0.8655 -0.5008 0.5008 0.8655 -49.8783 140.797)" class="st30" cx="237.3" cy="163.3" rx="10.5" ry="1.4"/>
			
				<ellipse transform="matrix(6.616835e-02 -0.9978 0.9978 6.616835e-02 201.8307 459.7251)" class="st30" cx="346.5" cy="122" rx="1.4" ry="10.5"/>
			
				<ellipse transform="matrix(0.8655 -0.5008 0.5008 0.8655 -10.2947 188.3187)" class="st30" cx="345.6" cy="113.3" rx="10.5" ry="1.4"/>
			<path class="st31" d="M344.1,121.3c11,28.5-3.2,60.5-31.7,71.5s-60.5-3.2-71.5-31.7s3.2-60.5,31.7-71.5l0,0
				C301.1,78.6,333.1,92.8,344.1,121.3L344.1,121.3z"/>
			<path class="st4" d="M291.6,140.9c0.1-9.6-2.2-19-6.5-27.6c-8.2-15.4-21.2-20.2-20.1-19.7c0,0,8-4.9,15.4-6.6
				c4.8-1,9.8-1.4,14.7-1.2c4.8,8.7,7,18.7,6.4,28.6C300.6,124.1,297.2,133.2,291.6,140.9"/>
			<path class="st4" d="M291.4,141c-8.4-4.3-17.7-6.5-27.1-6.4c-17.1,0.6-26.7,10.5-25.8,9.7c0,0-1-9.5,0.6-17
				c1.1-4.9,2.9-9.6,5.1-14c9.8-0.5,19.5,1.9,28,7C280.3,125.2,286.9,132.4,291.4,141"/>
			<path class="st4" d="M291.1,141.6c-8.2,4.8-15.1,11.5-20.1,19.6c-8.9,14.9-6.1,28.7-6.2,27.5c0,0-8.4-4.5-13.7-10.1
				c-3.4-3.7-6.3-7.8-8.7-12.3c4.9-8.6,12.3-15.5,21.1-19.9C272,142.2,281.6,140.6,291.1,141.6"/>
			<path class="st4" d="M291.3,141.8c0.7,9.5,3.7,18.7,8.8,26.9c9.5,14.6,23,18.1,21.8,17.7c0,0-7.6,5.6-14.9,8
				c-4.8,1.5-9.7,2.3-14.7,2.6C281.1,180.4,280.7,158.7,291.3,141.8"/>
			<path class="st4" d="M292.7,141.6c8.3,4.8,17.7,7.5,27.3,7.9c17.7,0.4,28.7-8.7,27.7-8c0,0,0,9.4-2.4,16.7
				c-1.7,4.8-4,9.3-6.8,13.5c-10-0.1-19.7-3-28.1-8.5C302.5,157.9,296.4,150.4,292.7,141.6"/>
			<path class="st4" d="M292.6,141.1c0,0,12.5-7.3,19.9-20.6c8.6-15.3,5.1-28.6,5.3-27.4c0,0,8.8,3.8,14.4,8.9
				c3.6,3.4,6.8,7.2,9.4,11.4c-4.8,8.8-12,16.1-20.8,21c-8.6,4.7-18.4,6.9-28.2,6.5"/>
			<path class="st32" d="M344.3,121.3c11,28.5-3.2,60.5-31.7,71.5s-60.5-3.2-71.5-31.7s3.2-60.5,31.7-71.5
				C301.2,78.6,333.2,92.8,344.3,121.3L344.3,121.3z"/>
			<path class="st6" d="M332.7,123.6c7.8,20.1-3,43-24.1,51.2c-2,0.8-4,1.4-6.1,1.8c19.6-7.9,29.5-29.4,22.2-48.3
				c-7.4-19.1-29.6-28.4-49.6-20.6c-5.2,2-9.9,5-13.8,8.9c4.8-6.6,11.4-11.8,19.1-14.7C301.6,93.7,325,103.5,332.7,123.6z"/>
		</g>
	</g>
	<g>
		<defs>
			<rect id="SVGID_19_" width="288" height="288"/>
		</defs>
		<clipPath id="SVGID_20_">
			<use xlink:href="#SVGID_19_"  style="overflow:visible;"/>
		</clipPath>
		<g class="st33">
			<path class="st29" d="M55.1,132.6c4.2,1.7,31.3,7.4,36.1,8.3c0.9,0.2,1.4-1,0.8-1.9l-12.6-17l9.7-11.5c0.4-0.6,0.3-1.5-0.4-1.9
				c0,0-0.1,0-0.1-0.1L75,102.2l0.9-21c0-1-1-1.8-1.7-1.2l-28.1,26.9L55.1,132.6z"/>
			<path class="st29" d="M-47,142.2c-4.2-1.8-31.3-7.4-36.1-8.3c-0.9-0.2-1.4,1-0.8,1.9l12.6,17l-9.7,11.5c-0.4,0.6-0.2,1.5,0.4,1.9
				c0,0,0.1,0,0.1,0.1l13.6,6.4l-0.9,21c0,1,1,1.8,1.7,1.2l28.2-27L-47,142.2z"/>
			
				<ellipse transform="matrix(6.616835e-02 -0.9978 0.9978 6.616835e-02 -199.9023 95.2589)" class="st30" cx="-49.1" cy="154.4" rx="1.4" ry="10.5"/>
			
				<ellipse transform="matrix(0.8655 -0.5008 0.5008 0.8655 -88.5892 -3.4398)" class="st30" cx="-50.7" cy="163.3" rx="10.5" ry="1.4"/>
			
				<ellipse transform="matrix(6.616835e-02 -0.9978 0.9978 6.616835e-02 -67.1086 172.3278)" class="st30" cx="58.5" cy="122" rx="1.4" ry="10.5"/>
			
				<ellipse transform="matrix(0.8655 -0.5008 0.5008 0.8655 -49.0056 44.0818)" class="st30" cx="57.6" cy="113.3" rx="10.5" ry="1.4"/>
			<path class="st31" d="M56.1,121.3c11,28.5-3.2,60.5-31.7,71.5s-60.5-3.2-71.5-31.7s3.2-60.5,31.7-71.5l0,0
				C13.1,78.6,45.1,92.8,56.1,121.3L56.1,121.3z"/>
			<path class="st4" d="M3.6,140.9c0.1-9.6-2.2-19-6.5-27.6C-11.1,97.9-24.1,93.1-23,93.6c0,0,8-4.9,15.4-6.6
				c4.8-1,9.8-1.4,14.7-1.2c4.8,8.7,7,18.7,6.4,28.6C12.6,124.1,9.2,133.2,3.6,140.9"/>
			<path class="st4" d="M3.3,141c-8.4-4.3-17.7-6.5-27.1-6.4c-17.1,0.6-26.7,10.5-25.8,9.7c0,0-1-9.5,0.6-17c1.1-4.9,2.9-9.6,5.1-14
				c9.8-0.5,19.5,1.9,28,7C-7.7,125.2-1.1,132.4,3.3,141"/>
			<path class="st4" d="M3.1,141.6c-8.2,4.8-15.1,11.5-20.1,19.6c-8.9,14.9-6.1,28.7-6.2,27.5c0,0-8.4-4.5-13.7-10.1
				c-3.4-3.7-6.3-7.8-8.7-12.3c4.9-8.6,12.3-15.5,21.1-19.9C-16,142.2-6.4,140.6,3.1,141.6"/>
			<path class="st4" d="M3.3,141.8c0.7,9.5,3.7,18.7,8.8,26.9c9.5,14.6,23,18.1,21.8,17.7c0,0-7.6,5.6-14.9,8
				c-4.8,1.5-9.7,2.3-14.7,2.6C-6.9,180.4-7.3,158.7,3.3,141.8"/>
			<path class="st4" d="M4.7,141.6c8.3,4.8,17.7,7.5,27.3,7.9c17.7,0.4,28.7-8.7,27.7-8c0,0,0,9.4-2.4,16.7c-1.7,4.8-4,9.3-6.8,13.5
				c-10-0.1-19.7-3-28.1-8.5C14.5,157.9,8.4,150.4,4.7,141.6"/>
			<path class="st4" d="M4.6,141.1c0,0,12.5-7.3,19.9-20.6c8.6-15.3,5.1-28.6,5.3-27.4c0,0,8.8,3.8,14.4,8.9
				c3.6,3.4,6.8,7.2,9.4,11.4c-4.8,8.8-12,16.1-20.8,21c-8.6,4.7-18.4,6.9-28.2,6.5"/>
			<path class="st32" d="M56.2,121.3c11,28.5-3.2,60.5-31.7,71.5S-36,189.6-47,161.1s3.2-60.5,31.7-71.5S45.2,92.8,56.2,121.3
				L56.2,121.3z"/>
			<path class="st6" d="M44.7,123.6c7.8,20.1-3,43-24.1,51.2c-2,0.8-4,1.4-6.1,1.8c19.6-7.9,29.5-29.4,22.2-48.3
				c-7.4-19.1-29.6-28.4-49.6-20.6c-5.2,2-9.9,5-13.8,8.9c4.8-6.6,11.4-11.8,19.1-14.7C13.5,93.7,37,103.5,44.7,123.6z"/>
		</g>
	</g>
	<g>
		<defs>
			<rect id="SVGID_21_" width="288" height="288"/>
		</defs>
		<clipPath id="SVGID_22_">
			<use xlink:href="#SVGID_21_"  style="overflow:visible;"/>
		</clipPath>
		<g class="st34">
			<path class="st35" d="M119.3,97c1.9,4.1,18.2,26.6,21.1,30.4c0.6,0.7,1.7,0.2,1.8-0.9l2.2-21l14.9-2c0.7-0.2,1.2-0.9,1-1.6v-0.1
				l-5.7-13.9L169.4,73c0.7-0.7,0.5-2-0.4-2.1l-38.9,1L119.3,97z"/>
			<path class="st35" d="M37.4,35.4C35.5,31.3,19.2,8.8,16.3,4.9c-0.6-0.7-1.7-0.2-1.8,0.9l-2.1,21l-15,2c-0.7,0.2-1.2,0.9-1,1.7
				v0.1l5.7,13.9l-14.8,14.9c-0.7,0.7-0.5,2,0.4,2.1l39-1L37.4,35.4z"/>
			
				<ellipse transform="matrix(0.7204 -0.6936 0.6936 0.7204 -22.1983 31.1898)" class="st9" cx="27.6" cy="43.1" rx="1.4" ry="10.5"/>
			
				<ellipse transform="matrix(0.2119 -0.9773 0.9773 0.2119 -31.3483 58.1601)" class="st9" cx="20.4" cy="48.5" rx="1.4" ry="10.5"/>
			
				<ellipse transform="matrix(0.7204 -0.6936 0.6936 0.7204 -27.4251 115.0031)" class="st9" cx="128.9" cy="91.5" rx="1.4" ry="10.5"/>
			
				<ellipse transform="matrix(0.2119 -0.9773 0.9773 0.2119 23.255 197.751)" class="st9" cx="134.2" cy="84.5" rx="1.4" ry="10.5"/>
			<path class="st10" d="M127.7,89.4c-11,28.5-43.1,42.6-71.6,31.6S13.5,77.9,24.5,49.4S67.6,6.8,96.1,17.8l0,0
				C124.6,28.9,138.7,60.9,127.7,89.4L127.7,89.4z"/>
			<path class="st4" d="M75.6,68.5c6.5-7,11.2-15.5,13.7-24.8c4.3-16.9-2.1-29.2-1.7-28.1c0,0,9.2,1.8,15.8,5.5
				c4.3,2.5,8.2,5.5,11.7,9.1c-2.3,9.7-7.4,18.5-14.5,25.5C93.6,62.1,85,66.6,75.6,68.5"/>
			<path class="st4" d="M75.4,68.4c-3.3-8.8-8.7-16.7-15.8-23c-13-11-26.8-10.2-25.6-10.2c0,0,5.7-7.7,11.9-12.2
				c4.1-2.9,8.6-5.2,13.2-6.9c7.6,6.2,13.1,14.6,16,24C77.8,49.3,77.9,59.1,75.4,68.4"/>
			<path class="st4" d="M74.8,68.7c-9.3-2-18.9-1.7-28,0.9c-16.6,5-23.8,17.1-23.1,16.1c0,0-3.2-9-3.3-16.7c0-5,0.6-10.1,1.8-15
				c9.4-3,19.5-3.2,29-0.6C60.3,56.3,68.5,61.6,74.8,68.7"/>
			<path class="st4" d="M74.8,68.9C69,76.5,65,85.3,63.3,94.7c-2.8,17.2,4.9,28.9,4.2,27.8c0,0-9.4-0.9-16.4-4.1
				c-4.5-2.1-8.8-4.8-12.6-8C41.3,90.6,55.6,74.4,74.8,68.9"/>
			<path class="st4" d="M75.9,69.8c2.9,9.2,8,17.5,14.9,24.2c12.8,12.2,27.1,12.9,25.8,12.7c0,0-6.3,7-13,10.7
				c-4.5,2.4-9.2,4.2-14.1,5.4c-7.3-6.8-12.5-15.5-15-25.2C72.3,88.4,72.8,78.7,75.9,69.8"/>
			<path class="st4" d="M76.3,69.3c0,0,14.1,3,28.6-1.9c16.6-5.5,23-17.7,22.4-16.7c0,0,3.9,8.7,4.6,16.3c0.4,4.9,0.2,9.9-0.7,14.8
				c-9.5,3.3-19.8,3.8-29.6,1.6c-9.5-2.4-18.3-7.3-25.2-14.2"/>
			<path class="st36" d="M127.8,89.4c-11,28.5-43.1,42.6-71.6,31.6S13.6,77.9,24.6,49.4S67.7,6.8,96.2,17.9
				C124.7,28.9,138.8,60.9,127.8,89.4L127.8,89.4z"/>
			<path class="st6" d="M117.7,83.4c-7.8,20.1-31.2,29.8-52.2,21.7c-2-0.8-3.9-1.7-5.7-2.7c19.8,7.3,41.6-1.9,48.9-20.8
				c7.4-19.1-2.8-40.9-22.8-48.6c-5.1-2-10.7-2.9-16.2-2.7c8-1.7,16.4-1,24,2C114.7,40.3,125.5,63.3,117.7,83.4z"/>
		</g>
	</g>
	<g>
		<defs>
			<rect id="SVGID_23_" width="288" height="288"/>
		</defs>
		<clipPath id="SVGID_24_">
			<use xlink:href="#SVGID_23_"  style="overflow:visible;"/>
		</clipPath>
		<g class="st37">
			<path class="st35" d="M398.9,97c1.9,4.1,18.2,26.6,21.1,30.4c0.6,0.7,1.7,0.2,1.8-0.9l2.2-21l14.9-2c0.7-0.2,1.2-0.9,1-1.6v-0.1
				l-5.7-13.9L449,73c0.7-0.7,0.5-2-0.4-2.1l-38.9,1L398.9,97z"/>
			<path class="st35" d="M316.9,35.4c-1.9-4.1-18.2-26.6-21.1-30.5c-0.6-0.7-1.7-0.2-1.8,0.9l-2.1,21l-15,2c-0.7,0.2-1.2,0.9-1,1.7
				v0.1l5.7,13.9l-14.8,14.9c-0.7,0.7-0.5,2,0.4,2.1l39-1L316.9,35.4z"/>
			
				<ellipse transform="matrix(0.7204 -0.6936 0.6936 0.7204 56.0042 225.1038)" class="st9" cx="307.2" cy="43.1" rx="1.4" ry="10.5"/>
			
				<ellipse transform="matrix(0.2119 -0.9773 0.9773 0.2119 189.0166 331.3394)" class="st9" cx="299.9" cy="48.5" rx="1.4" ry="10.5"/>
			
				<ellipse transform="matrix(0.7204 -0.6936 0.6936 0.7204 50.7774 308.9173)" class="st9" cx="408.5" cy="91.5" rx="1.4" ry="10.5"/>
			
				<ellipse transform="matrix(0.2119 -0.9773 0.9773 0.2119 243.62 470.9303)" class="st9" cx="413.8" cy="84.4" rx="1.4" ry="10.5"/>
			<path class="st10" d="M407.2,89.4c-11,28.5-43.1,42.6-71.6,31.6S293,77.9,304,49.4s43.1-42.6,71.6-31.6l0,0
				C404.1,28.9,418.3,60.9,407.2,89.4L407.2,89.4z"/>
			<path class="st4" d="M355.2,68.5c6.5-7,11.2-15.5,13.7-24.8c4.3-16.9-2.1-29.2-1.7-28.1c0,0,9.2,1.8,15.8,5.5
				c4.3,2.5,8.2,5.5,11.7,9.1c-2.3,9.7-7.4,18.5-14.5,25.5C373.2,62.1,364.5,66.6,355.2,68.5"/>
			<path class="st4" d="M355,68.4c-3.3-8.8-8.7-16.7-15.8-23c-13-11.1-26.8-10.2-25.6-10.2c0,0,5.7-7.7,11.9-12.2
				c4.1-2.9,8.6-5.2,13.2-6.9c7.6,6.2,13.1,14.6,16,24C357.4,49.3,357.4,59.1,355,68.4"/>
			<path class="st4" d="M354.3,68.7c-9.3-2-18.9-1.7-28,0.9c-16.6,5-23.8,17.1-23.1,16.1c0,0-3.2-9-3.3-16.7c0-5,0.6-10.1,1.8-15
				c9.4-3,19.5-3.2,29-0.6C339.8,56.3,348,61.6,354.3,68.7"/>
			<path class="st4" d="M354.4,68.9c-5.9,7.5-9.8,16.4-11.6,25.8c-2.8,17.2,4.9,28.9,4.2,27.8c0,0-9.4-0.9-16.4-4.1
				c-4.5-2.1-8.8-4.8-12.6-8C320.8,90.6,335.1,74.4,354.4,68.9"/>
			<path class="st4" d="M355.5,69.8c2.9,9.2,8,17.5,14.9,24.2c12.8,12.2,27.1,12.9,25.8,12.7c0,0-6.3,7-13,10.7
				c-4.5,2.4-9.2,4.2-14.1,5.4c-7.3-6.8-12.6-15.5-15.1-25.2C351.8,88.4,352.4,78.7,355.5,69.8"/>
			<path class="st4" d="M355.8,69.3c0,0,14.1,3,28.6-1.9c16.6-5.5,23-17.7,22.4-16.7c0,0,3.9,8.7,4.6,16.3c0.4,4.9,0.2,9.9-0.7,14.8
				c-9.5,3.3-19.8,3.8-29.6,1.6C371.6,81,362.8,76.1,355.8,69.3"/>
			<path class="st36" d="M407.3,89.4c-11,28.5-43.1,42.6-71.6,31.6s-42.6-43.1-31.6-71.6s43.1-42.6,71.6-31.6
				C404.2,28.9,418.4,60.9,407.3,89.4L407.3,89.4z"/>
			<path class="st6" d="M397.3,83.4c-7.8,20.1-31.2,29.8-52.2,21.7c-2-0.8-3.9-1.7-5.7-2.7c19.8,7.3,41.6-1.9,48.9-20.8
				c7.4-19.1-2.8-40.9-22.8-48.6c-5.1-2-10.7-2.9-16.2-2.7c8-1.7,16.4-1,24,2C394.3,40.3,405.1,63.3,397.3,83.4z"/>
		</g>
	</g>
</g>
</svg>
